<svg width="17" height="15" viewBox="0 0 17 15" fill="none" xmlns="http://www.w3.org/2000/svg">
<path d="M0 0.703125C0 0.313477 0.312254 0 0.700384 0H2.02819C2.67021 0 3.23927 0.375 3.50484 0.9375H15.4989C16.2664 0.9375 16.8267 1.66992 16.6254 2.41406L15.4289 6.87598C15.1808 7.7959 14.3491 8.4375 13.4007 8.4375H4.98148L5.13907 9.27246C5.20327 9.60352 5.49218 9.84375 5.82778 9.84375H14.2411C14.6293 9.84375 14.9415 10.1572 14.9415 10.5469C14.9415 10.9365 14.6293 11.25 14.2411 11.25H5.82778C4.81806 11.25 3.95133 10.5293 3.76456 9.53613L2.25874 1.59668C2.23831 1.48535 2.14201 1.40625 2.02819 1.40625H0.700384C0.312254 1.40625 0 1.09277 0 0.703125ZM3.73538 13.5938C3.73538 13.4091 3.77161 13.2262 3.84201 13.0556C3.9124 12.885 4.01558 12.73 4.14566 12.5994C4.27573 12.4688 4.43015 12.3652 4.6001 12.2945C4.77005 12.2239 4.9522 12.1875 5.13615 12.1875C5.3201 12.1875 5.50225 12.2239 5.6722 12.2945C5.84215 12.3652 5.99657 12.4688 6.12664 12.5994C6.25671 12.73 6.35989 12.885 6.43029 13.0556C6.50068 13.2262 6.53692 13.4091 6.53692 13.5938C6.53692 13.7784 6.50068 13.9613 6.43029 14.1319C6.35989 14.3025 6.25671 14.4575 6.12664 14.5881C5.99657 14.7187 5.84215 14.8223 5.6722 14.893C5.50225 14.9636 5.3201 15 5.13615 15C4.9522 15 4.77005 14.9636 4.6001 14.893C4.43015 14.8223 4.27573 14.7187 4.14566 14.5881C4.01558 14.4575 3.9124 14.3025 3.84201 14.1319C3.77161 13.9613 3.73538 13.7784 3.73538 13.5938V13.5938ZM13.5408 12.1875C13.9123 12.1875 14.2686 12.3357 14.5312 12.5994C14.7939 12.8631 14.9415 13.2208 14.9415 13.5938C14.9415 13.9667 14.7939 14.3244 14.5312 14.5881C14.2686 14.8518 13.9123 15 13.5408 15C13.1692 15 12.813 14.8518 12.5503 14.5881C12.2876 14.3244 12.14 13.9667 12.14 13.5938C12.14 13.2208 12.2876 12.8631 12.5503 12.5994C12.813 12.3357 13.1692 12.1875 13.5408 12.1875ZM7.35403 4.6875C7.35403 5.00977 7.61667 5.27344 7.93768 5.27344H9.22172V6.5625C9.22172 6.88477 9.48436 7.14844 9.80537 7.14844C10.1264 7.14844 10.389 6.88477 10.389 6.5625V5.27344H11.6731C11.9941 5.27344 12.2567 5.00977 12.2567 4.6875C12.2567 4.36523 11.9941 4.10156 11.6731 4.10156H10.389V2.8125C10.389 2.49023 10.1264 2.22656 9.80537 2.22656C9.48436 2.22656 9.22172 2.49023 9.22172 2.8125V4.10156H7.93768C7.61667 4.10156 7.35403 4.36523 7.35403 4.6875Z" fill="white"/>
</svg>
