<svg width="20" height="20" viewBox="0 0 20 20" fill="none" xmlns="http://www.w3.org/2000/svg">
<path d="M1.66667 8.91175C1.66667 8.44223 1.86143 7.99706 2.20923 7.68056L8.8699 2.61322C9.50984 2.02893 10.4871 2.02893 11.1271 2.61322L17.7908 7.68055C18.1351 7.99705 18.3333 8.44222 18.3333 8.91174L16.6779 16.7104C16.3343 17.4524 15.9301 17.8234 15.0085 17.8234H4.98853C4.06688 17.8234 3.721 17.8234 3.31912 16.7104L1.66667 8.91175ZM8.32735 12.6297V14.8555C8.32735 15.3181 8.69948 15.5975 9.16205 15.5975H10.8315C11.294 15.5975 11.6662 15.3181 11.6662 14.8555V12.6297C11.6662 12.1671 11.294 11.8877 10.8315 11.8877H9.16205C8.69948 11.8877 8.32735 12.1671 8.32735 12.6297Z" fill="#FFC831"/>
</svg>
