<svg width="17" height="16" viewBox="0 0 17 16" fill="none" xmlns="http://www.w3.org/2000/svg">
<path d="M0 6.73675C0 6.26723 0.194764 5.82205 0.542558 5.50556L7.20324 0.43822C7.84318 -0.146073 8.82047 -0.146073 9.46041 0.43822L16.1241 5.50555C16.4684 5.82204 16.6667 6.26722 16.6667 6.73674L15.0112 14.5354C14.6676 15.2774 14.2635 15.6484 13.3418 15.6484H3.32186C2.40021 15.6484 2.05434 15.6484 1.65245 14.5354L0 6.73675ZM6.66068 10.4547V12.6805C6.66068 13.1431 7.03282 13.4225 7.49538 13.4225H9.16479C9.62736 13.4225 9.99949 13.1431 9.99949 12.6805V10.4547C9.99949 9.9921 9.62736 9.7127 9.16479 9.7127H7.49538C7.03282 9.7127 6.66068 9.9921 6.66068 10.4547Z" fill="#637381"/>
</svg>
