<svg width="24" height="24" viewBox="0 0 24 24" fill="none" xmlns="http://www.w3.org/2000/svg">
<path d="M10.441 3.20445C10.8507 3.41626 11.0069 3.91973 10.7951 4.32945L7.96181 9.77737H16.0382L13.2049 4.32945C12.9931 3.91973 13.1528 3.41626 13.559 3.20445C13.9653 2.99265 14.4688 3.15237 14.684 3.55862L17.9167 9.77737H20.8889C21.5035 9.77737 22 10.2739 22 10.8885C22 11.5031 21.5035 11.9996 20.8889 11.9996L19.0868 19.2045C18.8403 20.194 17.9514 20.8885 16.9306 20.8885H7.06944C6.04861 20.8885 5.15972 20.194 4.91319 19.2045L3.11111 11.9996C2.49653 11.9996 2 11.5031 2 10.8885C2 10.2739 2.49653 9.77737 3.11111 9.77737H6.08333L9.31597 3.55862C9.52778 3.1489 10.0313 2.99265 10.441 3.20445ZM7 13.3885C7.46181 13.3885 7.83333 13.017 7.83333 12.5552C7.83333 12.0933 7.46181 11.7218 7 11.7218C6.53819 11.7218 6.16667 12.0933 6.16667 12.5552C6.16667 13.017 6.53819 13.3885 7 13.3885ZM17.8333 12.5552C17.8333 12.0933 17.4618 11.7218 17 11.7218C16.5382 11.7218 16.1667 12.0933 16.1667 12.5552C16.1667 13.017 16.5382 13.3885 17 13.3885C17.4618 13.3885 17.8333 13.017 17.8333 12.5552Z" fill="#637381"/>
</svg>
