<?xml version="1.0" encoding="us-ascii" standalone="no"?><svg xmlns="http://www.w3.org/2000/svg" xmlns:xlink="http://www.w3.org/1999/xlink" contentStyleType="text/css" height="1584px" preserveAspectRatio="none" style="width:1611px;height:1584px;background:#FFFFFF;" version="1.1" viewBox="0 0 1611 1584" width="1611px" zoomAndPan="magnify"><defs/><g><text fill="#000000" font-family="sans-serif" font-size="14" font-weight="bold" lengthAdjust="spacing" textLength="329" x="642.25" y="29.5332">Fluxo: Criar Pedido / Checkout (POST /pedidos)</text><rect fill="#FFFFFF" height="426.9219" style="stroke:#181818;stroke-width:1.0;" width="10" x="677" y="990.0625"/><rect fill="none" height="382.5703" style="stroke:#000000;stroke-width:1.5;" width="975" x="619.5" y="229.2734"/><rect fill="none" height="859.8438" style="stroke:#000000;stroke-width:1.5;" width="1504.5" x="100" y="625.8438"/><rect fill="none" height="246.8125" style="stroke:#000000;stroke-width:1.5;" width="1484.5" x="110" y="713.8984"/><rect fill="none" height="93.0547" style="stroke:#000000;stroke-width:1.5;" width="624.5" x="120" y="860.6563"/><rect fill="none" height="200.4609" style="stroke:#000000;stroke-width:1.5;" width="975" x="619.5" y="1126.4688"/><line style="stroke:#181818;stroke-width:0.5;stroke-dasharray:5.0,5.0;" x1="30" x2="30" y1="121.2188" y2="1502.6875"/><line style="stroke:#181818;stroke-width:0.5;stroke-dasharray:5.0,5.0;" x1="202" x2="202" y1="121.2188" y2="1502.6875"/><line style="stroke:#181818;stroke-width:0.5;stroke-dasharray:5.0,5.0;" x1="433" x2="433" y1="121.2188" y2="1502.6875"/><line style="stroke:#181818;stroke-width:0.5;stroke-dasharray:5.0,5.0;" x1="681.5" x2="681.5" y1="121.2188" y2="1502.6875"/><line style="stroke:#181818;stroke-width:0.5;stroke-dasharray:5.0,5.0;" x1="849.5" x2="849.5" y1="121.2188" y2="1502.6875"/><line style="stroke:#181818;stroke-width:0.5;stroke-dasharray:5.0,5.0;" x1="994.5" x2="994.5" y1="121.2188" y2="1502.6875"/><line style="stroke:#181818;stroke-width:0.5;stroke-dasharray:5.0,5.0;" x1="1133.5" x2="1133.5" y1="121.2188" y2="1502.6875"/><line style="stroke:#181818;stroke-width:0.5;stroke-dasharray:5.0,5.0;" x1="1277.5" x2="1277.5" y1="121.2188" y2="1502.6875"/><line style="stroke:#181818;stroke-width:0.5;stroke-dasharray:5.0,5.0;" x1="1422.5" x2="1422.5" y1="121.2188" y2="1502.6875"/><line style="stroke:#181818;stroke-width:0.5;stroke-dasharray:5.0,5.0;" x1="1566.5" x2="1566.5" y1="121.2188" y2="1502.6875"/><text fill="#000000" font-family="sans-serif" font-size="14" lengthAdjust="spacing" textLength="44" x="5" y="118.1426">Cliente</text><ellipse cx="30" cy="52.1094" fill="#E2E2F0" rx="8" ry="8" style="stroke:#181818;stroke-width:0.5;"/><path d="M30,60.1094 L30,87.1094 M17,68.1094 L43,68.1094 M30,87.1094 L17,102.1094 M30,87.1094 L43,102.1094 " fill="none" style="stroke:#181818;stroke-width:0.5;"/><text fill="#000000" font-family="sans-serif" font-size="14" lengthAdjust="spacing" textLength="44" x="5" y="1516.2207">Cliente</text><ellipse cx="30" cy="1527.7969" fill="#E2E2F0" rx="8" ry="8" style="stroke:#181818;stroke-width:0.5;"/><path d="M30,1535.7969 L30,1562.7969 M17,1543.7969 L43,1543.7969 M30,1562.7969 L17,1577.7969 M30,1562.7969 L43,1577.7969 " fill="none" style="stroke:#181818;stroke-width:0.5;"/><rect fill="#E2E2F0" height="31.6094" rx="2.5" ry="2.5" style="stroke:#181818;stroke-width:0.5;" width="144" x="130" y="88.6094"/><text fill="#000000" font-family="sans-serif" font-size="14" lengthAdjust="spacing" textLength="130" x="137" y="110.1426">Rota POST /pedidos</text><rect fill="#E2E2F0" height="31.6094" rx="2.5" ry="2.5" style="stroke:#181818;stroke-width:0.5;" width="144" x="130" y="1501.6875"/><text fill="#000000" font-family="sans-serif" font-size="14" lengthAdjust="spacing" textLength="130" x="137" y="1523.2207">Rota POST /pedidos</text><rect fill="#E2E2F0" height="31.6094" rx="2.5" ry="2.5" style="stroke:#181818;stroke-width:0.5;" width="120" x="373" y="88.6094"/><text fill="#000000" font-family="sans-serif" font-size="14" lengthAdjust="spacing" textLength="106" x="380" y="110.1426">PedidoController</text><rect fill="#E2E2F0" height="31.6094" rx="2.5" ry="2.5" style="stroke:#181818;stroke-width:0.5;" width="120" x="373" y="1501.6875"/><text fill="#000000" font-family="sans-serif" font-size="14" lengthAdjust="spacing" textLength="106" x="380" y="1523.2207">PedidoController</text><rect fill="#E2E2F0" height="31.6094" rx="2.5" ry="2.5" style="stroke:#181818;stroke-width:0.5;" width="105" x="629.5" y="88.6094"/><text fill="#000000" font-family="sans-serif" font-size="14" lengthAdjust="spacing" textLength="91" x="636.5" y="110.1426">PedidoService</text><rect fill="#E2E2F0" height="31.6094" rx="2.5" ry="2.5" style="stroke:#181818;stroke-width:0.5;" width="105" x="629.5" y="1501.6875"/><text fill="#000000" font-family="sans-serif" font-size="14" lengthAdjust="spacing" textLength="91" x="636.5" y="1523.2207">PedidoService</text><rect fill="#E2E2F0" height="31.6094" rx="2.5" ry="2.5" style="stroke:#181818;stroke-width:0.5;" width="137" x="781.5" y="88.6094"/><text fill="#000000" font-family="sans-serif" font-size="14" lengthAdjust="spacing" textLength="123" x="788.5" y="110.1426">CarrinhoRepository</text><rect fill="#E2E2F0" height="31.6094" rx="2.5" ry="2.5" style="stroke:#181818;stroke-width:0.5;" width="137" x="781.5" y="1501.6875"/><text fill="#000000" font-family="sans-serif" font-size="14" lengthAdjust="spacing" textLength="123" x="788.5" y="1523.2207">CarrinhoRepository</text><rect fill="#E2E2F0" height="31.6094" rx="2.5" ry="2.5" style="stroke:#181818;stroke-width:0.5;" width="132" x="928.5" y="88.6094"/><text fill="#000000" font-family="sans-serif" font-size="14" lengthAdjust="spacing" textLength="118" x="935.5" y="110.1426">ProdutoRepository</text><rect fill="#E2E2F0" height="31.6094" rx="2.5" ry="2.5" style="stroke:#181818;stroke-width:0.5;" width="132" x="928.5" y="1501.6875"/><text fill="#000000" font-family="sans-serif" font-size="14" lengthAdjust="spacing" textLength="118" x="935.5" y="1523.2207">ProdutoRepository</text><rect fill="#E2E2F0" height="31.6094" rx="2.5" ry="2.5" style="stroke:#181818;stroke-width:0.5;" width="126" x="1070.5" y="88.6094"/><text fill="#000000" font-family="sans-serif" font-size="14" lengthAdjust="spacing" textLength="112" x="1077.5" y="110.1426">ClienteRepository</text><rect fill="#E2E2F0" height="31.6094" rx="2.5" ry="2.5" style="stroke:#181818;stroke-width:0.5;" width="126" x="1070.5" y="1501.6875"/><text fill="#000000" font-family="sans-serif" font-size="14" lengthAdjust="spacing" textLength="112" x="1077.5" y="1523.2207">ClienteRepository</text><rect fill="#E2E2F0" height="31.6094" rx="2.5" ry="2.5" style="stroke:#181818;stroke-width:0.5;" width="143" x="1206.5" y="88.6094"/><text fill="#000000" font-family="sans-serif" font-size="14" lengthAdjust="spacing" textLength="129" x="1213.5" y="110.1426">EnderecoRepository</text><rect fill="#E2E2F0" height="31.6094" rx="2.5" ry="2.5" style="stroke:#181818;stroke-width:0.5;" width="143" x="1206.5" y="1501.6875"/><text fill="#000000" font-family="sans-serif" font-size="14" lengthAdjust="spacing" textLength="129" x="1213.5" y="1523.2207">EnderecoRepository</text><rect fill="#E2E2F0" height="31.6094" rx="2.5" ry="2.5" style="stroke:#181818;stroke-width:0.5;" width="126" x="1359.5" y="88.6094"/><text fill="#000000" font-family="sans-serif" font-size="14" lengthAdjust="spacing" textLength="112" x="1366.5" y="110.1426">PedidoRepository</text><rect fill="#E2E2F0" height="31.6094" rx="2.5" ry="2.5" style="stroke:#181818;stroke-width:0.5;" width="126" x="1359.5" y="1501.6875"/><text fill="#000000" font-family="sans-serif" font-size="14" lengthAdjust="spacing" textLength="112" x="1366.5" y="1523.2207">PedidoRepository</text><text fill="#000000" font-family="sans-serif" font-size="14" lengthAdjust="spacing" textLength="19" x="1554" y="118.1426">DB</text><path d="M1548.5,67.6094 C1548.5,57.6094 1566.5,57.6094 1566.5,57.6094 C1566.5,57.6094 1584.5,57.6094 1584.5,67.6094 L1584.5,93.6094 C1584.5,103.6094 1566.5,103.6094 1566.5,103.6094 C1566.5,103.6094 1548.5,103.6094 1548.5,93.6094 L1548.5,67.6094 " fill="#E2E2F0" style="stroke:#181818;stroke-width:1.5;"/><path d="M1548.5,67.6094 C1548.5,77.6094 1566.5,77.6094 1566.5,77.6094 C1566.5,77.6094 1584.5,77.6094 1584.5,67.6094 " fill="none" style="stroke:#181818;stroke-width:1.5;"/><text fill="#000000" font-family="sans-serif" font-size="14" lengthAdjust="spacing" textLength="19" x="1554" y="1516.2207">DB</text><path d="M1548.5,1529.2969 C1548.5,1519.2969 1566.5,1519.2969 1566.5,1519.2969 C1566.5,1519.2969 1584.5,1519.2969 1584.5,1529.2969 L1584.5,1555.2969 C1584.5,1565.2969 1566.5,1565.2969 1566.5,1565.2969 C1566.5,1565.2969 1548.5,1565.2969 1548.5,1555.2969 L1548.5,1529.2969 " fill="#E2E2F0" style="stroke:#181818;stroke-width:1.5;"/><path d="M1548.5,1529.2969 C1548.5,1539.2969 1566.5,1539.2969 1566.5,1539.2969 C1566.5,1539.2969 1584.5,1539.2969 1584.5,1529.2969 " fill="none" style="stroke:#181818;stroke-width:1.5;"/><rect fill="#FFFFFF" height="426.9219" style="stroke:#181818;stroke-width:1.0;" width="10" x="677" y="990.0625"/><polygon fill="#181818" points="190,149.5703,200,153.5703,190,157.5703,194,153.5703" style="stroke:#181818;stroke-width:1.0;"/><line style="stroke:#181818;stroke-width:1.0;" x1="30" x2="196" y1="153.5703" y2="153.5703"/><text fill="#000000" font-family="sans-serif" font-size="13" lengthAdjust="spacing" textLength="148" x="37" y="148.7139">Envia pedido (enderecoId)</text><polygon fill="#181818" points="421,179.9219,431,183.9219,421,187.9219,425,183.9219" style="stroke:#181818;stroke-width:1.0;"/><line style="stroke:#181818;stroke-width:1.0;" x1="202" x2="427" y1="183.9219" y2="183.9219"/><text fill="#000000" font-family="sans-serif" font-size="13" lengthAdjust="spacing" textLength="77" x="209" y="179.0654">criar(req, res)</text><polygon fill="#181818" points="670,210.2734,680,214.2734,670,218.2734,674,214.2734" style="stroke:#181818;stroke-width:1.0;"/><line style="stroke:#181818;stroke-width:1.0;" x1="433" x2="676" y1="214.2734" y2="214.2734"/><text fill="#000000" font-family="sans-serif" font-size="13" lengthAdjust="spacing" textLength="192" x="440" y="209.417">criarPedido(clienteId, enderecoId)</text><path d="M619.5,229.2734 L680.5,229.2734 L680.5,237.625 L670.5,247.625 L619.5,247.625 L619.5,229.2734 " fill="#EEEEEE" style="stroke:#000000;stroke-width:1.5;"/><rect fill="none" height="382.5703" style="stroke:#000000;stroke-width:1.5;" width="975" x="619.5" y="229.2734"/><text fill="#000000" font-family="sans-serif" font-size="13" font-weight="bold" lengthAdjust="spacing" textLength="16" x="634.5" y="243.7686">alt</text><text fill="#000000" font-family="sans-serif" font-size="11" font-weight="bold" lengthAdjust="spacing" textLength="107" x="695.5" y="242.6924">[valida&#231;&#245;es iniciais]</text><polygon fill="#181818" points="1121.5,265.9766,1131.5,269.9766,1121.5,273.9766,1125.5,269.9766" style="stroke:#181818;stroke-width:1.0;"/><line style="stroke:#181818;stroke-width:1.0;" x1="682" x2="1127.5" y1="269.9766" y2="269.9766"/><text fill="#000000" font-family="sans-serif" font-size="13" lengthAdjust="spacing" textLength="114" x="689" y="265.1201">getCliente(clienteId)</text><polygon fill="#181818" points="1554.5,296.3281,1564.5,300.3281,1554.5,304.3281,1558.5,300.3281" style="stroke:#181818;stroke-width:1.0;"/><line style="stroke:#181818;stroke-width:1.0;" x1="1133.5" x2="1560.5" y1="300.3281" y2="300.3281"/><text fill="#000000" font-family="sans-serif" font-size="13" lengthAdjust="spacing" textLength="92" x="1140.5" y="295.4717">SELECT cliente</text><polygon fill="#181818" points="1144.5,326.6797,1134.5,330.6797,1144.5,334.6797,1140.5,330.6797" style="stroke:#181818;stroke-width:1.0;"/><line style="stroke:#181818;stroke-width:1.0;stroke-dasharray:2.0,2.0;" x1="1138.5" x2="1565.5" y1="330.6797" y2="330.6797"/><text fill="#000000" font-family="sans-serif" font-size="13" lengthAdjust="spacing" textLength="38" x="1150.5" y="325.8232">cliente</text><polygon fill="#181818" points="693,357.0313,683,361.0313,693,365.0313,689,361.0313" style="stroke:#181818;stroke-width:1.0;"/><line style="stroke:#181818;stroke-width:1.0;stroke-dasharray:2.0,2.0;" x1="687" x2="1132.5" y1="361.0313" y2="361.0313"/><text fill="#000000" font-family="sans-serif" font-size="13" lengthAdjust="spacing" textLength="106" x="699" y="356.1748">cliente encontrado</text><polygon fill="#181818" points="1266,387.3828,1276,391.3828,1266,395.3828,1270,391.3828" style="stroke:#181818;stroke-width:1.0;"/><line style="stroke:#181818;stroke-width:1.0;" x1="682" x2="1272" y1="391.3828" y2="391.3828"/><text fill="#000000" font-family="sans-serif" font-size="13" lengthAdjust="spacing" textLength="144" x="689" y="386.5264">getEndereco(enderecoId)</text><polygon fill="#181818" points="1554.5,417.7344,1564.5,421.7344,1554.5,425.7344,1558.5,421.7344" style="stroke:#181818;stroke-width:1.0;"/><line style="stroke:#181818;stroke-width:1.0;" x1="1278" x2="1560.5" y1="421.7344" y2="421.7344"/><text fill="#000000" font-family="sans-serif" font-size="13" lengthAdjust="spacing" textLength="107" x="1285" y="416.8779">SELECT endereco</text><polygon fill="#181818" points="1289,448.0859,1279,452.0859,1289,456.0859,1285,452.0859" style="stroke:#181818;stroke-width:1.0;"/><line style="stroke:#181818;stroke-width:1.0;stroke-dasharray:2.0,2.0;" x1="1283" x2="1565.5" y1="452.0859" y2="452.0859"/><text fill="#000000" font-family="sans-serif" font-size="13" lengthAdjust="spacing" textLength="53" x="1295" y="447.2295">endereco</text><polygon fill="#181818" points="693,478.4375,683,482.4375,693,486.4375,689,482.4375" style="stroke:#181818;stroke-width:1.0;"/><line style="stroke:#181818;stroke-width:1.0;stroke-dasharray:2.0,2.0;" x1="687" x2="1277" y1="482.4375" y2="482.4375"/><text fill="#000000" font-family="sans-serif" font-size="13" lengthAdjust="spacing" textLength="121" x="699" y="477.5811">endereco encontrado</text><polygon fill="#181818" points="838,508.7891,848,512.7891,838,516.7891,842,512.7891" style="stroke:#181818;stroke-width:1.0;"/><line style="stroke:#181818;stroke-width:1.0;" x1="682" x2="844" y1="512.7891" y2="512.7891"/><text fill="#000000" font-family="sans-serif" font-size="13" lengthAdjust="spacing" textLength="122" x="689" y="507.9326">getCarrinho(clienteId)</text><polygon fill="#181818" points="1554.5,539.1406,1564.5,543.1406,1554.5,547.1406,1558.5,543.1406" style="stroke:#181818;stroke-width:1.0;"/><line style="stroke:#181818;stroke-width:1.0;" x1="850" x2="1560.5" y1="543.1406" y2="543.1406"/><text fill="#000000" font-family="sans-serif" font-size="13" lengthAdjust="spacing" textLength="100" x="857" y="538.2842">SELECT carrinho</text><polygon fill="#181818" points="861,569.4922,851,573.4922,861,577.4922,857,573.4922" style="stroke:#181818;stroke-width:1.0;"/><line style="stroke:#181818;stroke-width:1.0;stroke-dasharray:2.0,2.0;" x1="855" x2="1565.5" y1="573.4922" y2="573.4922"/><text fill="#000000" font-family="sans-serif" font-size="13" lengthAdjust="spacing" textLength="96" x="867" y="568.6357">itens do carrinho</text><polygon fill="#181818" points="693,599.8438,683,603.8438,693,607.8438,689,603.8438" style="stroke:#181818;stroke-width:1.0;"/><line style="stroke:#181818;stroke-width:1.0;stroke-dasharray:2.0,2.0;" x1="687" x2="849" y1="603.8438" y2="603.8438"/><text fill="#000000" font-family="sans-serif" font-size="13" lengthAdjust="spacing" textLength="76" x="699" y="598.9873">itensCarrinho</text><path d="M100,625.8438 L161,625.8438 L161,634.1953 L151,644.1953 L100,644.1953 L100,625.8438 " fill="#EEEEEE" style="stroke:#000000;stroke-width:1.5;"/><rect fill="none" height="859.8438" style="stroke:#000000;stroke-width:1.5;" width="1504.5" x="100" y="625.8438"/><text fill="#000000" font-family="sans-serif" font-size="13" font-weight="bold" lengthAdjust="spacing" textLength="16" x="115" y="640.3389">alt</text><text fill="#000000" font-family="sans-serif" font-size="11" font-weight="bold" lengthAdjust="spacing" textLength="85" x="176" y="639.2627">[carrinho vazio]</text><polygon fill="#181818" points="444,662.5469,434,666.5469,444,670.5469,440,666.5469" style="stroke:#181818;stroke-width:1.0;"/><line style="stroke:#181818;stroke-width:1.0;" x1="438" x2="681" y1="666.5469" y2="666.5469"/><text fill="#000000" font-family="sans-serif" font-size="13" lengthAdjust="spacing" textLength="189" x="450" y="661.6904">"lan&#231;a AppError (Carrinho vazio)"</text><polygon fill="#181818" points="213,692.8984,203,696.8984,213,700.8984,209,696.8984" style="stroke:#181818;stroke-width:1.0;"/><line style="stroke:#181818;stroke-width:1.0;" x1="207" x2="432" y1="696.8984" y2="696.8984"/><text fill="#000000" font-family="sans-serif" font-size="13" lengthAdjust="spacing" textLength="171" x="219" y="692.042">responde 400 - Carrinho vazio</text><line style="stroke:#000000;stroke-width:1.0;stroke-dasharray:2.0,2.0;" x1="100" x2="1604.5" y1="705.8984" y2="705.8984"/><path d="M110,713.8984 L183,713.8984 L183,722.25 L173,732.25 L110,732.25 L110,713.8984 " fill="#EEEEEE" style="stroke:#000000;stroke-width:1.5;"/><rect fill="none" height="246.8125" style="stroke:#000000;stroke-width:1.5;" width="1484.5" x="110" y="713.8984"/><text fill="#000000" font-family="sans-serif" font-size="13" font-weight="bold" lengthAdjust="spacing" textLength="28" x="125" y="728.3936">loop</text><text fill="#000000" font-family="sans-serif" font-size="11" font-weight="bold" lengthAdjust="spacing" textLength="75" x="198" y="727.3174">[validar itens]</text><polygon fill="#181818" points="982.5,750.6016,992.5,754.6016,982.5,758.6016,986.5,754.6016" style="stroke:#181818;stroke-width:1.0;"/><line style="stroke:#181818;stroke-width:1.0;" x1="682" x2="988.5" y1="754.6016" y2="754.6016"/><text fill="#000000" font-family="sans-serif" font-size="13" lengthAdjust="spacing" textLength="160" x="689" y="749.7451">getProduto(item.id_produto)</text><polygon fill="#181818" points="1554.5,780.9531,1564.5,784.9531,1554.5,788.9531,1558.5,784.9531" style="stroke:#181818;stroke-width:1.0;"/><line style="stroke:#181818;stroke-width:1.0;" x1="994.5" x2="1560.5" y1="784.9531" y2="784.9531"/><text fill="#000000" font-family="sans-serif" font-size="13" lengthAdjust="spacing" textLength="97" x="1001.5" y="780.0967">SELECT produto</text><polygon fill="#181818" points="1005.5,811.3047,995.5,815.3047,1005.5,819.3047,1001.5,815.3047" style="stroke:#181818;stroke-width:1.0;"/><line style="stroke:#181818;stroke-width:1.0;stroke-dasharray:2.0,2.0;" x1="999.5" x2="1565.5" y1="815.3047" y2="815.3047"/><text fill="#000000" font-family="sans-serif" font-size="13" lengthAdjust="spacing" textLength="43" x="1011.5" y="810.4482">produto</text><polygon fill="#181818" points="693,841.6563,683,845.6563,693,849.6563,689,845.6563" style="stroke:#181818;stroke-width:1.0;"/><line style="stroke:#181818;stroke-width:1.0;stroke-dasharray:2.0,2.0;" x1="687" x2="993.5" y1="845.6563" y2="845.6563"/><text fill="#000000" font-family="sans-serif" font-size="13" lengthAdjust="spacing" textLength="43" x="699" y="840.7998">produto</text><path d="M120,860.6563 L181,860.6563 L181,869.0078 L171,879.0078 L120,879.0078 L120,860.6563 " fill="#EEEEEE" style="stroke:#000000;stroke-width:1.5;"/><rect fill="none" height="93.0547" style="stroke:#000000;stroke-width:1.5;" width="624.5" x="120" y="860.6563"/><text fill="#000000" font-family="sans-serif" font-size="13" font-weight="bold" lengthAdjust="spacing" textLength="16" x="135" y="875.1514">alt</text><text fill="#000000" font-family="sans-serif" font-size="11" font-weight="bold" lengthAdjust="spacing" textLength="122" x="196" y="874.0752">[estoque insuficiente]</text><polygon fill="#181818" points="444,897.3594,434,901.3594,444,905.3594,440,901.3594" style="stroke:#181818;stroke-width:1.0;"/><line style="stroke:#181818;stroke-width:1.0;" x1="438" x2="681" y1="901.3594" y2="901.3594"/><text fill="#000000" font-family="sans-serif" font-size="13" lengthAdjust="spacing" textLength="225" x="450" y="896.5029">"lan&#231;a AppError (Estoque insuficiente)"</text><polygon fill="#181818" points="213,927.7109,203,931.7109,213,935.7109,209,931.7109" style="stroke:#181818;stroke-width:1.0;"/><line style="stroke:#181818;stroke-width:1.0;" x1="207" x2="432" y1="931.7109" y2="931.7109"/><text fill="#000000" font-family="sans-serif" font-size="13" lengthAdjust="spacing" textLength="207" x="219" y="926.8545">responde 400 - Estoque insuficiente</text><polygon fill="#181818" points="421,941.7109,431,945.7109,421,949.7109,425,945.7109" style="stroke:#181818;stroke-width:1.0;"/><line style="stroke:#181818;stroke-width:1.0;stroke-dasharray:2.0,2.0;" x1="202" x2="427" y1="945.7109" y2="945.7109"/><polygon fill="#181818" points="1554.5,986.0625,1564.5,990.0625,1554.5,994.0625,1558.5,990.0625" style="stroke:#181818;stroke-width:1.0;"/><line style="stroke:#181818;stroke-width:1.0;" x1="687" x2="1560.5" y1="990.0625" y2="990.0625"/><text fill="#000000" font-family="sans-serif" font-size="13" lengthAdjust="spacing" textLength="91" x="694" y="985.2061">inicia transa&#231;&#227;o</text><polygon fill="#181818" points="1410.5,1016.4141,1420.5,1020.4141,1410.5,1024.4141,1414.5,1020.4141" style="stroke:#181818;stroke-width:1.0;"/><line style="stroke:#181818;stroke-width:1.0;" x1="687" x2="1416.5" y1="1020.4141" y2="1020.4141"/><text fill="#000000" font-family="sans-serif" font-size="13" lengthAdjust="spacing" textLength="225" x="694" y="1015.5576">criarPedido(clienteId, total, enderecoId)</text><polygon fill="#181818" points="1554.5,1046.7656,1564.5,1050.7656,1554.5,1054.7656,1558.5,1050.7656" style="stroke:#181818;stroke-width:1.0;"/><line style="stroke:#181818;stroke-width:1.0;" x1="1422.5" x2="1560.5" y1="1050.7656" y2="1050.7656"/><text fill="#000000" font-family="sans-serif" font-size="13" lengthAdjust="spacing" textLength="88" x="1429.5" y="1045.9092">INSERT pedido</text><polygon fill="#181818" points="1433.5,1077.1172,1423.5,1081.1172,1433.5,1085.1172,1429.5,1081.1172" style="stroke:#181818;stroke-width:1.0;"/><line style="stroke:#181818;stroke-width:1.0;stroke-dasharray:2.0,2.0;" x1="1427.5" x2="1565.5" y1="1081.1172" y2="1081.1172"/><text fill="#000000" font-family="sans-serif" font-size="13" lengthAdjust="spacing" textLength="77" x="1439.5" y="1076.2607">pedido criado</text><polygon fill="#181818" points="698,1107.4688,688,1111.4688,698,1115.4688,694,1111.4688" style="stroke:#181818;stroke-width:1.0;"/><line style="stroke:#181818;stroke-width:1.0;stroke-dasharray:2.0,2.0;" x1="692" x2="1421.5" y1="1111.4688" y2="1111.4688"/><text fill="#000000" font-family="sans-serif" font-size="13" lengthAdjust="spacing" textLength="82" x="704" y="1106.6123">retorna pedido</text><path d="M619.5,1126.4688 L692.5,1126.4688 L692.5,1134.8203 L682.5,1144.8203 L619.5,1144.8203 L619.5,1126.4688 " fill="#EEEEEE" style="stroke:#000000;stroke-width:1.5;"/><rect fill="none" height="200.4609" style="stroke:#000000;stroke-width:1.5;" width="975" x="619.5" y="1126.4688"/><text fill="#000000" font-family="sans-serif" font-size="13" font-weight="bold" lengthAdjust="spacing" textLength="28" x="634.5" y="1140.9639">loop</text><text fill="#000000" font-family="sans-serif" font-size="11" font-weight="bold" lengthAdjust="spacing" textLength="88" x="707.5" y="1139.8877">[para cada item]</text><polygon fill="#181818" points="1410.5,1163.1719,1420.5,1167.1719,1410.5,1171.1719,1414.5,1167.1719" style="stroke:#181818;stroke-width:1.0;"/><line style="stroke:#181818;stroke-width:1.0;" x1="687" x2="1416.5" y1="1167.1719" y2="1167.1719"/><text fill="#000000" font-family="sans-serif" font-size="13" lengthAdjust="spacing" textLength="361" x="694" y="1162.3154">adicionarItemNoPedido(pedidoId, produtoId, quantidade, preco)</text><polygon fill="#181818" points="1554.5,1193.5234,1564.5,1197.5234,1554.5,1201.5234,1558.5,1197.5234" style="stroke:#181818;stroke-width:1.0;"/><line style="stroke:#181818;stroke-width:1.0;" x1="1422.5" x2="1560.5" y1="1197.5234" y2="1197.5234"/><text fill="#000000" font-family="sans-serif" font-size="13" lengthAdjust="spacing" textLength="120" x="1429.5" y="1192.667">INSERT item_pedido</text><polygon fill="#181818" points="1433.5,1223.875,1423.5,1227.875,1433.5,1231.875,1429.5,1227.875" style="stroke:#181818;stroke-width:1.0;"/><line style="stroke:#181818;stroke-width:1.0;stroke-dasharray:2.0,2.0;" x1="1427.5" x2="1565.5" y1="1227.875" y2="1227.875"/><text fill="#000000" font-family="sans-serif" font-size="13" lengthAdjust="spacing" textLength="74" x="1439.5" y="1223.0186">item inserido</text><polygon fill="#181818" points="982.5,1254.2266,992.5,1258.2266,982.5,1262.2266,986.5,1258.2266" style="stroke:#181818;stroke-width:1.0;"/><line style="stroke:#181818;stroke-width:1.0;" x1="687" x2="988.5" y1="1258.2266" y2="1258.2266"/><text fill="#000000" font-family="sans-serif" font-size="13" lengthAdjust="spacing" textLength="225" x="694" y="1253.3701">diminuirEstoque(produtoId, quantidade)</text><polygon fill="#181818" points="1554.5,1284.5781,1564.5,1288.5781,1554.5,1292.5781,1558.5,1288.5781" style="stroke:#181818;stroke-width:1.0;"/><line style="stroke:#181818;stroke-width:1.0;" x1="994.5" x2="1560.5" y1="1288.5781" y2="1288.5781"/><text fill="#000000" font-family="sans-serif" font-size="13" lengthAdjust="spacing" textLength="102" x="1001.5" y="1283.7217">UPDATE estoque</text><polygon fill="#181818" points="1005.5,1314.9297,995.5,1318.9297,1005.5,1322.9297,1001.5,1318.9297" style="stroke:#181818;stroke-width:1.0;"/><line style="stroke:#181818;stroke-width:1.0;stroke-dasharray:2.0,2.0;" x1="999.5" x2="1565.5" y1="1318.9297" y2="1318.9297"/><text fill="#000000" font-family="sans-serif" font-size="13" lengthAdjust="spacing" textLength="109" x="1011.5" y="1314.0732">estoque atualizado</text><polygon fill="#181818" points="838,1352.2813,848,1356.2813,838,1360.2813,842,1356.2813" style="stroke:#181818;stroke-width:1.0;"/><line style="stroke:#181818;stroke-width:1.0;" x1="687" x2="844" y1="1356.2813" y2="1356.2813"/><text fill="#000000" font-family="sans-serif" font-size="13" lengthAdjust="spacing" textLength="139" x="694" y="1351.4248">limparCarrinho(clienteId)</text><polygon fill="#181818" points="1554.5,1382.6328,1564.5,1386.6328,1554.5,1390.6328,1558.5,1386.6328" style="stroke:#181818;stroke-width:1.0;"/><line style="stroke:#181818;stroke-width:1.0;" x1="850" x2="1560.5" y1="1386.6328" y2="1386.6328"/><text fill="#000000" font-family="sans-serif" font-size="13" lengthAdjust="spacing" textLength="100" x="857" y="1381.7764">DELETE carrinho</text><polygon fill="#181818" points="861,1412.9844,851,1416.9844,861,1420.9844,857,1416.9844" style="stroke:#181818;stroke-width:1.0;"/><line style="stroke:#181818;stroke-width:1.0;stroke-dasharray:2.0,2.0;" x1="855" x2="1565.5" y1="1416.9844" y2="1416.9844"/><text fill="#000000" font-family="sans-serif" font-size="13" lengthAdjust="spacing" textLength="81" x="867" y="1412.1279">carrinho limpo</text><polygon fill="#181818" points="444,1443.3359,434,1447.3359,444,1451.3359,440,1447.3359" style="stroke:#181818;stroke-width:1.0;"/><line style="stroke:#181818;stroke-width:1.0;" x1="438" x2="681" y1="1447.3359" y2="1447.3359"/><text fill="#000000" font-family="sans-serif" font-size="13" lengthAdjust="spacing" textLength="82" x="450" y="1442.4795">retorna pedido</text><polygon fill="#181818" points="213,1473.6875,203,1477.6875,213,1481.6875,209,1477.6875" style="stroke:#181818;stroke-width:1.0;"/><line style="stroke:#181818;stroke-width:1.0;" x1="207" x2="432" y1="1477.6875" y2="1477.6875"/><text fill="#000000" font-family="sans-serif" font-size="13" lengthAdjust="spacing" textLength="167" x="219" y="1472.8311">responde 201 (pedido criado)</text><!--SRC=[bLLBRjim4Dtp50El921fqg8hBmeaiWeOA5B3TjS18x8DKPcKASfeSvqkSeAU81VhKAHiKQ8ITsDOv9l7-RqP8qp9uNFP_59poBIW6bQS2QRW2h97NlnKZO5azNMpXQkglQXJGcXXb8Qi55mQJYggZIX4HQM1sLeP2W5-1hI6DVA4IFTCfgJHgYovZbnkk3w88ZJBgDP2FgerhrGjq8tVeQ5Mh35JjzxZYTjSCgvvCKdT-jIxPDJG1rfpMDmIugdXyfEBTOvq1q719G4IxicNB2Kjm2A7EPX3OKkGQBw_0CqnrKF4oSednvkuiwHmNYpP1VGV9BGqSA2bOFJb-UKlhq5838kAca18P_b7MPh33sxywUc956r7K6k_k9t39l-IPrlmO4GkRk4opdt2HDWYuVf4SrdOh52cI2o8SJ7RABhZe1uGGGy2wU2dI68Fz50nnd4mdS5RqOoxtjN47m-ACW8Fg-81lR94-8NXiWRitHuyHZsEghNie0HZT0tOyM0dFWaL2tEiXrb9vSipXPkgohN6ePDa0KiwE_A48l4YH15L2fCC7w-luH92OyBBslPTgLJbvQ6TytWOSsyuNDeY-DC43NVl1Bklt7VgE8OcWr9uS8lrjOYyqaT56CSLw0nQ2vjxNXkrRpZglcw-e_Izuk9Xdb65FCBNrkB4U4uzycctD3UDbks7xI3t6siQcqqtpW0596ixulxONE6M4WUAeoBS9jED5qob-5GrkDxASBZ2oBhpQdctoTTRlm9EOXi_vfU4VPEfAE6un9WVfMMtO4ZNnhYnA2gDKTl8E_9AWViEK8RvKvBg9HhTAH-texPX-twoV_SDBaDK2kFs67EGzXwPp85rvlwOY5TIOO6s7RZsKPsdGoPsGZP2-uPAeWw_8SblgyNDDk-ayeOaEq5Hq-3WU79rcshHs7WjnGvhzRyJV85Z0tqyRu8V1wvzgqqcunEYE6iC35hkFA5_k7uFIT3WQRiI_W40]--></g></svg>