<?xml version="1.0" encoding="us-ascii" standalone="no"?><svg xmlns="http://www.w3.org/2000/svg" xmlns:xlink="http://www.w3.org/1999/xlink" contentStyleType="text/css" height="1469px" preserveAspectRatio="none" style="width:1754px;height:1469px;background:#FFFFFF;" version="1.1" viewBox="0 0 1754 1469" width="1754px" zoomAndPan="magnify"><defs/><g><text fill="#000000" font-family="sans-serif" font-size="14" font-weight="bold" lengthAdjust="spacing" textLength="266" x="745.25" y="29.5332">Diagrama de Sequ&#234;ncia - Vought Tech</text><text fill="#000000" font-family="sans-serif" font-size="14" font-weight="bold" lengthAdjust="spacing" textLength="4" x="876.25" y="47.1426">&#160;</text><text fill="#000000" font-family="sans-serif" font-size="14" font-weight="bold" lengthAdjust="spacing" textLength="323" x="716.75" y="64.752">Fluxo: Atualizar Categoria (PUT /categorias/:id)</text><rect fill="none" height="95.0547" style="stroke:#000000;stroke-width:1.5;" width="546" x="179.5" y="234.1406"/><rect fill="none" height="62.7031" style="stroke:#000000;stroke-width:1.5;" width="526" x="189.5" y="259.4922"/><rect fill="none" height="232.4609" style="stroke:#000000;stroke-width:1.5;" width="909.5" x="179.5" y="373.5469"/><rect fill="none" height="93.0547" style="stroke:#000000;stroke-width:1.5;" width="889.5" x="189.5" y="398.8984"/><rect fill="none" height="93.0547" style="stroke:#000000;stroke-width:1.5;" width="889.5" x="189.5" y="505.9531"/><rect fill="none" height="123.4063" style="stroke:#000000;stroke-width:1.5;" width="1087" x="189.5" y="711.0625"/><rect fill="none" height="400.5703" style="stroke:#000000;stroke-width:1.5;" width="1737.5" x="10" y="969.875"/><rect fill="none" height="93.0547" style="stroke:#000000;stroke-width:1.5;" width="889.5" x="189.5" y="1025.5781"/><line style="stroke:#181818;stroke-width:0.5;stroke-dasharray:5.0,5.0;" x1="42" x2="42" y1="156.4375" y2="1387.4453"/><line style="stroke:#181818;stroke-width:0.5;stroke-dasharray:5.0,5.0;" x1="283.5" x2="283.5" y1="156.4375" y2="1387.4453"/><line style="stroke:#181818;stroke-width:0.5;stroke-dasharray:5.0,5.0;" x1="636.5" x2="636.5" y1="156.4375" y2="1387.4453"/><line style="stroke:#181818;stroke-width:0.5;stroke-dasharray:5.0,5.0;" x1="1007" x2="1007" y1="156.4375" y2="1387.4453"/><line style="stroke:#181818;stroke-width:0.5;stroke-dasharray:5.0,5.0;" x1="1194.5" x2="1194.5" y1="156.4375" y2="1387.4453"/><line style="stroke:#181818;stroke-width:0.5;stroke-dasharray:5.0,5.0;" x1="1719.5" x2="1719.5" y1="156.4375" y2="1387.4453"/><text fill="#000000" font-family="sans-serif" font-size="14" lengthAdjust="spacing" textLength="39" x="20" y="153.3613">Admin</text><ellipse cx="42.5" cy="87.3281" fill="#E2E2F0" rx="8" ry="8" style="stroke:#181818;stroke-width:0.5;"/><path d="M42.5,95.3281 L42.5,122.3281 M29.5,103.3281 L55.5,103.3281 M42.5,122.3281 L29.5,137.3281 M42.5,122.3281 L55.5,137.3281 " fill="none" style="stroke:#181818;stroke-width:0.5;"/><text fill="#000000" font-family="sans-serif" font-size="14" lengthAdjust="spacing" textLength="39" x="20" y="1400.9785">Admin</text><ellipse cx="42.5" cy="1412.5547" fill="#E2E2F0" rx="8" ry="8" style="stroke:#181818;stroke-width:0.5;"/><path d="M42.5,1420.5547 L42.5,1447.5547 M29.5,1428.5547 L55.5,1428.5547 M42.5,1447.5547 L29.5,1462.5547 M42.5,1447.5547 L55.5,1462.5547 " fill="none" style="stroke:#181818;stroke-width:0.5;"/><rect fill="#E2E2F0" height="31.6094" rx="2.5" ry="2.5" style="stroke:#181818;stroke-width:0.5;" width="168" x="199.5" y="123.8281"/><text fill="#000000" font-family="sans-serif" font-size="14" lengthAdjust="spacing" textLength="154" x="206.5" y="145.3613">Rota PUT /categorias/:id</text><rect fill="#E2E2F0" height="31.6094" rx="2.5" ry="2.5" style="stroke:#181818;stroke-width:0.5;" width="168" x="199.5" y="1386.4453"/><text fill="#000000" font-family="sans-serif" font-size="14" lengthAdjust="spacing" textLength="154" x="206.5" y="1407.9785">Rota PUT /categorias/:id</text><rect fill="#E2E2F0" height="31.6094" rx="2.5" ry="2.5" style="stroke:#181818;stroke-width:0.5;" width="138" x="567.5" y="123.8281"/><text fill="#000000" font-family="sans-serif" font-size="14" lengthAdjust="spacing" textLength="124" x="574.5" y="145.3613">CategoriaController</text><rect fill="#E2E2F0" height="31.6094" rx="2.5" ry="2.5" style="stroke:#181818;stroke-width:0.5;" width="138" x="567.5" y="1386.4453"/><text fill="#000000" font-family="sans-serif" font-size="14" lengthAdjust="spacing" textLength="124" x="574.5" y="1407.9785">CategoriaController</text><rect fill="#E2E2F0" height="31.6094" rx="2.5" ry="2.5" style="stroke:#181818;stroke-width:0.5;" width="123" x="946" y="123.8281"/><text fill="#000000" font-family="sans-serif" font-size="14" lengthAdjust="spacing" textLength="109" x="953" y="145.3613">CategoriaService</text><rect fill="#E2E2F0" height="31.6094" rx="2.5" ry="2.5" style="stroke:#181818;stroke-width:0.5;" width="123" x="946" y="1386.4453"/><text fill="#000000" font-family="sans-serif" font-size="14" lengthAdjust="spacing" textLength="109" x="953" y="1407.9785">CategoriaService</text><rect fill="#E2E2F0" height="31.6094" rx="2.5" ry="2.5" style="stroke:#181818;stroke-width:0.5;" width="144" x="1122.5" y="123.8281"/><text fill="#000000" font-family="sans-serif" font-size="14" lengthAdjust="spacing" textLength="130" x="1129.5" y="145.3613">CategoriaRepository</text><rect fill="#E2E2F0" height="31.6094" rx="2.5" ry="2.5" style="stroke:#181818;stroke-width:0.5;" width="144" x="1122.5" y="1386.4453"/><text fill="#000000" font-family="sans-serif" font-size="14" lengthAdjust="spacing" textLength="130" x="1129.5" y="1407.9785">CategoriaRepository</text><text fill="#000000" font-family="sans-serif" font-size="14" lengthAdjust="spacing" textLength="19" x="1707" y="153.3613">DB</text><path d="M1701.5,102.8281 C1701.5,92.8281 1719.5,92.8281 1719.5,92.8281 C1719.5,92.8281 1737.5,92.8281 1737.5,102.8281 L1737.5,128.8281 C1737.5,138.8281 1719.5,138.8281 1719.5,138.8281 C1719.5,138.8281 1701.5,138.8281 1701.5,128.8281 L1701.5,102.8281 " fill="#E2E2F0" style="stroke:#181818;stroke-width:1.5;"/><path d="M1701.5,102.8281 C1701.5,112.8281 1719.5,112.8281 1719.5,112.8281 C1719.5,112.8281 1737.5,112.8281 1737.5,102.8281 " fill="none" style="stroke:#181818;stroke-width:1.5;"/><text fill="#000000" font-family="sans-serif" font-size="14" lengthAdjust="spacing" textLength="19" x="1707" y="1400.9785">DB</text><path d="M1701.5,1414.0547 C1701.5,1404.0547 1719.5,1404.0547 1719.5,1404.0547 C1719.5,1404.0547 1737.5,1404.0547 1737.5,1414.0547 L1737.5,1440.0547 C1737.5,1450.0547 1719.5,1450.0547 1719.5,1450.0547 C1719.5,1450.0547 1701.5,1450.0547 1701.5,1440.0547 L1701.5,1414.0547 " fill="#E2E2F0" style="stroke:#181818;stroke-width:1.5;"/><path d="M1701.5,1414.0547 C1701.5,1424.0547 1719.5,1424.0547 1719.5,1424.0547 C1719.5,1424.0547 1737.5,1424.0547 1737.5,1414.0547 " fill="none" style="stroke:#181818;stroke-width:1.5;"/><polygon fill="#181818" points="271.5,184.7891,281.5,188.7891,271.5,192.7891,275.5,188.7891" style="stroke:#181818;stroke-width:1.0;"/><line style="stroke:#181818;stroke-width:1.0;" x1="42.5" x2="277.5" y1="188.7891" y2="188.7891"/><text fill="#000000" font-family="sans-serif" font-size="13" lengthAdjust="spacing" textLength="132" x="49.5" y="183.9326">Envia dados (id, nome)</text><polygon fill="#181818" points="624.5,215.1406,634.5,219.1406,624.5,223.1406,628.5,219.1406" style="stroke:#181818;stroke-width:1.0;"/><line style="stroke:#181818;stroke-width:1.0;" x1="283.5" x2="630.5" y1="219.1406" y2="219.1406"/><text fill="#000000" font-family="sans-serif" font-size="13" lengthAdjust="spacing" textLength="146" x="290.5" y="214.2842">updateCategoria(req, res)</text><path d="M179.5,234.1406 L240.5,234.1406 L240.5,242.4922 L230.5,252.4922 L179.5,252.4922 L179.5,234.1406 " fill="#EEEEEE" style="stroke:#000000;stroke-width:1.5;"/><rect fill="none" height="95.0547" style="stroke:#000000;stroke-width:1.5;" width="546" x="179.5" y="234.1406"/><text fill="#000000" font-family="sans-serif" font-size="13" font-weight="bold" lengthAdjust="spacing" textLength="16" x="194.5" y="248.6357">alt</text><text fill="#000000" font-family="sans-serif" font-size="11" font-weight="bold" lengthAdjust="spacing" textLength="132" x="255.5" y="247.5596">[valida&#231;&#227;o no controller]</text><path d="M189.5,259.4922 L250.5,259.4922 L250.5,267.8438 L240.5,277.8438 L189.5,277.8438 L189.5,259.4922 " fill="#EEEEEE" style="stroke:#000000;stroke-width:1.5;"/><rect fill="none" height="62.7031" style="stroke:#000000;stroke-width:1.5;" width="526" x="189.5" y="259.4922"/><text fill="#000000" font-family="sans-serif" font-size="13" font-weight="bold" lengthAdjust="spacing" textLength="16" x="204.5" y="273.9873">alt</text><text fill="#000000" font-family="sans-serif" font-size="11" font-weight="bold" lengthAdjust="spacing" textLength="173" x="265.5" y="272.9111">[nome inv&#225;lido (&lt; 3 caracteres)]</text><polygon fill="#181818" points="294.5,296.1953,284.5,300.1953,294.5,304.1953,290.5,300.1953" style="stroke:#181818;stroke-width:1.0;"/><line style="stroke:#181818;stroke-width:1.0;" x1="288.5" x2="635.5" y1="300.1953" y2="300.1953"/><text fill="#000000" font-family="sans-serif" font-size="13" lengthAdjust="spacing" textLength="296" x="300.5" y="295.3389">responde 400 - Nome inv&#225;lido. M&#237;nimo 3 caracteres</text><polygon fill="#181818" points="624.5,310.1953,634.5,314.1953,624.5,318.1953,628.5,314.1953" style="stroke:#181818;stroke-width:1.0;"/><line style="stroke:#181818;stroke-width:1.0;stroke-dasharray:2.0,2.0;" x1="283.5" x2="630.5" y1="314.1953" y2="314.1953"/><polygon fill="#181818" points="995.5,354.5469,1005.5,358.5469,995.5,362.5469,999.5,358.5469" style="stroke:#181818;stroke-width:1.0;"/><line style="stroke:#181818;stroke-width:1.0;" x1="636.5" x2="1001.5" y1="358.5469" y2="358.5469"/><text fill="#000000" font-family="sans-serif" font-size="13" lengthAdjust="spacing" textLength="152" x="643.5" y="353.6904">updateCategoria(id, nome)</text><path d="M179.5,373.5469 L240.5,373.5469 L240.5,381.8984 L230.5,391.8984 L179.5,391.8984 L179.5,373.5469 " fill="#EEEEEE" style="stroke:#000000;stroke-width:1.5;"/><rect fill="none" height="232.4609" style="stroke:#000000;stroke-width:1.5;" width="909.5" x="179.5" y="373.5469"/><text fill="#000000" font-family="sans-serif" font-size="13" font-weight="bold" lengthAdjust="spacing" textLength="16" x="194.5" y="388.042">alt</text><text fill="#000000" font-family="sans-serif" font-size="11" font-weight="bold" lengthAdjust="spacing" textLength="168" x="255.5" y="386.9658">[valida&#231;&#245;es iniciais do service]</text><path d="M189.5,398.8984 L250.5,398.8984 L250.5,407.25 L240.5,417.25 L189.5,417.25 L189.5,398.8984 " fill="#EEEEEE" style="stroke:#000000;stroke-width:1.5;"/><rect fill="none" height="93.0547" style="stroke:#000000;stroke-width:1.5;" width="889.5" x="189.5" y="398.8984"/><text fill="#000000" font-family="sans-serif" font-size="13" font-weight="bold" lengthAdjust="spacing" textLength="16" x="204.5" y="413.3936">alt</text><text fill="#000000" font-family="sans-serif" font-size="11" font-weight="bold" lengthAdjust="spacing" textLength="97" x="265.5" y="412.3174">[ID n&#227;o fornecido]</text><polygon fill="#181818" points="647.5,435.6016,637.5,439.6016,647.5,443.6016,643.5,439.6016" style="stroke:#181818;stroke-width:1.0;"/><line style="stroke:#181818;stroke-width:1.0;" x1="641.5" x2="1006.5" y1="439.6016" y2="439.6016"/><text fill="#000000" font-family="sans-serif" font-size="13" lengthAdjust="spacing" textLength="184" x="653.5" y="434.7451">"lan&#231;a AppError (ID obrigat&#243;rio)"</text><polygon fill="#181818" points="294.5,465.9531,284.5,469.9531,294.5,473.9531,290.5,469.9531" style="stroke:#181818;stroke-width:1.0;"/><line style="stroke:#181818;stroke-width:1.0;" x1="288.5" x2="635.5" y1="469.9531" y2="469.9531"/><text fill="#000000" font-family="sans-serif" font-size="13" lengthAdjust="spacing" textLength="166" x="300.5" y="465.0967">responde 400 - ID obrigat&#243;rio</text><polygon fill="#181818" points="624.5,479.9531,634.5,483.9531,624.5,487.9531,628.5,483.9531" style="stroke:#181818;stroke-width:1.0;"/><line style="stroke:#181818;stroke-width:1.0;stroke-dasharray:2.0,2.0;" x1="283.5" x2="630.5" y1="483.9531" y2="483.9531"/><path d="M189.5,505.9531 L250.5,505.9531 L250.5,514.3047 L240.5,524.3047 L189.5,524.3047 L189.5,505.9531 " fill="#EEEEEE" style="stroke:#000000;stroke-width:1.5;"/><rect fill="none" height="93.0547" style="stroke:#000000;stroke-width:1.5;" width="889.5" x="189.5" y="505.9531"/><text fill="#000000" font-family="sans-serif" font-size="13" font-weight="bold" lengthAdjust="spacing" textLength="16" x="204.5" y="520.4482">alt</text><text fill="#000000" font-family="sans-serif" font-size="11" font-weight="bold" lengthAdjust="spacing" textLength="173" x="265.5" y="519.3721">[nome inv&#225;lido (&lt; 3 caracteres)]</text><polygon fill="#181818" points="647.5,542.6563,637.5,546.6563,647.5,550.6563,643.5,546.6563" style="stroke:#181818;stroke-width:1.0;"/><line style="stroke:#181818;stroke-width:1.0;" x1="641.5" x2="1006.5" y1="546.6563" y2="546.6563"/><text fill="#000000" font-family="sans-serif" font-size="13" lengthAdjust="spacing" textLength="328" x="653.5" y="541.7998">"lan&#231;a AppError (Nome deve ter ao menos 3 caracteres)"</text><polygon fill="#181818" points="294.5,573.0078,284.5,577.0078,294.5,581.0078,290.5,577.0078" style="stroke:#181818;stroke-width:1.0;"/><line style="stroke:#181818;stroke-width:1.0;" x1="288.5" x2="635.5" y1="577.0078" y2="577.0078"/><text fill="#000000" font-family="sans-serif" font-size="13" lengthAdjust="spacing" textLength="310" x="300.5" y="572.1514">responde 400 - Nome deve ter ao menos 3 caracteres</text><polygon fill="#181818" points="624.5,587.0078,634.5,591.0078,624.5,595.0078,628.5,591.0078" style="stroke:#181818;stroke-width:1.0;"/><line style="stroke:#181818;stroke-width:1.0;stroke-dasharray:2.0,2.0;" x1="283.5" x2="630.5" y1="591.0078" y2="591.0078"/><polygon fill="#181818" points="1182.5,631.3594,1192.5,635.3594,1182.5,639.3594,1186.5,635.3594" style="stroke:#181818;stroke-width:1.0;"/><line style="stroke:#181818;stroke-width:1.0;" x1="1007.5" x2="1188.5" y1="635.3594" y2="635.3594"/><text fill="#000000" font-family="sans-serif" font-size="13" lengthAdjust="spacing" textLength="91" x="1014.5" y="630.5029">getCategoria(id)</text><polygon fill="#181818" points="1707.5,661.7109,1717.5,665.7109,1707.5,669.7109,1711.5,665.7109" style="stroke:#181818;stroke-width:1.0;"/><line style="stroke:#181818;stroke-width:1.0;" x1="1194.5" x2="1713.5" y1="665.7109" y2="665.7109"/><text fill="#000000" font-family="sans-serif" font-size="13" lengthAdjust="spacing" textLength="427" x="1201.5" y="660.8545">SELECT id_categoria, nome FROM categorias WHERE id_categoria = $1</text><polygon fill="#181818" points="1205.5,692.0625,1195.5,696.0625,1205.5,700.0625,1201.5,696.0625" style="stroke:#181818;stroke-width:1.0;"/><line style="stroke:#181818;stroke-width:1.0;stroke-dasharray:2.0,2.0;" x1="1199.5" x2="1718.5" y1="696.0625" y2="696.0625"/><text fill="#000000" font-family="sans-serif" font-size="13" lengthAdjust="spacing" textLength="53" x="1211.5" y="691.2061">categoria</text><path d="M189.5,711.0625 L250.5,711.0625 L250.5,719.4141 L240.5,729.4141 L189.5,729.4141 L189.5,711.0625 " fill="#EEEEEE" style="stroke:#000000;stroke-width:1.5;"/><rect fill="none" height="123.4063" style="stroke:#000000;stroke-width:1.5;" width="1087" x="189.5" y="711.0625"/><text fill="#000000" font-family="sans-serif" font-size="13" font-weight="bold" lengthAdjust="spacing" textLength="16" x="204.5" y="725.5576">alt</text><text fill="#000000" font-family="sans-serif" font-size="11" font-weight="bold" lengthAdjust="spacing" textLength="147" x="265.5" y="724.4814">[categoria n&#227;o encontrada]</text><polygon fill="#181818" points="1018.5,747.7656,1008.5,751.7656,1018.5,755.7656,1014.5,751.7656" style="stroke:#181818;stroke-width:1.0;"/><line style="stroke:#181818;stroke-width:1.0;stroke-dasharray:2.0,2.0;" x1="1012.5" x2="1193.5" y1="751.7656" y2="751.7656"/><text fill="#000000" font-family="sans-serif" font-size="13" lengthAdjust="spacing" textLength="20" x="1024.5" y="746.9092">null</text><polygon fill="#181818" points="647.5,778.1172,637.5,782.1172,647.5,786.1172,643.5,782.1172" style="stroke:#181818;stroke-width:1.0;"/><line style="stroke:#181818;stroke-width:1.0;" x1="641.5" x2="1006.5" y1="782.1172" y2="782.1172"/><text fill="#000000" font-family="sans-serif" font-size="13" lengthAdjust="spacing" textLength="256" x="653.5" y="777.2607">"lan&#231;a AppError (Categoria n&#227;o encontrada)"</text><polygon fill="#181818" points="294.5,808.4688,284.5,812.4688,294.5,816.4688,290.5,812.4688" style="stroke:#181818;stroke-width:1.0;"/><line style="stroke:#181818;stroke-width:1.0;" x1="288.5" x2="635.5" y1="812.4688" y2="812.4688"/><text fill="#000000" font-family="sans-serif" font-size="13" lengthAdjust="spacing" textLength="238" x="300.5" y="807.6123">responde 404 - Categoria n&#227;o encontrada</text><polygon fill="#181818" points="624.5,822.4688,634.5,826.4688,624.5,830.4688,628.5,826.4688" style="stroke:#181818;stroke-width:1.0;"/><line style="stroke:#181818;stroke-width:1.0;stroke-dasharray:2.0,2.0;" x1="283.5" x2="630.5" y1="826.4688" y2="826.4688"/><polygon fill="#181818" points="1018.5,859.8203,1008.5,863.8203,1018.5,867.8203,1014.5,863.8203" style="stroke:#181818;stroke-width:1.0;"/><line style="stroke:#181818;stroke-width:1.0;stroke-dasharray:2.0,2.0;" x1="1012.5" x2="1193.5" y1="863.8203" y2="863.8203"/><text fill="#000000" font-family="sans-serif" font-size="13" lengthAdjust="spacing" textLength="121" x="1024.5" y="858.9639">categoria encontrada</text><polygon fill="#181818" points="1182.5,890.1719,1192.5,894.1719,1182.5,898.1719,1186.5,894.1719" style="stroke:#181818;stroke-width:1.0;"/><line style="stroke:#181818;stroke-width:1.0;" x1="1007.5" x2="1188.5" y1="894.1719" y2="894.1719"/><text fill="#000000" font-family="sans-serif" font-size="13" lengthAdjust="spacing" textLength="163" x="1014.5" y="889.3154">getCategoriaByNome(nome)</text><polygon fill="#181818" points="1707.5,920.5234,1717.5,924.5234,1707.5,928.5234,1711.5,924.5234" style="stroke:#181818;stroke-width:1.0;"/><line style="stroke:#181818;stroke-width:1.0;" x1="1194.5" x2="1713.5" y1="924.5234" y2="924.5234"/><text fill="#000000" font-family="sans-serif" font-size="13" lengthAdjust="spacing" textLength="501" x="1201.5" y="919.667">SELECT id_categoria, nome FROM categorias WHERE LOWER(nome) = LOWER($1)</text><polygon fill="#181818" points="1205.5,950.875,1195.5,954.875,1205.5,958.875,1201.5,954.875" style="stroke:#181818;stroke-width:1.0;"/><line style="stroke:#181818;stroke-width:1.0;stroke-dasharray:2.0,2.0;" x1="1199.5" x2="1718.5" y1="954.875" y2="954.875"/><text fill="#000000" font-family="sans-serif" font-size="13" lengthAdjust="spacing" textLength="215" x="1211.5" y="950.0186">categoria com mesmo nome (ou null)</text><path d="M10,969.875 L71,969.875 L71,978.2266 L61,988.2266 L10,988.2266 L10,969.875 " fill="#EEEEEE" style="stroke:#000000;stroke-width:1.5;"/><rect fill="none" height="400.5703" style="stroke:#000000;stroke-width:1.5;" width="1737.5" x="10" y="969.875"/><text fill="#000000" font-family="sans-serif" font-size="13" font-weight="bold" lengthAdjust="spacing" textLength="16" x="25" y="984.3701">alt</text><text fill="#000000" font-family="sans-serif" font-size="11" font-weight="bold" lengthAdjust="spacing" textLength="196" x="86" y="983.2939">[nome j&#225; existe em outra categoria]</text><polygon fill="#181818" points="1018.5,1006.5781,1008.5,1010.5781,1018.5,1014.5781,1014.5,1010.5781" style="stroke:#181818;stroke-width:1.0;"/><line style="stroke:#181818;stroke-width:1.0;stroke-dasharray:2.0,2.0;" x1="1012.5" x2="1193.5" y1="1010.5781" y2="1010.5781"/><text fill="#000000" font-family="sans-serif" font-size="13" lengthAdjust="spacing" textLength="110" x="1024.5" y="1005.7217">categoria existente</text><path d="M189.5,1025.5781 L250.5,1025.5781 L250.5,1033.9297 L240.5,1043.9297 L189.5,1043.9297 L189.5,1025.5781 " fill="#EEEEEE" style="stroke:#000000;stroke-width:1.5;"/><rect fill="none" height="93.0547" style="stroke:#000000;stroke-width:1.5;" width="889.5" x="189.5" y="1025.5781"/><text fill="#000000" font-family="sans-serif" font-size="13" font-weight="bold" lengthAdjust="spacing" textLength="16" x="204.5" y="1040.0732">alt</text><text fill="#000000" font-family="sans-serif" font-size="11" font-weight="bold" lengthAdjust="spacing" textLength="72" x="265.5" y="1038.9971">[ID diferente]</text><polygon fill="#181818" points="647.5,1062.2813,637.5,1066.2813,647.5,1070.2813,643.5,1066.2813" style="stroke:#181818;stroke-width:1.0;"/><line style="stroke:#181818;stroke-width:1.0;" x1="641.5" x2="1006.5" y1="1066.2813" y2="1066.2813"/><text fill="#000000" font-family="sans-serif" font-size="13" lengthAdjust="spacing" textLength="347" x="653.5" y="1061.4248">"lan&#231;a AppError (J&#225; existe outra categoria com esse nome)"</text><polygon fill="#181818" points="294.5,1092.6328,284.5,1096.6328,294.5,1100.6328,290.5,1096.6328" style="stroke:#181818;stroke-width:1.0;"/><line style="stroke:#181818;stroke-width:1.0;" x1="288.5" x2="635.5" y1="1096.6328" y2="1096.6328"/><text fill="#000000" font-family="sans-serif" font-size="13" lengthAdjust="spacing" textLength="329" x="300.5" y="1091.7764">responde 400 - J&#225; existe outra categoria com esse nome</text><polygon fill="#181818" points="624.5,1106.6328,634.5,1110.6328,624.5,1114.6328,628.5,1110.6328" style="stroke:#181818;stroke-width:1.0;"/><line style="stroke:#181818;stroke-width:1.0;stroke-dasharray:2.0,2.0;" x1="283.5" x2="630.5" y1="1110.6328" y2="1110.6328"/><line style="stroke:#000000;stroke-width:1.0;stroke-dasharray:2.0,2.0;" x1="10" x2="1747.5" y1="1126.6328" y2="1126.6328"/><polygon fill="#181818" points="1018.5,1145.9844,1008.5,1149.9844,1018.5,1153.9844,1014.5,1149.9844" style="stroke:#181818;stroke-width:1.0;"/><line style="stroke:#181818;stroke-width:1.0;stroke-dasharray:2.0,2.0;" x1="1012.5" x2="1193.5" y1="1149.9844" y2="1149.9844"/><text fill="#000000" font-family="sans-serif" font-size="13" lengthAdjust="spacing" textLength="142" x="1024.5" y="1145.1279">null ou mesma categoria</text><polygon fill="#181818" points="1182.5,1176.3359,1192.5,1180.3359,1182.5,1184.3359,1186.5,1180.3359" style="stroke:#181818;stroke-width:1.0;"/><line style="stroke:#181818;stroke-width:1.0;" x1="1007.5" x2="1188.5" y1="1180.3359" y2="1180.3359"/><text fill="#000000" font-family="sans-serif" font-size="13" lengthAdjust="spacing" textLength="152" x="1014.5" y="1175.4795">updateCategoria(id, nome)</text><polygon fill="#181818" points="1707.5,1206.6875,1717.5,1210.6875,1707.5,1214.6875,1711.5,1210.6875" style="stroke:#181818;stroke-width:1.0;"/><line style="stroke:#181818;stroke-width:1.0;" x1="1194.5" x2="1713.5" y1="1210.6875" y2="1210.6875"/><text fill="#000000" font-family="sans-serif" font-size="13" lengthAdjust="spacing" textLength="455" x="1201.5" y="1205.8311">UPDATE categorias SET nome = $1 WHERE id_categoria = $2 RETURNING *</text><polygon fill="#181818" points="1205.5,1237.0391,1195.5,1241.0391,1205.5,1245.0391,1201.5,1241.0391" style="stroke:#181818;stroke-width:1.0;"/><line style="stroke:#181818;stroke-width:1.0;stroke-dasharray:2.0,2.0;" x1="1199.5" x2="1718.5" y1="1241.0391" y2="1241.0391"/><text fill="#000000" font-family="sans-serif" font-size="13" lengthAdjust="spacing" textLength="116" x="1211.5" y="1236.1826">categoria atualizada</text><polygon fill="#181818" points="1018.5,1267.3906,1008.5,1271.3906,1018.5,1275.3906,1014.5,1271.3906" style="stroke:#181818;stroke-width:1.0;"/><line style="stroke:#181818;stroke-width:1.0;stroke-dasharray:2.0,2.0;" x1="1012.5" x2="1193.5" y1="1271.3906" y2="1271.3906"/><text fill="#000000" font-family="sans-serif" font-size="13" lengthAdjust="spacing" textLength="116" x="1024.5" y="1266.5342">categoria atualizada</text><polygon fill="#181818" points="647.5,1297.7422,637.5,1301.7422,647.5,1305.7422,643.5,1301.7422" style="stroke:#181818;stroke-width:1.0;"/><line style="stroke:#181818;stroke-width:1.0;" x1="641.5" x2="1006.5" y1="1301.7422" y2="1301.7422"/><text fill="#000000" font-family="sans-serif" font-size="13" lengthAdjust="spacing" textLength="160" x="653.5" y="1296.8857">retorna categoria atualizada</text><polygon fill="#181818" points="294.5,1328.0938,284.5,1332.0938,294.5,1336.0938,290.5,1332.0938" style="stroke:#181818;stroke-width:1.0;"/><line style="stroke:#181818;stroke-width:1.0;" x1="288.5" x2="635.5" y1="1332.0938" y2="1332.0938"/><text fill="#000000" font-family="sans-serif" font-size="13" lengthAdjust="spacing" textLength="206" x="300.5" y="1327.2373">responde 200 (categoria atualizada)</text><polygon fill="#181818" points="53.5,1358.4453,43.5,1362.4453,53.5,1366.4453,49.5,1362.4453" style="stroke:#181818;stroke-width:1.0;"/><line style="stroke:#181818;stroke-width:1.0;" x1="47.5" x2="282.5" y1="1362.4453" y2="1362.4453"/><text fill="#000000" font-family="sans-serif" font-size="13" lengthAdjust="spacing" textLength="217" x="59.5" y="1357.5889">retorna dados da categoria atualizada</text><!--SRC=[hLR9Rjim4BtpAmP63d8HDqjpCje2NfGsHJR8JdCi695nM4YaGb56ahy9UWXGeAUYNw0VwuXoBScHuYNroHA7RsRUUnpH21DmCXHqecb8WN4OyTia_IbzGQ43NrKokJ4mvluD0N8O97Ug2psJq40yK0q3QlX4QGnrpY_6iEF_UuvtkeAr2PSCZCr0g6-KXXuBXIGHrKRu8gBIGCjJXaBDxXRG63oL65w9dwSSA6cq2WAkwzT7N4-5tx3Puv6A1LPqJnWrz8h678PzGcnzqFcO9-w2AwVO7ADCnU08jWrIXRnDx6eMLbDD5v88CVbyoT7yTXiqZzl8Gc1WYkGncZwbFnJ2WL_q0P2jPob0o6dwY74AdFVm3dogaK1kGG1_DNbBLMDOf2HgUR2xYoAULW3VmadwIufGLM0jgkOcqHB_ecwPTeGqv5aa-NdF1LVLdl_m64j1FQY80RkBPohbhHyDGMQqN2ijkO_5LfkTPMialXLGcJvHw4MHgpNQpK50TQN5X9hqjnQgtLgVlGM8vqG1R2BS-hrO6HcVSa0ye0f2Bj6MbHoj3TtnCkmoSzJrKfomBaouAJkZJMgYiit3VXT6xh4x68DWt-RZ87SI77fd9r3C2BZyx7fk9H0-mDOU6VQXqrJ9F3ItPR7JsevBUnWfemIWjiPQxyia2CYhf1qqrM45NLdE0vHpy49BCmchuYrjho2f1BQP-Ftxp6rEFXZ-emcEpovTBuT53-HFMtljrQo04pX4qyUXobCuAh6IpaQNVVSzVGH-9sAS-Zm495xJafVMCKk9JOidJMduCN6Dvor_zIf3VIdgNIZMTijZ_DvPkZOO6AjYrqoD8EPhdonCOjMf4hxil9MLRlusDTIIc_3YVDWRksMpZTnnReTipZJCdttmtF65Ttfq-WdUO8BLB4XdLogsgPag0EiC8nG8FxPqQIqlEsCVdU7KGMGSpszBzdPLfColLQmXTsQOlm00]--></g></svg>