<?xml version="1.0" encoding="us-ascii" standalone="no"?><svg xmlns="http://www.w3.org/2000/svg" xmlns:xlink="http://www.w3.org/1999/xlink" contentStyleType="text/css" height="1071px" preserveAspectRatio="none" style="width:1698px;height:1071px;background:#FFFFFF;" version="1.1" viewBox="0 0 1698 1071" width="1698px" zoomAndPan="magnify"><defs/><g><text fill="#000000" font-family="sans-serif" font-size="14" font-weight="bold" lengthAdjust="spacing" textLength="266" x="717.25" y="29.5332">Diagrama de Sequ&#234;ncia - Vought Tech</text><text fill="#000000" font-family="sans-serif" font-size="14" font-weight="bold" lengthAdjust="spacing" textLength="4" x="848.25" y="47.1426">&#160;</text><text fill="#000000" font-family="sans-serif" font-size="14" font-weight="bold" lengthAdjust="spacing" textLength="286" x="707.25" y="64.752">Fluxo: Criar Categoria (POST /categorias)</text><rect fill="none" height="95.0547" style="stroke:#000000;stroke-width:1.5;" width="538" x="150.5" y="234.1406"/><rect fill="none" height="62.7031" style="stroke:#000000;stroke-width:1.5;" width="518" x="160.5" y="259.4922"/><rect fill="none" height="125.4063" style="stroke:#000000;stroke-width:1.5;" width="882.5" x="150.5" y="373.5469"/><rect fill="none" height="93.0547" style="stroke:#000000;stroke-width:1.5;" width="862.5" x="160.5" y="398.8984"/><rect fill="none" height="368.2188" style="stroke:#000000;stroke-width:1.5;" width="1681.5" x="10" y="604.0078"/><line style="stroke:#181818;stroke-width:0.5;stroke-dasharray:5.0,5.0;" x1="42" x2="42" y1="156.4375" y2="989.2266"/><line style="stroke:#181818;stroke-width:0.5;stroke-dasharray:5.0,5.0;" x1="250.5" x2="250.5" y1="156.4375" y2="989.2266"/><line style="stroke:#181818;stroke-width:0.5;stroke-dasharray:5.0,5.0;" x1="599.5" x2="599.5" y1="156.4375" y2="989.2266"/><line style="stroke:#181818;stroke-width:0.5;stroke-dasharray:5.0,5.0;" x1="951" x2="951" y1="156.4375" y2="989.2266"/><line style="stroke:#181818;stroke-width:0.5;stroke-dasharray:5.0,5.0;" x1="1138.5" x2="1138.5" y1="156.4375" y2="989.2266"/><line style="stroke:#181818;stroke-width:0.5;stroke-dasharray:5.0,5.0;" x1="1663.5" x2="1663.5" y1="156.4375" y2="989.2266"/><text fill="#000000" font-family="sans-serif" font-size="14" lengthAdjust="spacing" textLength="39" x="20" y="153.3613">Admin</text><ellipse cx="42.5" cy="87.3281" fill="#E2E2F0" rx="8" ry="8" style="stroke:#181818;stroke-width:0.5;"/><path d="M42.5,95.3281 L42.5,122.3281 M29.5,103.3281 L55.5,103.3281 M42.5,122.3281 L29.5,137.3281 M42.5,122.3281 L55.5,137.3281 " fill="none" style="stroke:#181818;stroke-width:0.5;"/><text fill="#000000" font-family="sans-serif" font-size="14" lengthAdjust="spacing" textLength="39" x="20" y="1002.7598">Admin</text><ellipse cx="42.5" cy="1014.3359" fill="#E2E2F0" rx="8" ry="8" style="stroke:#181818;stroke-width:0.5;"/><path d="M42.5,1022.3359 L42.5,1049.3359 M29.5,1030.3359 L55.5,1030.3359 M42.5,1049.3359 L29.5,1064.3359 M42.5,1049.3359 L55.5,1064.3359 " fill="none" style="stroke:#181818;stroke-width:0.5;"/><rect fill="#E2E2F0" height="31.6094" rx="2.5" ry="2.5" style="stroke:#181818;stroke-width:0.5;" width="160" x="170.5" y="123.8281"/><text fill="#000000" font-family="sans-serif" font-size="14" lengthAdjust="spacing" textLength="146" x="177.5" y="145.3613">Rota POST /categorias</text><rect fill="#E2E2F0" height="31.6094" rx="2.5" ry="2.5" style="stroke:#181818;stroke-width:0.5;" width="160" x="170.5" y="988.2266"/><text fill="#000000" font-family="sans-serif" font-size="14" lengthAdjust="spacing" textLength="146" x="177.5" y="1009.7598">Rota POST /categorias</text><rect fill="#E2E2F0" height="31.6094" rx="2.5" ry="2.5" style="stroke:#181818;stroke-width:0.5;" width="138" x="530.5" y="123.8281"/><text fill="#000000" font-family="sans-serif" font-size="14" lengthAdjust="spacing" textLength="124" x="537.5" y="145.3613">CategoriaController</text><rect fill="#E2E2F0" height="31.6094" rx="2.5" ry="2.5" style="stroke:#181818;stroke-width:0.5;" width="138" x="530.5" y="988.2266"/><text fill="#000000" font-family="sans-serif" font-size="14" lengthAdjust="spacing" textLength="124" x="537.5" y="1009.7598">CategoriaController</text><rect fill="#E2E2F0" height="31.6094" rx="2.5" ry="2.5" style="stroke:#181818;stroke-width:0.5;" width="123" x="890" y="123.8281"/><text fill="#000000" font-family="sans-serif" font-size="14" lengthAdjust="spacing" textLength="109" x="897" y="145.3613">CategoriaService</text><rect fill="#E2E2F0" height="31.6094" rx="2.5" ry="2.5" style="stroke:#181818;stroke-width:0.5;" width="123" x="890" y="988.2266"/><text fill="#000000" font-family="sans-serif" font-size="14" lengthAdjust="spacing" textLength="109" x="897" y="1009.7598">CategoriaService</text><rect fill="#E2E2F0" height="31.6094" rx="2.5" ry="2.5" style="stroke:#181818;stroke-width:0.5;" width="144" x="1066.5" y="123.8281"/><text fill="#000000" font-family="sans-serif" font-size="14" lengthAdjust="spacing" textLength="130" x="1073.5" y="145.3613">CategoriaRepository</text><rect fill="#E2E2F0" height="31.6094" rx="2.5" ry="2.5" style="stroke:#181818;stroke-width:0.5;" width="144" x="1066.5" y="988.2266"/><text fill="#000000" font-family="sans-serif" font-size="14" lengthAdjust="spacing" textLength="130" x="1073.5" y="1009.7598">CategoriaRepository</text><text fill="#000000" font-family="sans-serif" font-size="14" lengthAdjust="spacing" textLength="19" x="1651" y="153.3613">DB</text><path d="M1645.5,102.8281 C1645.5,92.8281 1663.5,92.8281 1663.5,92.8281 C1663.5,92.8281 1681.5,92.8281 1681.5,102.8281 L1681.5,128.8281 C1681.5,138.8281 1663.5,138.8281 1663.5,138.8281 C1663.5,138.8281 1645.5,138.8281 1645.5,128.8281 L1645.5,102.8281 " fill="#E2E2F0" style="stroke:#181818;stroke-width:1.5;"/><path d="M1645.5,102.8281 C1645.5,112.8281 1663.5,112.8281 1663.5,112.8281 C1663.5,112.8281 1681.5,112.8281 1681.5,102.8281 " fill="none" style="stroke:#181818;stroke-width:1.5;"/><text fill="#000000" font-family="sans-serif" font-size="14" lengthAdjust="spacing" textLength="19" x="1651" y="1002.7598">DB</text><path d="M1645.5,1015.8359 C1645.5,1005.8359 1663.5,1005.8359 1663.5,1005.8359 C1663.5,1005.8359 1681.5,1005.8359 1681.5,1015.8359 L1681.5,1041.8359 C1681.5,1051.8359 1663.5,1051.8359 1663.5,1051.8359 C1663.5,1051.8359 1645.5,1051.8359 1645.5,1041.8359 L1645.5,1015.8359 " fill="#E2E2F0" style="stroke:#181818;stroke-width:1.5;"/><path d="M1645.5,1015.8359 C1645.5,1025.8359 1663.5,1025.8359 1663.5,1025.8359 C1663.5,1025.8359 1681.5,1025.8359 1681.5,1015.8359 " fill="none" style="stroke:#181818;stroke-width:1.5;"/><polygon fill="#181818" points="238.5,184.7891,248.5,188.7891,238.5,192.7891,242.5,188.7891" style="stroke:#181818;stroke-width:1.0;"/><line style="stroke:#181818;stroke-width:1.0;" x1="42.5" x2="244.5" y1="188.7891" y2="188.7891"/><text fill="#000000" font-family="sans-serif" font-size="13" lengthAdjust="spacing" textLength="114" x="49.5" y="183.9326">Envia dados (nome)</text><polygon fill="#181818" points="587.5,215.1406,597.5,219.1406,587.5,223.1406,591.5,219.1406" style="stroke:#181818;stroke-width:1.0;"/><line style="stroke:#181818;stroke-width:1.0;" x1="250.5" x2="593.5" y1="219.1406" y2="219.1406"/><text fill="#000000" font-family="sans-serif" font-size="13" lengthAdjust="spacing" textLength="143" x="257.5" y="214.2842">createCategoria(req, res)</text><path d="M150.5,234.1406 L211.5,234.1406 L211.5,242.4922 L201.5,252.4922 L150.5,252.4922 L150.5,234.1406 " fill="#EEEEEE" style="stroke:#000000;stroke-width:1.5;"/><rect fill="none" height="95.0547" style="stroke:#000000;stroke-width:1.5;" width="538" x="150.5" y="234.1406"/><text fill="#000000" font-family="sans-serif" font-size="13" font-weight="bold" lengthAdjust="spacing" textLength="16" x="165.5" y="248.6357">alt</text><text fill="#000000" font-family="sans-serif" font-size="11" font-weight="bold" lengthAdjust="spacing" textLength="132" x="226.5" y="247.5596">[valida&#231;&#227;o no controller]</text><path d="M160.5,259.4922 L221.5,259.4922 L221.5,267.8438 L211.5,277.8438 L160.5,277.8438 L160.5,259.4922 " fill="#EEEEEE" style="stroke:#000000;stroke-width:1.5;"/><rect fill="none" height="62.7031" style="stroke:#000000;stroke-width:1.5;" width="518" x="160.5" y="259.4922"/><text fill="#000000" font-family="sans-serif" font-size="13" font-weight="bold" lengthAdjust="spacing" textLength="16" x="175.5" y="273.9873">alt</text><text fill="#000000" font-family="sans-serif" font-size="11" font-weight="bold" lengthAdjust="spacing" textLength="173" x="236.5" y="272.9111">[nome inv&#225;lido (&lt; 3 caracteres)]</text><polygon fill="#181818" points="261.5,296.1953,251.5,300.1953,261.5,304.1953,257.5,300.1953" style="stroke:#181818;stroke-width:1.0;"/><line style="stroke:#181818;stroke-width:1.0;" x1="255.5" x2="598.5" y1="300.1953" y2="300.1953"/><text fill="#000000" font-family="sans-serif" font-size="13" lengthAdjust="spacing" textLength="296" x="267.5" y="295.3389">responde 400 - Nome inv&#225;lido. M&#237;nimo 3 caracteres</text><polygon fill="#181818" points="587.5,310.1953,597.5,314.1953,587.5,318.1953,591.5,314.1953" style="stroke:#181818;stroke-width:1.0;"/><line style="stroke:#181818;stroke-width:1.0;stroke-dasharray:2.0,2.0;" x1="250.5" x2="593.5" y1="314.1953" y2="314.1953"/><polygon fill="#181818" points="939.5,354.5469,949.5,358.5469,939.5,362.5469,943.5,358.5469" style="stroke:#181818;stroke-width:1.0;"/><line style="stroke:#181818;stroke-width:1.0;" x1="599.5" x2="945.5" y1="358.5469" y2="358.5469"/><text fill="#000000" font-family="sans-serif" font-size="13" lengthAdjust="spacing" textLength="131" x="606.5" y="353.6904">createCategoria(nome)</text><path d="M150.5,373.5469 L211.5,373.5469 L211.5,381.8984 L201.5,391.8984 L150.5,391.8984 L150.5,373.5469 " fill="#EEEEEE" style="stroke:#000000;stroke-width:1.5;"/><rect fill="none" height="125.4063" style="stroke:#000000;stroke-width:1.5;" width="882.5" x="150.5" y="373.5469"/><text fill="#000000" font-family="sans-serif" font-size="13" font-weight="bold" lengthAdjust="spacing" textLength="16" x="165.5" y="388.042">alt</text><text fill="#000000" font-family="sans-serif" font-size="11" font-weight="bold" lengthAdjust="spacing" textLength="127" x="226.5" y="386.9658">[valida&#231;&#245;es do service]</text><path d="M160.5,398.8984 L221.5,398.8984 L221.5,407.25 L211.5,417.25 L160.5,417.25 L160.5,398.8984 " fill="#EEEEEE" style="stroke:#000000;stroke-width:1.5;"/><rect fill="none" height="93.0547" style="stroke:#000000;stroke-width:1.5;" width="862.5" x="160.5" y="398.8984"/><text fill="#000000" font-family="sans-serif" font-size="13" font-weight="bold" lengthAdjust="spacing" textLength="16" x="175.5" y="413.3936">alt</text><text fill="#000000" font-family="sans-serif" font-size="11" font-weight="bold" lengthAdjust="spacing" textLength="173" x="236.5" y="412.3174">[nome inv&#225;lido (&lt; 3 caracteres)]</text><polygon fill="#181818" points="610.5,435.6016,600.5,439.6016,610.5,443.6016,606.5,439.6016" style="stroke:#181818;stroke-width:1.0;"/><line style="stroke:#181818;stroke-width:1.0;" x1="604.5" x2="950.5" y1="439.6016" y2="439.6016"/><text fill="#000000" font-family="sans-serif" font-size="13" lengthAdjust="spacing" textLength="328" x="616.5" y="434.7451">"lan&#231;a AppError (Nome deve ter ao menos 3 caracteres)"</text><polygon fill="#181818" points="261.5,465.9531,251.5,469.9531,261.5,473.9531,257.5,469.9531" style="stroke:#181818;stroke-width:1.0;"/><line style="stroke:#181818;stroke-width:1.0;" x1="255.5" x2="598.5" y1="469.9531" y2="469.9531"/><text fill="#000000" font-family="sans-serif" font-size="13" lengthAdjust="spacing" textLength="310" x="267.5" y="465.0967">responde 400 - Nome deve ter ao menos 3 caracteres</text><polygon fill="#181818" points="587.5,479.9531,597.5,483.9531,587.5,487.9531,591.5,483.9531" style="stroke:#181818;stroke-width:1.0;"/><line style="stroke:#181818;stroke-width:1.0;stroke-dasharray:2.0,2.0;" x1="250.5" x2="593.5" y1="483.9531" y2="483.9531"/><polygon fill="#181818" points="1126.5,524.3047,1136.5,528.3047,1126.5,532.3047,1130.5,528.3047" style="stroke:#181818;stroke-width:1.0;"/><line style="stroke:#181818;stroke-width:1.0;" x1="951.5" x2="1132.5" y1="528.3047" y2="528.3047"/><text fill="#000000" font-family="sans-serif" font-size="13" lengthAdjust="spacing" textLength="163" x="958.5" y="523.4482">getCategoriaByNome(nome)</text><polygon fill="#181818" points="1651.5,554.6563,1661.5,558.6563,1651.5,562.6563,1655.5,558.6563" style="stroke:#181818;stroke-width:1.0;"/><line style="stroke:#181818;stroke-width:1.0;" x1="1138.5" x2="1657.5" y1="558.6563" y2="558.6563"/><text fill="#000000" font-family="sans-serif" font-size="13" lengthAdjust="spacing" textLength="501" x="1145.5" y="553.7998">SELECT id_categoria, nome FROM categorias WHERE LOWER(nome) = LOWER($1)</text><polygon fill="#181818" points="1149.5,585.0078,1139.5,589.0078,1149.5,593.0078,1145.5,589.0078" style="stroke:#181818;stroke-width:1.0;"/><line style="stroke:#181818;stroke-width:1.0;stroke-dasharray:2.0,2.0;" x1="1143.5" x2="1662.5" y1="589.0078" y2="589.0078"/><text fill="#000000" font-family="sans-serif" font-size="13" lengthAdjust="spacing" textLength="160" x="1155.5" y="584.1514">categoria existente (ou null)</text><path d="M10,604.0078 L71,604.0078 L71,612.3594 L61,622.3594 L10,622.3594 L10,604.0078 " fill="#EEEEEE" style="stroke:#000000;stroke-width:1.5;"/><rect fill="none" height="368.2188" style="stroke:#000000;stroke-width:1.5;" width="1681.5" x="10" y="604.0078"/><text fill="#000000" font-family="sans-serif" font-size="13" font-weight="bold" lengthAdjust="spacing" textLength="16" x="25" y="618.5029">alt</text><text fill="#000000" font-family="sans-serif" font-size="11" font-weight="bold" lengthAdjust="spacing" textLength="108" x="86" y="617.4268">[categoria j&#225; existe]</text><polygon fill="#181818" points="962.5,640.7109,952.5,644.7109,962.5,648.7109,958.5,644.7109" style="stroke:#181818;stroke-width:1.0;"/><line style="stroke:#181818;stroke-width:1.0;stroke-dasharray:2.0,2.0;" x1="956.5" x2="1137.5" y1="644.7109" y2="644.7109"/><text fill="#000000" font-family="sans-serif" font-size="13" lengthAdjust="spacing" textLength="121" x="968.5" y="639.8545">categoria encontrada</text><polygon fill="#181818" points="610.5,671.0625,600.5,675.0625,610.5,679.0625,606.5,675.0625" style="stroke:#181818;stroke-width:1.0;"/><line style="stroke:#181818;stroke-width:1.0;" x1="604.5" x2="950.5" y1="675.0625" y2="675.0625"/><text fill="#000000" font-family="sans-serif" font-size="13" lengthAdjust="spacing" textLength="314" x="616.5" y="670.2061">"lan&#231;a AppError (J&#225; existe categoria com esse nome)"</text><polygon fill="#181818" points="261.5,701.4141,251.5,705.4141,261.5,709.4141,257.5,705.4141" style="stroke:#181818;stroke-width:1.0;"/><line style="stroke:#181818;stroke-width:1.0;" x1="255.5" x2="598.5" y1="705.4141" y2="705.4141"/><text fill="#000000" font-family="sans-serif" font-size="13" lengthAdjust="spacing" textLength="325" x="267.5" y="700.5576">responde 400 - J&#225; existe uma categoria com esse nome</text><polygon fill="#181818" points="587.5,715.4141,597.5,719.4141,587.5,723.4141,591.5,719.4141" style="stroke:#181818;stroke-width:1.0;"/><line style="stroke:#181818;stroke-width:1.0;stroke-dasharray:2.0,2.0;" x1="250.5" x2="593.5" y1="719.4141" y2="719.4141"/><line style="stroke:#000000;stroke-width:1.0;stroke-dasharray:2.0,2.0;" x1="10" x2="1691.5" y1="728.4141" y2="728.4141"/><polygon fill="#181818" points="962.5,747.7656,952.5,751.7656,962.5,755.7656,958.5,751.7656" style="stroke:#181818;stroke-width:1.0;"/><line style="stroke:#181818;stroke-width:1.0;stroke-dasharray:2.0,2.0;" x1="956.5" x2="1137.5" y1="751.7656" y2="751.7656"/><text fill="#000000" font-family="sans-serif" font-size="13" lengthAdjust="spacing" textLength="92" x="968.5" y="746.9092">null (n&#227;o existe)</text><polygon fill="#181818" points="1126.5,778.1172,1136.5,782.1172,1126.5,786.1172,1130.5,782.1172" style="stroke:#181818;stroke-width:1.0;"/><line style="stroke:#181818;stroke-width:1.0;" x1="951.5" x2="1132.5" y1="782.1172" y2="782.1172"/><text fill="#000000" font-family="sans-serif" font-size="13" lengthAdjust="spacing" textLength="131" x="958.5" y="777.2607">createCategoria(nome)</text><polygon fill="#181818" points="1651.5,808.4688,1661.5,812.4688,1651.5,816.4688,1655.5,812.4688" style="stroke:#181818;stroke-width:1.0;"/><line style="stroke:#181818;stroke-width:1.0;" x1="1138.5" x2="1657.5" y1="812.4688" y2="812.4688"/><text fill="#000000" font-family="sans-serif" font-size="13" lengthAdjust="spacing" textLength="356" x="1145.5" y="807.6123">INSERT INTO categorias (nome) VALUES ($1) RETURNING *</text><polygon fill="#181818" points="1149.5,838.8203,1139.5,842.8203,1149.5,846.8203,1145.5,842.8203" style="stroke:#181818;stroke-width:1.0;"/><line style="stroke:#181818;stroke-width:1.0;stroke-dasharray:2.0,2.0;" x1="1143.5" x2="1662.5" y1="842.8203" y2="842.8203"/><text fill="#000000" font-family="sans-serif" font-size="13" lengthAdjust="spacing" textLength="92" x="1155.5" y="837.9639">categoria criada</text><polygon fill="#181818" points="962.5,869.1719,952.5,873.1719,962.5,877.1719,958.5,873.1719" style="stroke:#181818;stroke-width:1.0;"/><line style="stroke:#181818;stroke-width:1.0;stroke-dasharray:2.0,2.0;" x1="956.5" x2="1137.5" y1="873.1719" y2="873.1719"/><text fill="#000000" font-family="sans-serif" font-size="13" lengthAdjust="spacing" textLength="83" x="968.5" y="868.3154">nova categoria</text><polygon fill="#181818" points="610.5,899.5234,600.5,903.5234,610.5,907.5234,606.5,903.5234" style="stroke:#181818;stroke-width:1.0;"/><line style="stroke:#181818;stroke-width:1.0;" x1="604.5" x2="950.5" y1="903.5234" y2="903.5234"/><text fill="#000000" font-family="sans-serif" font-size="13" lengthAdjust="spacing" textLength="136" x="616.5" y="898.667">retorna categoria criada</text><polygon fill="#181818" points="261.5,929.875,251.5,933.875,261.5,937.875,257.5,933.875" style="stroke:#181818;stroke-width:1.0;"/><line style="stroke:#181818;stroke-width:1.0;" x1="255.5" x2="598.5" y1="933.875" y2="933.875"/><text fill="#000000" font-family="sans-serif" font-size="13" lengthAdjust="spacing" textLength="182" x="267.5" y="929.0186">responde 201 (categoria criada)</text><polygon fill="#181818" points="53.5,960.2266,43.5,964.2266,53.5,968.2266,49.5,964.2266" style="stroke:#181818;stroke-width:1.0;"/><line style="stroke:#181818;stroke-width:1.0;" x1="47.5" x2="249.5" y1="964.2266" y2="964.2266"/><text fill="#000000" font-family="sans-serif" font-size="13" lengthAdjust="spacing" textLength="184" x="59.5" y="959.3701">retorna dados da nova categoria</text><!--SRC=[fLNBRjD05DtFLnn5B5pKGWki8a3AmuMYDa5EsYxHnRvA1papwNWSjPzJTL49YILVu1zZ_C29WzCNMIJEp9rpxZtttB6LDcOnb3GpD2T4Z0bVfjbF5Kh27ivqEhkmc79u8I0Eu_HATp4maWm6P7cctIEyh-F95A_3lml9Zc0LmHRGWaAh3NhHN2gn86DbA1UaB3g1jeJDenrGWa2dbXl1DTb0Asjq7BDftv-mMSfmo-605pgHBfrh4P6bxvGmXdqXYkImzx4axi9NIrTMH95Eu2azvnrHxEGXBPbq4Hfso_MMP_Xo5uQT489YYoN5CgBiBhlLK1hXgWOWtyyf8DKokt5n6jvxl4L8nYd71GZSfuLtBMCNjj3ATU_T_hvhswW1-0edsIybvxe1Mw0QjgbHxj4rB6-Q45juDWN-j-PIfsQzlpc1AoYfclACQYkwhSftObBP7Q6tMFZ6EADvHUqHBnaE3wGnP-NwsE3eF5FI-s4VKhIjbfKbkvYnhTVxrpbX9MfBT0uox7SnyO_zmHGo-bRFq6wfy64mFi5gi73-sGzy78_F_Q24nOVgtuk37J7iOszRNZK8-4ecbfMR14-dK6aSLnrVXVp8Rgem0RGctkwc5OSgveCY4l_bWozr8clWePw34pVsXG8TyKGJh66cxhRSWYjg5t2SF4s6N59tvUGNHScJZyD3EZHwrJgLMr8eBNGqclZ1rFrCn-j-gKnorZi-zIV8JOB0dvu6ewFH9xnqa8-pJEY-cgryM0IzNDFs4GAi6y4fhusYUpEulzLlzW_WRHxFDQpV0SNxOaLLlYWYsamyd_u_]--></g></svg>