<?xml version="1.0" encoding="us-ascii" standalone="no"?><svg xmlns="http://www.w3.org/2000/svg" xmlns:xlink="http://www.w3.org/1999/xlink" contentStyleType="text/css" height="1405px" preserveAspectRatio="none" style="width:1712px;height:1405px;background:#FFFFFF;" version="1.1" viewBox="0 0 1712 1405" width="1712px" zoomAndPan="magnify"><defs/><g><text fill="#000000" font-family="sans-serif" font-size="14" font-weight="bold" lengthAdjust="spacing" textLength="266" x="724" y="29.5332">Diagrama de Sequ&#234;ncia - Vought Tech</text><text fill="#000000" font-family="sans-serif" font-size="14" font-weight="bold" lengthAdjust="spacing" textLength="4" x="855" y="47.1426">&#160;</text><text fill="#000000" font-family="sans-serif" font-size="14" font-weight="bold" lengthAdjust="spacing" textLength="353" x="680.5" y="64.752">Fluxo: Cancelar Pedido (PUT /pedidos/:id/cancelar)</text><rect fill="#FFFFFF" height="396.5703" style="stroke:#181818;stroke-width:1.0;" width="10" x="813" y="817.4688"/><rect fill="none" height="123.4063" style="stroke:#000000;stroke-width:1.5;" width="1051" x="112" y="355.5469"/><rect fill="none" height="125.4063" style="stroke:#000000;stroke-width:1.5;" width="788.5" x="102" y="523.3047"/><rect fill="none" height="93.0547" style="stroke:#000000;stroke-width:1.5;" width="768.5" x="112" y="548.6563"/><rect fill="none" height="125.4063" style="stroke:#000000;stroke-width:1.5;" width="788.5" x="102" y="662.7109"/><rect fill="none" height="93.0547" style="stroke:#000000;stroke-width:1.5;" width="768.5" x="112" y="688.0625"/><rect fill="none" height="139.7578" style="stroke:#000000;stroke-width:1.5;" width="949.5" x="755.5" y="953.875"/><line style="stroke:#181818;stroke-width:0.5;stroke-dasharray:5.0,5.0;" x1="30" x2="30" y1="156.4375" y2="1323.0938"/><line style="stroke:#181818;stroke-width:0.5;stroke-dasharray:5.0,5.0;" x1="227" x2="227" y1="156.4375" y2="1323.0938"/><line style="stroke:#181818;stroke-width:0.5;stroke-dasharray:5.0,5.0;" x1="549" x2="549" y1="156.4375" y2="1323.0938"/><line style="stroke:#181818;stroke-width:0.5;stroke-dasharray:5.0,5.0;" x1="817.5" x2="817.5" y1="156.4375" y2="1323.0938"/><line style="stroke:#181818;stroke-width:0.5;stroke-dasharray:5.0,5.0;" x1="1090" x2="1090" y1="156.4375" y2="1323.0938"/><line style="stroke:#181818;stroke-width:0.5;stroke-dasharray:5.0,5.0;" x1="1229" x2="1229" y1="156.4375" y2="1323.0938"/><line style="stroke:#181818;stroke-width:0.5;stroke-dasharray:5.0,5.0;" x1="1677" x2="1677" y1="156.4375" y2="1323.0938"/><text fill="#000000" font-family="sans-serif" font-size="14" lengthAdjust="spacing" textLength="44" x="5" y="153.3613">Cliente</text><ellipse cx="30" cy="87.3281" fill="#E2E2F0" rx="8" ry="8" style="stroke:#181818;stroke-width:0.5;"/><path d="M30,95.3281 L30,122.3281 M17,103.3281 L43,103.3281 M30,122.3281 L17,137.3281 M30,122.3281 L43,137.3281 " fill="none" style="stroke:#181818;stroke-width:0.5;"/><text fill="#000000" font-family="sans-serif" font-size="14" lengthAdjust="spacing" textLength="44" x="5" y="1336.627">Cliente</text><ellipse cx="30" cy="1348.2031" fill="#E2E2F0" rx="8" ry="8" style="stroke:#181818;stroke-width:0.5;"/><path d="M30,1356.2031 L30,1383.2031 M17,1364.2031 L43,1364.2031 M30,1383.2031 L17,1398.2031 M30,1383.2031 L43,1398.2031 " fill="none" style="stroke:#181818;stroke-width:0.5;"/><rect fill="#E2E2F0" height="31.6094" rx="2.5" ry="2.5" style="stroke:#181818;stroke-width:0.5;" width="210" x="122" y="123.8281"/><text fill="#000000" font-family="sans-serif" font-size="14" lengthAdjust="spacing" textLength="196" x="129" y="145.3613">Rota PUT /pedidos/:id/cancelar</text><rect fill="#E2E2F0" height="31.6094" rx="2.5" ry="2.5" style="stroke:#181818;stroke-width:0.5;" width="210" x="122" y="1322.0938"/><text fill="#000000" font-family="sans-serif" font-size="14" lengthAdjust="spacing" textLength="196" x="129" y="1343.627">Rota PUT /pedidos/:id/cancelar</text><rect fill="#E2E2F0" height="31.6094" rx="2.5" ry="2.5" style="stroke:#181818;stroke-width:0.5;" width="120" x="489" y="123.8281"/><text fill="#000000" font-family="sans-serif" font-size="14" lengthAdjust="spacing" textLength="106" x="496" y="145.3613">PedidoController</text><rect fill="#E2E2F0" height="31.6094" rx="2.5" ry="2.5" style="stroke:#181818;stroke-width:0.5;" width="120" x="489" y="1322.0938"/><text fill="#000000" font-family="sans-serif" font-size="14" lengthAdjust="spacing" textLength="106" x="496" y="1343.627">PedidoController</text><rect fill="#E2E2F0" height="31.6094" rx="2.5" ry="2.5" style="stroke:#181818;stroke-width:0.5;" width="105" x="765.5" y="123.8281"/><text fill="#000000" font-family="sans-serif" font-size="14" lengthAdjust="spacing" textLength="91" x="772.5" y="145.3613">PedidoService</text><rect fill="#E2E2F0" height="31.6094" rx="2.5" ry="2.5" style="stroke:#181818;stroke-width:0.5;" width="105" x="765.5" y="1322.0938"/><text fill="#000000" font-family="sans-serif" font-size="14" lengthAdjust="spacing" textLength="91" x="772.5" y="1343.627">PedidoService</text><rect fill="#E2E2F0" height="31.6094" rx="2.5" ry="2.5" style="stroke:#181818;stroke-width:0.5;" width="126" x="1027" y="123.8281"/><text fill="#000000" font-family="sans-serif" font-size="14" lengthAdjust="spacing" textLength="112" x="1034" y="145.3613">PedidoRepository</text><rect fill="#E2E2F0" height="31.6094" rx="2.5" ry="2.5" style="stroke:#181818;stroke-width:0.5;" width="126" x="1027" y="1322.0938"/><text fill="#000000" font-family="sans-serif" font-size="14" lengthAdjust="spacing" textLength="112" x="1034" y="1343.627">PedidoRepository</text><rect fill="#E2E2F0" height="31.6094" rx="2.5" ry="2.5" style="stroke:#181818;stroke-width:0.5;" width="132" x="1163" y="123.8281"/><text fill="#000000" font-family="sans-serif" font-size="14" lengthAdjust="spacing" textLength="118" x="1170" y="145.3613">ProdutoRepository</text><rect fill="#E2E2F0" height="31.6094" rx="2.5" ry="2.5" style="stroke:#181818;stroke-width:0.5;" width="132" x="1163" y="1322.0938"/><text fill="#000000" font-family="sans-serif" font-size="14" lengthAdjust="spacing" textLength="118" x="1170" y="1343.627">ProdutoRepository</text><text fill="#000000" font-family="sans-serif" font-size="14" lengthAdjust="spacing" textLength="19" x="1664.5" y="153.3613">DB</text><path d="M1659,102.8281 C1659,92.8281 1677,92.8281 1677,92.8281 C1677,92.8281 1695,92.8281 1695,102.8281 L1695,128.8281 C1695,138.8281 1677,138.8281 1677,138.8281 C1677,138.8281 1659,138.8281 1659,128.8281 L1659,102.8281 " fill="#E2E2F0" style="stroke:#181818;stroke-width:1.5;"/><path d="M1659,102.8281 C1659,112.8281 1677,112.8281 1677,112.8281 C1677,112.8281 1695,112.8281 1695,102.8281 " fill="none" style="stroke:#181818;stroke-width:1.5;"/><text fill="#000000" font-family="sans-serif" font-size="14" lengthAdjust="spacing" textLength="19" x="1664.5" y="1336.627">DB</text><path d="M1659,1349.7031 C1659,1339.7031 1677,1339.7031 1677,1339.7031 C1677,1339.7031 1695,1339.7031 1695,1349.7031 L1695,1375.7031 C1695,1385.7031 1677,1385.7031 1677,1385.7031 C1677,1385.7031 1659,1385.7031 1659,1375.7031 L1659,1349.7031 " fill="#E2E2F0" style="stroke:#181818;stroke-width:1.5;"/><path d="M1659,1349.7031 C1659,1359.7031 1677,1359.7031 1677,1359.7031 C1677,1359.7031 1695,1359.7031 1695,1349.7031 " fill="none" style="stroke:#181818;stroke-width:1.5;"/><rect fill="#FFFFFF" height="396.5703" style="stroke:#181818;stroke-width:1.0;" width="10" x="813" y="817.4688"/><polygon fill="#181818" points="215,184.7891,225,188.7891,215,192.7891,219,188.7891" style="stroke:#181818;stroke-width:1.0;"/><line style="stroke:#181818;stroke-width:1.0;" x1="30" x2="221" y1="188.7891" y2="188.7891"/><text fill="#000000" font-family="sans-serif" font-size="13" lengthAdjust="spacing" textLength="150" x="37" y="183.9326">Solicita cancelamento (id)</text><polygon fill="#181818" points="537,215.1406,547,219.1406,537,223.1406,541,219.1406" style="stroke:#181818;stroke-width:1.0;"/><line style="stroke:#181818;stroke-width:1.0;" x1="227" x2="543" y1="219.1406" y2="219.1406"/><text fill="#000000" font-family="sans-serif" font-size="13" lengthAdjust="spacing" textLength="181" x="234" y="214.2842">cancelarPedidoCliente(req, res)</text><polygon fill="#181818" points="806,245.4922,816,249.4922,806,253.4922,810,249.4922" style="stroke:#181818;stroke-width:1.0;"/><line style="stroke:#181818;stroke-width:1.0;" x1="549" x2="812" y1="249.4922" y2="249.4922"/><text fill="#000000" font-family="sans-serif" font-size="13" lengthAdjust="spacing" textLength="241" x="556" y="244.6357">cancelarPedidoCliente(pedidoId, clienteId)</text><polygon fill="#181818" points="1078,275.8438,1088,279.8438,1078,283.8438,1082,279.8438" style="stroke:#181818;stroke-width:1.0;"/><line style="stroke:#181818;stroke-width:1.0;" x1="818" x2="1084" y1="279.8438" y2="279.8438"/><text fill="#000000" font-family="sans-serif" font-size="13" lengthAdjust="spacing" textLength="114" x="825" y="274.9873">getPedido(pedidoId)</text><polygon fill="#181818" points="1665,306.1953,1675,310.1953,1665,314.1953,1669,310.1953" style="stroke:#181818;stroke-width:1.0;"/><line style="stroke:#181818;stroke-width:1.0;" x1="1090" x2="1671" y1="310.1953" y2="310.1953"/><text fill="#000000" font-family="sans-serif" font-size="13" lengthAdjust="spacing" textLength="292" x="1097" y="305.3389">SELECT * FROM pedidos WHERE id_pedido = $1</text><polygon fill="#181818" points="1101,336.5469,1091,340.5469,1101,344.5469,1097,340.5469" style="stroke:#181818;stroke-width:1.0;"/><line style="stroke:#181818;stroke-width:1.0;stroke-dasharray:2.0,2.0;" x1="1095" x2="1676" y1="340.5469" y2="340.5469"/><text fill="#000000" font-family="sans-serif" font-size="13" lengthAdjust="spacing" textLength="38" x="1107" y="335.6904">pedido</text><path d="M112,355.5469 L173,355.5469 L173,363.8984 L163,373.8984 L112,373.8984 L112,355.5469 " fill="#EEEEEE" style="stroke:#000000;stroke-width:1.5;"/><rect fill="none" height="123.4063" style="stroke:#000000;stroke-width:1.5;" width="1051" x="112" y="355.5469"/><text fill="#000000" font-family="sans-serif" font-size="13" font-weight="bold" lengthAdjust="spacing" textLength="16" x="127" y="370.042">alt</text><text fill="#000000" font-family="sans-serif" font-size="11" font-weight="bold" lengthAdjust="spacing" textLength="135" x="188" y="368.9658">[pedido n&#227;o encontrado]</text><polygon fill="#181818" points="829,392.25,819,396.25,829,400.25,825,396.25" style="stroke:#181818;stroke-width:1.0;"/><line style="stroke:#181818;stroke-width:1.0;stroke-dasharray:2.0,2.0;" x1="823" x2="1089" y1="396.25" y2="396.25"/><text fill="#000000" font-family="sans-serif" font-size="13" lengthAdjust="spacing" textLength="20" x="835" y="391.3936">null</text><polygon fill="#181818" points="560,422.6016,550,426.6016,560,430.6016,556,426.6016" style="stroke:#181818;stroke-width:1.0;"/><line style="stroke:#181818;stroke-width:1.0;" x1="554" x2="817" y1="426.6016" y2="426.6016"/><text fill="#000000" font-family="sans-serif" font-size="13" lengthAdjust="spacing" textLength="241" x="566" y="421.7451">"lan&#231;a AppError (Pedido n&#227;o encontrado)"</text><polygon fill="#181818" points="238,452.9531,228,456.9531,238,460.9531,234,456.9531" style="stroke:#181818;stroke-width:1.0;"/><line style="stroke:#181818;stroke-width:1.0;" x1="232" x2="548" y1="456.9531" y2="456.9531"/><text fill="#000000" font-family="sans-serif" font-size="13" lengthAdjust="spacing" textLength="223" x="244" y="452.0967">responde 404 - Pedido n&#227;o encontrado</text><polygon fill="#181818" points="537,466.9531,547,470.9531,537,474.9531,541,470.9531" style="stroke:#181818;stroke-width:1.0;"/><line style="stroke:#181818;stroke-width:1.0;stroke-dasharray:2.0,2.0;" x1="227" x2="543" y1="470.9531" y2="470.9531"/><polygon fill="#181818" points="829,504.3047,819,508.3047,829,512.3047,825,508.3047" style="stroke:#181818;stroke-width:1.0;"/><line style="stroke:#181818;stroke-width:1.0;stroke-dasharray:2.0,2.0;" x1="823" x2="1089" y1="508.3047" y2="508.3047"/><text fill="#000000" font-family="sans-serif" font-size="13" lengthAdjust="spacing" textLength="106" x="835" y="503.4482">pedido encontrado</text><path d="M102,523.3047 L163,523.3047 L163,531.6563 L153,541.6563 L102,541.6563 L102,523.3047 " fill="#EEEEEE" style="stroke:#000000;stroke-width:1.5;"/><rect fill="none" height="125.4063" style="stroke:#000000;stroke-width:1.5;" width="788.5" x="102" y="523.3047"/><text fill="#000000" font-family="sans-serif" font-size="13" font-weight="bold" lengthAdjust="spacing" textLength="16" x="117" y="537.7998">alt</text><text fill="#000000" font-family="sans-serif" font-size="11" font-weight="bold" lengthAdjust="spacing" textLength="147" x="178" y="536.7236">[verifica&#231;&#227;o de permiss&#227;o]</text><path d="M112,548.6563 L173,548.6563 L173,557.0078 L163,567.0078 L112,567.0078 L112,548.6563 " fill="#EEEEEE" style="stroke:#000000;stroke-width:1.5;"/><rect fill="none" height="93.0547" style="stroke:#000000;stroke-width:1.5;" width="768.5" x="112" y="548.6563"/><text fill="#000000" font-family="sans-serif" font-size="13" font-weight="bold" lengthAdjust="spacing" textLength="16" x="127" y="563.1514">alt</text><text fill="#000000" font-family="sans-serif" font-size="11" font-weight="bold" lengthAdjust="spacing" textLength="178" x="188" y="562.0752">[pedido n&#227;o pertence ao cliente]</text><polygon fill="#181818" points="560,585.3594,550,589.3594,560,593.3594,556,589.3594" style="stroke:#181818;stroke-width:1.0;"/><line style="stroke:#181818;stroke-width:1.0;" x1="554" x2="817" y1="589.3594" y2="589.3594"/><text fill="#000000" font-family="sans-serif" font-size="13" lengthAdjust="spacing" textLength="199" x="566" y="584.5029">"lan&#231;a AppError (Sem permiss&#227;o)"</text><polygon fill="#181818" points="238,615.7109,228,619.7109,238,623.7109,234,619.7109" style="stroke:#181818;stroke-width:1.0;"/><line style="stroke:#181818;stroke-width:1.0;" x1="232" x2="548" y1="619.7109" y2="619.7109"/><text fill="#000000" font-family="sans-serif" font-size="13" lengthAdjust="spacing" textLength="181" x="244" y="614.8545">responde 403 - Sem permiss&#227;o</text><polygon fill="#181818" points="537,629.7109,547,633.7109,537,637.7109,541,633.7109" style="stroke:#181818;stroke-width:1.0;"/><line style="stroke:#181818;stroke-width:1.0;stroke-dasharray:2.0,2.0;" x1="227" x2="543" y1="633.7109" y2="633.7109"/><path d="M102,662.7109 L163,662.7109 L163,671.0625 L153,681.0625 L102,681.0625 L102,662.7109 " fill="#EEEEEE" style="stroke:#000000;stroke-width:1.5;"/><rect fill="none" height="125.4063" style="stroke:#000000;stroke-width:1.5;" width="788.5" x="102" y="662.7109"/><text fill="#000000" font-family="sans-serif" font-size="13" font-weight="bold" lengthAdjust="spacing" textLength="16" x="117" y="677.2061">alt</text><text fill="#000000" font-family="sans-serif" font-size="11" font-weight="bold" lengthAdjust="spacing" textLength="122" x="178" y="676.1299">[verifica&#231;&#227;o de status]</text><path d="M112,688.0625 L173,688.0625 L173,696.4141 L163,706.4141 L112,706.4141 L112,688.0625 " fill="#EEEEEE" style="stroke:#000000;stroke-width:1.5;"/><rect fill="none" height="93.0547" style="stroke:#000000;stroke-width:1.5;" width="768.5" x="112" y="688.0625"/><text fill="#000000" font-family="sans-serif" font-size="13" font-weight="bold" lengthAdjust="spacing" textLength="16" x="127" y="702.5576">alt</text><text fill="#000000" font-family="sans-serif" font-size="11" font-weight="bold" lengthAdjust="spacing" textLength="202" x="188" y="701.4814">[status &#233; "cancelado" ou "entregue"]</text><polygon fill="#181818" points="560,724.7656,550,728.7656,560,732.7656,556,728.7656" style="stroke:#181818;stroke-width:1.0;"/><line style="stroke:#181818;stroke-width:1.0;" x1="554" x2="817" y1="728.7656" y2="728.7656"/><text fill="#000000" font-family="sans-serif" font-size="13" lengthAdjust="spacing" textLength="245" x="566" y="723.9092">"lan&#231;a AppError (N&#227;o &#233; poss&#237;vel cancelar)"</text><polygon fill="#181818" points="238,755.1172,228,759.1172,238,763.1172,234,759.1172" style="stroke:#181818;stroke-width:1.0;"/><line style="stroke:#181818;stroke-width:1.0;" x1="232" x2="548" y1="759.1172" y2="759.1172"/><text fill="#000000" font-family="sans-serif" font-size="13" lengthAdjust="spacing" textLength="298" x="244" y="754.2607">responde 400 - N&#227;o &#233; poss&#237;vel cancelar este pedido</text><polygon fill="#181818" points="537,769.1172,547,773.1172,537,777.1172,541,773.1172" style="stroke:#181818;stroke-width:1.0;"/><line style="stroke:#181818;stroke-width:1.0;stroke-dasharray:2.0,2.0;" x1="227" x2="543" y1="773.1172" y2="773.1172"/><polygon fill="#181818" points="1665,813.4688,1675,817.4688,1665,821.4688,1669,817.4688" style="stroke:#181818;stroke-width:1.0;"/><line style="stroke:#181818;stroke-width:1.0;" x1="823" x2="1671" y1="817.4688" y2="817.4688"/><text fill="#000000" font-family="sans-serif" font-size="13" lengthAdjust="spacing" textLength="91" x="830" y="812.6123">inicia transa&#231;&#227;o</text><polygon fill="#181818" points="1078,843.8203,1088,847.8203,1078,851.8203,1082,847.8203" style="stroke:#181818;stroke-width:1.0;"/><line style="stroke:#181818;stroke-width:1.0;" x1="823" x2="1084" y1="847.8203" y2="847.8203"/><text fill="#000000" font-family="sans-serif" font-size="13" lengthAdjust="spacing" textLength="165" x="830" y="842.9639">getItensPedido(pedidoId, trx)</text><polygon fill="#181818" points="1665,874.1719,1675,878.1719,1665,882.1719,1669,878.1719" style="stroke:#181818;stroke-width:1.0;"/><line style="stroke:#181818;stroke-width:1.0;" x1="1090" x2="1671" y1="878.1719" y2="878.1719"/><text fill="#000000" font-family="sans-serif" font-size="13" lengthAdjust="spacing" textLength="320" x="1097" y="873.3154">SELECT * FROM itens_pedido WHERE id_pedido = $1</text><polygon fill="#181818" points="1101,904.5234,1091,908.5234,1101,912.5234,1097,908.5234" style="stroke:#181818;stroke-width:1.0;"/><line style="stroke:#181818;stroke-width:1.0;stroke-dasharray:2.0,2.0;" x1="1095" x2="1676" y1="908.5234" y2="908.5234"/><text fill="#000000" font-family="sans-serif" font-size="13" lengthAdjust="spacing" textLength="28" x="1107" y="903.667">itens</text><polygon fill="#181818" points="834,934.875,824,938.875,834,942.875,830,938.875" style="stroke:#181818;stroke-width:1.0;"/><line style="stroke:#181818;stroke-width:1.0;stroke-dasharray:2.0,2.0;" x1="828" x2="1089" y1="938.875" y2="938.875"/><text fill="#000000" font-family="sans-serif" font-size="13" lengthAdjust="spacing" textLength="74" x="840" y="934.0186">lista de itens</text><path d="M755.5,953.875 L828.5,953.875 L828.5,962.2266 L818.5,972.2266 L755.5,972.2266 L755.5,953.875 " fill="#EEEEEE" style="stroke:#000000;stroke-width:1.5;"/><rect fill="none" height="139.7578" style="stroke:#000000;stroke-width:1.5;" width="949.5" x="755.5" y="953.875"/><text fill="#000000" font-family="sans-serif" font-size="13" font-weight="bold" lengthAdjust="spacing" textLength="28" x="770.5" y="968.3701">loop</text><text fill="#000000" font-family="sans-serif" font-size="11" font-weight="bold" lengthAdjust="spacing" textLength="146" x="843.5" y="967.2939">[para cada item do pedido]</text><polygon fill="#181818" points="1217,990.5781,1227,994.5781,1217,998.5781,1221,994.5781" style="stroke:#181818;stroke-width:1.0;"/><line style="stroke:#181818;stroke-width:1.0;" x1="823" x2="1223" y1="994.5781" y2="994.5781"/><text fill="#000000" font-family="sans-serif" font-size="13" lengthAdjust="spacing" textLength="322" x="830" y="989.7217">aumentarEstoque(item.id_produto, item.quantidade, trx)</text><polygon fill="#181818" points="1665,1020.9297,1675,1024.9297,1665,1028.9297,1669,1024.9297" style="stroke:#181818;stroke-width:1.0;"/><line style="stroke:#181818;stroke-width:1.0;" x1="1229" x2="1671" y1="1024.9297" y2="1024.9297"/><text fill="#000000" font-family="sans-serif" font-size="13" lengthAdjust="spacing" textLength="424" x="1236" y="1020.0732">UPDATE produtos SET estoque = estoque + $1 WHERE id_produto = $2</text><polygon fill="#181818" points="1240,1051.2813,1230,1055.2813,1240,1059.2813,1236,1055.2813" style="stroke:#181818;stroke-width:1.0;"/><line style="stroke:#181818;stroke-width:1.0;stroke-dasharray:2.0,2.0;" x1="1234" x2="1676" y1="1055.2813" y2="1055.2813"/><text fill="#000000" font-family="sans-serif" font-size="13" lengthAdjust="spacing" textLength="109" x="1246" y="1050.4248">estoque atualizado</text><polygon fill="#181818" points="834,1081.6328,824,1085.6328,834,1089.6328,830,1085.6328" style="stroke:#181818;stroke-width:1.0;"/><line style="stroke:#181818;stroke-width:1.0;stroke-dasharray:2.0,2.0;" x1="828" x2="1228" y1="1085.6328" y2="1085.6328"/><text fill="#000000" font-family="sans-serif" font-size="13" lengthAdjust="spacing" textLength="49" x="840" y="1080.7764">sucesso</text><polygon fill="#181818" points="1078,1118.9844,1088,1122.9844,1078,1126.9844,1082,1122.9844" style="stroke:#181818;stroke-width:1.0;"/><line style="stroke:#181818;stroke-width:1.0;" x1="823" x2="1084" y1="1122.9844" y2="1122.9844"/><text fill="#000000" font-family="sans-serif" font-size="13" lengthAdjust="spacing" textLength="243" x="830" y="1118.1279">atualizarStatus(pedidoId, "cancelado", trx)</text><polygon fill="#181818" points="1665,1149.3359,1675,1153.3359,1665,1157.3359,1669,1153.3359" style="stroke:#181818;stroke-width:1.0;"/><line style="stroke:#181818;stroke-width:1.0;" x1="1090" x2="1671" y1="1153.3359" y2="1153.3359"/><text fill="#000000" font-family="sans-serif" font-size="13" lengthAdjust="spacing" textLength="391" x="1097" y="1148.4795">UPDATE pedidos SET status = 'cancelado' WHERE id_pedido = $1</text><polygon fill="#181818" points="1101,1179.6875,1091,1183.6875,1101,1187.6875,1097,1183.6875" style="stroke:#181818;stroke-width:1.0;"/><line style="stroke:#181818;stroke-width:1.0;stroke-dasharray:2.0,2.0;" x1="1095" x2="1676" y1="1183.6875" y2="1183.6875"/><text fill="#000000" font-family="sans-serif" font-size="13" lengthAdjust="spacing" textLength="101" x="1107" y="1178.8311">pedido atualizado</text><polygon fill="#181818" points="829,1210.0391,819,1214.0391,829,1218.0391,825,1214.0391" style="stroke:#181818;stroke-width:1.0;"/><line style="stroke:#181818;stroke-width:1.0;stroke-dasharray:2.0,2.0;" x1="823" x2="1089" y1="1214.0391" y2="1214.0391"/><text fill="#000000" font-family="sans-serif" font-size="13" lengthAdjust="spacing" textLength="101" x="835" y="1209.1826">pedido cancelado</text><polygon fill="#181818" points="560,1240.3906,550,1244.3906,560,1248.3906,556,1244.3906" style="stroke:#181818;stroke-width:1.0;"/><line style="stroke:#181818;stroke-width:1.0;" x1="554" x2="817" y1="1244.3906" y2="1244.3906"/><text fill="#000000" font-family="sans-serif" font-size="13" lengthAdjust="spacing" textLength="145" x="566" y="1239.5342">retorna pedido cancelado</text><polygon fill="#181818" points="238,1270.7422,228,1274.7422,238,1278.7422,234,1274.7422" style="stroke:#181818;stroke-width:1.0;"/><line style="stroke:#181818;stroke-width:1.0;" x1="232" x2="548" y1="1274.7422" y2="1274.7422"/><text fill="#000000" font-family="sans-serif" font-size="13" lengthAdjust="spacing" textLength="191" x="244" y="1269.8857">responde 200 (pedido cancelado)</text><polygon fill="#181818" points="41,1301.0938,31,1305.0938,41,1309.0938,37,1305.0938" style="stroke:#181818;stroke-width:1.0;"/><line style="stroke:#181818;stroke-width:1.0;" x1="35" x2="226" y1="1305.0938" y2="1305.0938"/><text fill="#000000" font-family="sans-serif" font-size="13" lengthAdjust="spacing" textLength="173" x="47" y="1300.2373">confirma&#231;&#227;o de cancelamento</text><!--SRC=[dLRRRjim37tNLn36W2PRUbdNfm0Tq2OfLc2N84ctnq6ps5I08ZcI76pxdJqK6x2lo8-DikN4YHCixPjjaOVa8GzbBxr2rfTyQlcCWq0OupnV_j6fv70Cdqq-VV0mmVI10RjH-NVJXHxNAIfkOOX22WEjuTq4JhFYnPrsfJXDeqMReHRWYnYCfzvOw2c9sYFBkFKobHdN7fAHyHpseYJ07OnClkLLHkyPxQrH2ksEmp7QXKntkOqmCqvIGZys3wqHkQ-V2kxvD-uG-jUCnUJX-6sPJnV6Hf4lPH-JdT4vCI95cnKMmNGxqMvbRED9YTgoEE-0HTTcsnvhb5ZHFeYIlblHWRJySak9i0tNDTQwoYvCqPSVLn1L5ckhuDc_ffe7xmUz2Ro4cz6d3n0x1b_U3KO3aE9h-G4kuSLhrh-6uvtnIYCQ2kNZC-ZbBmEeqr0rfpE0PW9D7dIkrCgqKMATz4HnlNpaS9Lb0sjf55l3dO7RoGflimEnvTIXp6XIoiNP1Kbak2zxYpwtEYY0iKCgYJJKC0fs5cZblKpvyZ54eB0PsfbqZjueo3P_TEW90O6RQWJ8wfdyZ75MYrRmSYWpRuYPJVV2EN8245WfcDbPelFSvowMLxx0yZSaSUY5IS3aa51r5gSv9iylyME8ID3K6BVykq2r4jQJoZsZSlT30JgFrSZlfg6HV12Qr3AiOHe6xKfomXAL2qvecmlkG8dVqcouBPrt2F_xeMAN0Q1I-DCKNxWU90GbgULX34eNfep9WBPqMBA2Xwyp46RDPxFsxItU1Pw7pSpjm7appx4LG4v2wgLffq0zcUTq2KZ11KPMe8bL4NCtx5zD1X01714r2NqEwCH4zVIAEAaHLHe7fiu9k-AgcMxbJfFFbVmPrs4pbIPvBa_HERDdgffjgIBOSI6psbZKrFQV6QceY3T1O2AAzXAELYX7pxeYwXGyOOkkeZ8cS8ze3bWO95HZDM-Y7h8MpcajjBOzQ_y5yTAckzpeUsbdw_rN_vbW_m00]--></g></svg>