<?xml version="1.0" encoding="us-ascii" standalone="no"?><svg xmlns="http://www.w3.org/2000/svg" xmlns:xlink="http://www.w3.org/1999/xlink" contentStyleType="text/css" height="739px" preserveAspectRatio="none" style="width:1058px;height:739px;background:#FFFFFF;" version="1.1" viewBox="0 0 1058 739" width="1058px" zoomAndPan="magnify"><defs/><g><text fill="#000000" font-family="sans-serif" font-size="14" font-weight="bold" lengthAdjust="spacing" textLength="201" x="421.785" y="24.5332">Class Diagram - EngSoftware</text><!--class Usuario--><g id="elem_Usuario"><rect codeLine="8" fill="#F1F1F1" height="171.2656" id="Usuario" rx="2.5" ry="2.5" style="stroke:#181818;stroke-width:0.5;" width="158" x="295.07" y="45.6094"/><ellipse cx="345.82" cy="61.6094" fill="#ADD1B2" rx="11" ry="11" style="stroke:#181818;stroke-width:1.0;"/><path d="M348.5856,57.4844 Q348.7419,57.2656 348.9294,57.1563 Q349.1169,57.0469 349.3356,57.0469 Q349.7106,57.0469 349.945,57.3047 Q350.1794,57.5625 350.1794,58.1719 L350.1794,59.625 Q350.1794,60.2344 349.945,60.5 Q349.7106,60.7656 349.3356,60.7656 Q348.9919,60.7656 348.7888,60.5625 Q348.5856,60.375 348.4763,59.8594 Q348.4294,59.5 348.2419,59.3125 Q347.9138,58.9375 347.3044,58.7188 Q346.695,58.5 346.07,58.5 Q345.3044,58.5 344.6716,58.8281 Q344.0388,59.1563 343.5466,59.9063 Q343.0544,60.6563 343.0544,61.6875 L343.0544,62.7813 Q343.0544,64.0156 343.945,64.8359 Q344.8356,65.6563 346.4294,65.6563 Q347.3669,65.6563 348.0231,65.4063 Q348.4138,65.25 348.8356,64.8125 Q349.1013,64.5469 349.2497,64.4688 Q349.3981,64.3906 349.6013,64.3906 Q349.9294,64.3906 350.1872,64.6484 Q350.445,64.9063 350.445,65.25 Q350.445,65.5938 350.1013,66 Q349.6013,66.5781 348.8044,66.9063 Q347.7263,67.3594 346.4294,67.3594 Q344.9138,67.3594 343.7106,66.7344 Q342.7263,66.2344 342.0388,65.1641 Q341.3513,64.0938 341.3513,62.8125 L341.3513,61.6563 Q341.3513,60.3281 341.9684,59.1797 Q342.5856,58.0313 343.6794,57.4141 Q344.7731,56.7969 346.0075,56.7969 Q346.7419,56.7969 347.3903,56.9609 Q348.0388,57.125 348.5856,57.4844 Z " fill="#000000"/><text fill="#000000" font-family="sans-serif" font-size="14" lengthAdjust="spacing" textLength="48" x="366.32" y="67.3379">Usuario</text><line style="stroke:#181818;stroke-width:0.5;" x1="296.07" x2="452.07" y1="77.6094" y2="77.6094"/><text fill="#000000" font-family="sans-serif" font-size="14" lengthAdjust="spacing" textLength="126" x="301.07" y="96.1426">+id_usuario: integer</text><text fill="#000000" font-family="sans-serif" font-size="14" lengthAdjust="spacing" textLength="146" x="301.07" y="113.752">+criado_em: timestamp</text><line style="stroke:#181818;stroke-width:0.5;" x1="296.07" x2="452.07" y1="120.8281" y2="120.8281"/><text fill="#000000" font-family="sans-serif" font-size="14" lengthAdjust="spacing" textLength="133" x="301.07" y="139.3613">+nome: varchar(100)</text><text fill="#000000" font-family="sans-serif" font-size="14" lengthAdjust="spacing" textLength="131" x="301.07" y="156.9707">+email: varchar(100)</text><text fill="#000000" font-family="sans-serif" font-size="14" lengthAdjust="spacing" textLength="109" x="301.07" y="174.5801">+cpf: varchar(11)</text><text fill="#000000" font-family="sans-serif" font-size="14" lengthAdjust="spacing" textLength="137" x="301.07" y="192.1895">+senha: varchar(255)</text><text fill="#000000" font-family="sans-serif" font-size="14" lengthAdjust="spacing" textLength="113" x="301.07" y="209.7988">+tipo: varchar(10)</text></g><!--class Categoria--><g id="elem_Categoria"><rect codeLine="18" fill="#F1F1F1" height="83.2188" id="Categoria" rx="2.5" ry="2.5" style="stroke:#181818;stroke-width:0.5;" width="150" x="679.07" y="89.6094"/><ellipse cx="719.27" cy="105.6094" fill="#ADD1B2" rx="11" ry="11" style="stroke:#181818;stroke-width:1.0;"/><path d="M722.0356,101.4844 Q722.1919,101.2656 722.3794,101.1563 Q722.5669,101.0469 722.7856,101.0469 Q723.1606,101.0469 723.395,101.3047 Q723.6294,101.5625 723.6294,102.1719 L723.6294,103.625 Q723.6294,104.2344 723.395,104.5 Q723.1606,104.7656 722.7856,104.7656 Q722.4419,104.7656 722.2388,104.5625 Q722.0356,104.375 721.9263,103.8594 Q721.8794,103.5 721.6919,103.3125 Q721.3638,102.9375 720.7544,102.7188 Q720.145,102.5 719.52,102.5 Q718.7544,102.5 718.1216,102.8281 Q717.4888,103.1563 716.9966,103.9063 Q716.5044,104.6563 716.5044,105.6875 L716.5044,106.7813 Q716.5044,108.0156 717.395,108.8359 Q718.2856,109.6563 719.8794,109.6563 Q720.8169,109.6563 721.4731,109.4063 Q721.8638,109.25 722.2856,108.8125 Q722.5513,108.5469 722.6997,108.4688 Q722.8481,108.3906 723.0513,108.3906 Q723.3794,108.3906 723.6372,108.6484 Q723.895,108.9063 723.895,109.25 Q723.895,109.5938 723.5513,110 Q723.0513,110.5781 722.2544,110.9063 Q721.1763,111.3594 719.8794,111.3594 Q718.3638,111.3594 717.1606,110.7344 Q716.1763,110.2344 715.4888,109.1641 Q714.8013,108.0938 714.8013,106.8125 L714.8013,105.6563 Q714.8013,104.3281 715.4184,103.1797 Q716.0356,102.0313 717.1294,101.4141 Q718.2231,100.7969 719.4575,100.7969 Q720.1919,100.7969 720.8403,100.9609 Q721.4888,101.125 722.0356,101.4844 Z " fill="#000000"/><text fill="#000000" font-family="sans-serif" font-size="14" lengthAdjust="spacing" textLength="62" x="738.87" y="111.3379">Categoria</text><line style="stroke:#181818;stroke-width:0.5;" x1="680.07" x2="828.07" y1="121.6094" y2="121.6094"/><text fill="#000000" font-family="sans-serif" font-size="14" lengthAdjust="spacing" textLength="138" x="685.07" y="140.1426">+id_categoria: integer</text><line style="stroke:#181818;stroke-width:0.5;" x1="680.07" x2="828.07" y1="147.2188" y2="147.2188"/><text fill="#000000" font-family="sans-serif" font-size="14" lengthAdjust="spacing" textLength="125" x="685.07" y="165.752">+nome: varchar(50)</text></g><!--class Endereco--><g id="elem_Endereco"><rect codeLine="23" fill="#F1F1F1" height="188.875" id="Endereco" rx="2.5" ry="2.5" style="stroke:#181818;stroke-width:0.5;" width="151" x="91.57" y="543.6094"/><ellipse cx="132.67" cy="559.6094" fill="#ADD1B2" rx="11" ry="11" style="stroke:#181818;stroke-width:1.0;"/><path d="M135.4356,555.4844 Q135.5919,555.2656 135.7794,555.1563 Q135.9669,555.0469 136.1856,555.0469 Q136.5606,555.0469 136.795,555.3047 Q137.0294,555.5625 137.0294,556.1719 L137.0294,557.625 Q137.0294,558.2344 136.795,558.5 Q136.5606,558.7656 136.1856,558.7656 Q135.8419,558.7656 135.6388,558.5625 Q135.4356,558.375 135.3263,557.8594 Q135.2794,557.5 135.0919,557.3125 Q134.7638,556.9375 134.1544,556.7188 Q133.545,556.5 132.92,556.5 Q132.1544,556.5 131.5216,556.8281 Q130.8888,557.1563 130.3966,557.9063 Q129.9044,558.6563 129.9044,559.6875 L129.9044,560.7813 Q129.9044,562.0156 130.795,562.8359 Q131.6856,563.6563 133.2794,563.6563 Q134.2169,563.6563 134.8731,563.4063 Q135.2638,563.25 135.6856,562.8125 Q135.9513,562.5469 136.0997,562.4688 Q136.2481,562.3906 136.4513,562.3906 Q136.7794,562.3906 137.0372,562.6484 Q137.295,562.9063 137.295,563.25 Q137.295,563.5938 136.9513,564 Q136.4513,564.5781 135.6544,564.9063 Q134.5763,565.3594 133.2794,565.3594 Q131.7638,565.3594 130.5606,564.7344 Q129.5763,564.2344 128.8888,563.1641 Q128.2013,562.0938 128.2013,560.8125 L128.2013,559.6563 Q128.2013,558.3281 128.8184,557.1797 Q129.4356,556.0313 130.5294,555.4141 Q131.6231,554.7969 132.8575,554.7969 Q133.5919,554.7969 134.2403,554.9609 Q134.8888,555.125 135.4356,555.4844 Z " fill="#000000"/><text fill="#000000" font-family="sans-serif" font-size="14" lengthAdjust="spacing" textLength="61" x="152.47" y="565.3379">Endereco</text><line style="stroke:#181818;stroke-width:0.5;" x1="92.57" x2="241.57" y1="575.6094" y2="575.6094"/><text fill="#000000" font-family="sans-serif" font-size="14" lengthAdjust="spacing" textLength="139" x="97.57" y="594.1426">+id_endereco: integer</text><text fill="#000000" font-family="sans-serif" font-size="14" lengthAdjust="spacing" textLength="126" x="97.57" y="611.752">+id_usuario: integer</text><line style="stroke:#181818;stroke-width:0.5;" x1="92.57" x2="241.57" y1="618.8281" y2="618.8281"/><text fill="#000000" font-family="sans-serif" font-size="14" lengthAdjust="spacing" textLength="119" x="97.57" y="637.3613">+rua: varchar(120)</text><text fill="#000000" font-family="sans-serif" font-size="14" lengthAdjust="spacing" textLength="138" x="97.57" y="654.9707">+numero: varchar(20)</text><text fill="#000000" font-family="sans-serif" font-size="14" lengthAdjust="spacing" textLength="127" x="97.57" y="672.5801">+bairro: varchar(80)</text><text fill="#000000" font-family="sans-serif" font-size="14" lengthAdjust="spacing" textLength="132" x="97.57" y="690.1895">+cidade: varchar(80)</text><text fill="#000000" font-family="sans-serif" font-size="14" lengthAdjust="spacing" textLength="125" x="97.57" y="707.7988">+estado: varchar(2)</text><text fill="#000000" font-family="sans-serif" font-size="14" lengthAdjust="spacing" textLength="105" x="97.57" y="725.4082">+cep: varchar(9)</text></g><!--class Produto--><g id="elem_Produto"><rect codeLine="34" fill="#F1F1F1" height="171.2656" id="Produto" rx="2.5" ry="2.5" style="stroke:#181818;stroke-width:0.5;" width="159" x="674.57" y="294.6094"/><ellipse cx="724.82" cy="310.6094" fill="#ADD1B2" rx="11" ry="11" style="stroke:#181818;stroke-width:1.0;"/><path d="M727.5856,306.4844 Q727.7419,306.2656 727.9294,306.1563 Q728.1169,306.0469 728.3356,306.0469 Q728.7106,306.0469 728.945,306.3047 Q729.1794,306.5625 729.1794,307.1719 L729.1794,308.625 Q729.1794,309.2344 728.945,309.5 Q728.7106,309.7656 728.3356,309.7656 Q727.9919,309.7656 727.7888,309.5625 Q727.5856,309.375 727.4763,308.8594 Q727.4294,308.5 727.2419,308.3125 Q726.9138,307.9375 726.3044,307.7188 Q725.695,307.5 725.07,307.5 Q724.3044,307.5 723.6716,307.8281 Q723.0388,308.1563 722.5466,308.9063 Q722.0544,309.6563 722.0544,310.6875 L722.0544,311.7813 Q722.0544,313.0156 722.945,313.8359 Q723.8356,314.6563 725.4294,314.6563 Q726.3669,314.6563 727.0231,314.4063 Q727.4138,314.25 727.8356,313.8125 Q728.1013,313.5469 728.2497,313.4688 Q728.3981,313.3906 728.6013,313.3906 Q728.9294,313.3906 729.1872,313.6484 Q729.445,313.9063 729.445,314.25 Q729.445,314.5938 729.1013,315 Q728.6013,315.5781 727.8044,315.9063 Q726.7263,316.3594 725.4294,316.3594 Q723.9138,316.3594 722.7106,315.7344 Q721.7263,315.2344 721.0388,314.1641 Q720.3513,313.0938 720.3513,311.8125 L720.3513,310.6563 Q720.3513,309.3281 720.9684,308.1797 Q721.5856,307.0313 722.6794,306.4141 Q723.7731,305.7969 725.0075,305.7969 Q725.7419,305.7969 726.3903,305.9609 Q727.0388,306.125 727.5856,306.4844 Z " fill="#000000"/><text fill="#000000" font-family="sans-serif" font-size="14" lengthAdjust="spacing" textLength="50" x="745.32" y="316.3379">Produto</text><line style="stroke:#181818;stroke-width:0.5;" x1="675.57" x2="832.57" y1="326.6094" y2="326.6094"/><text fill="#000000" font-family="sans-serif" font-size="14" lengthAdjust="spacing" textLength="128" x="680.57" y="345.1426">+id_produto: integer</text><text fill="#000000" font-family="sans-serif" font-size="14" lengthAdjust="spacing" textLength="138" x="680.57" y="362.752">+id_categoria: integer</text><text fill="#000000" font-family="sans-serif" font-size="14" lengthAdjust="spacing" textLength="99" x="680.57" y="380.3613">+descricao: text</text><text fill="#000000" font-family="sans-serif" font-size="14" lengthAdjust="spacing" textLength="82" x="680.57" y="397.9707">+estoque: int</text><line style="stroke:#181818;stroke-width:0.5;" x1="675.57" x2="832.57" y1="405.0469" y2="405.0469"/><text fill="#000000" font-family="sans-serif" font-size="14" lengthAdjust="spacing" textLength="133" x="680.57" y="423.5801">+nome: varchar(100)</text><text fill="#000000" font-family="sans-serif" font-size="14" lengthAdjust="spacing" textLength="138" x="680.57" y="441.1895">+preco: decimal(10,2)</text><text fill="#000000" font-family="sans-serif" font-size="14" lengthAdjust="spacing" textLength="147" x="680.57" y="458.7988">+imagem: varchar(255)</text></g><!--class Carrinho--><g id="elem_Carrinho"><rect codeLine="44" fill="#F1F1F1" height="118.4375" id="Carrinho" rx="2.5" ry="2.5" style="stroke:#181818;stroke-width:0.5;" width="143" x="642.57" y="579.1094"/><ellipse cx="682.77" cy="595.1094" fill="#ADD1B2" rx="11" ry="11" style="stroke:#181818;stroke-width:1.0;"/><path d="M685.5356,590.9844 Q685.6919,590.7656 685.8794,590.6563 Q686.0669,590.5469 686.2856,590.5469 Q686.6606,590.5469 686.895,590.8047 Q687.1294,591.0625 687.1294,591.6719 L687.1294,593.125 Q687.1294,593.7344 686.895,594 Q686.6606,594.2656 686.2856,594.2656 Q685.9419,594.2656 685.7388,594.0625 Q685.5356,593.875 685.4263,593.3594 Q685.3794,593 685.1919,592.8125 Q684.8638,592.4375 684.2544,592.2188 Q683.645,592 683.02,592 Q682.2544,592 681.6216,592.3281 Q680.9888,592.6563 680.4966,593.4063 Q680.0044,594.1563 680.0044,595.1875 L680.0044,596.2813 Q680.0044,597.5156 680.895,598.3359 Q681.7856,599.1563 683.3794,599.1563 Q684.3169,599.1563 684.9731,598.9063 Q685.3638,598.75 685.7856,598.3125 Q686.0513,598.0469 686.1997,597.9688 Q686.3481,597.8906 686.5513,597.8906 Q686.8794,597.8906 687.1372,598.1484 Q687.395,598.4063 687.395,598.75 Q687.395,599.0938 687.0513,599.5 Q686.5513,600.0781 685.7544,600.4063 Q684.6763,600.8594 683.3794,600.8594 Q681.8638,600.8594 680.6606,600.2344 Q679.6763,599.7344 678.9888,598.6641 Q678.3013,597.5938 678.3013,596.3125 L678.3013,595.1563 Q678.3013,593.8281 678.9184,592.6797 Q679.5356,591.5313 680.6294,590.9141 Q681.7231,590.2969 682.9575,590.2969 Q683.6919,590.2969 684.3403,590.4609 Q684.9888,590.625 685.5356,590.9844 Z " fill="#000000"/><text fill="#000000" font-family="sans-serif" font-size="14" lengthAdjust="spacing" textLength="55" x="702.37" y="600.8379">Carrinho</text><line style="stroke:#181818;stroke-width:0.5;" x1="643.57" x2="784.57" y1="611.1094" y2="611.1094"/><text fill="#000000" font-family="sans-serif" font-size="14" lengthAdjust="spacing" textLength="131" x="648.57" y="629.6426">+id_carrinho: integer</text><text fill="#000000" font-family="sans-serif" font-size="14" lengthAdjust="spacing" textLength="120" x="648.57" y="647.252">+id_cliente: integer</text><text fill="#000000" font-family="sans-serif" font-size="14" lengthAdjust="spacing" textLength="128" x="648.57" y="664.8613">+id_produto: integer</text><text fill="#000000" font-family="sans-serif" font-size="14" lengthAdjust="spacing" textLength="102" x="648.57" y="682.4707">+quantidade: int</text><line style="stroke:#181818;stroke-width:0.5;" x1="643.57" x2="784.57" y1="689.5469" y2="689.5469"/></g><!--class Pedido--><g id="elem_Pedido"><rect codeLine="51" fill="#F1F1F1" height="153.6563" id="Pedido" rx="2.5" ry="2.5" style="stroke:#181818;stroke-width:0.5;" width="180" x="104.07" y="303.1094"/><ellipse cx="167.82" cy="319.1094" fill="#ADD1B2" rx="11" ry="11" style="stroke:#181818;stroke-width:1.0;"/><path d="M170.5856,314.9844 Q170.7419,314.7656 170.9294,314.6563 Q171.1169,314.5469 171.3356,314.5469 Q171.7106,314.5469 171.945,314.8047 Q172.1794,315.0625 172.1794,315.6719 L172.1794,317.125 Q172.1794,317.7344 171.945,318 Q171.7106,318.2656 171.3356,318.2656 Q170.9919,318.2656 170.7888,318.0625 Q170.5856,317.875 170.4763,317.3594 Q170.4294,317 170.2419,316.8125 Q169.9138,316.4375 169.3044,316.2188 Q168.695,316 168.07,316 Q167.3044,316 166.6716,316.3281 Q166.0388,316.6563 165.5466,317.4063 Q165.0544,318.1563 165.0544,319.1875 L165.0544,320.2813 Q165.0544,321.5156 165.945,322.3359 Q166.8356,323.1563 168.4294,323.1563 Q169.3669,323.1563 170.0231,322.9063 Q170.4138,322.75 170.8356,322.3125 Q171.1013,322.0469 171.2497,321.9688 Q171.3981,321.8906 171.6013,321.8906 Q171.9294,321.8906 172.1872,322.1484 Q172.445,322.4063 172.445,322.75 Q172.445,323.0938 172.1013,323.5 Q171.6013,324.0781 170.8044,324.4063 Q169.7263,324.8594 168.4294,324.8594 Q166.9138,324.8594 165.7106,324.2344 Q164.7263,323.7344 164.0388,322.6641 Q163.3513,321.5938 163.3513,320.3125 L163.3513,319.1563 Q163.3513,317.8281 163.9684,316.6797 Q164.5856,315.5313 165.6794,314.9141 Q166.7731,314.2969 168.0075,314.2969 Q168.7419,314.2969 169.3903,314.4609 Q170.0388,314.625 170.5856,314.9844 Z " fill="#000000"/><text fill="#000000" font-family="sans-serif" font-size="14" lengthAdjust="spacing" textLength="44" x="188.32" y="324.8379">Pedido</text><line style="stroke:#181818;stroke-width:0.5;" x1="105.07" x2="283.07" y1="335.1094" y2="335.1094"/><text fill="#000000" font-family="sans-serif" font-size="14" lengthAdjust="spacing" textLength="122" x="110.07" y="353.6426">+id_pedido: integer</text><text fill="#000000" font-family="sans-serif" font-size="14" lengthAdjust="spacing" textLength="120" x="110.07" y="371.252">+id_cliente: integer</text><text fill="#000000" font-family="sans-serif" font-size="14" lengthAdjust="spacing" textLength="159" x="110.07" y="388.8613">+data_pedido: timestamp</text><text fill="#000000" font-family="sans-serif" font-size="14" lengthAdjust="spacing" textLength="139" x="110.07" y="406.4707">+endereco_id: integer</text><line style="stroke:#181818;stroke-width:0.5;" x1="105.07" x2="283.07" y1="413.5469" y2="413.5469"/><text fill="#000000" font-family="sans-serif" font-size="14" lengthAdjust="spacing" textLength="128" x="110.07" y="432.0801">+status: varchar(20)</text><text fill="#000000" font-family="sans-serif" font-size="14" lengthAdjust="spacing" textLength="168" x="110.07" y="449.6895">+valor_total: decimal(10,2)</text></g><!--class ItemPedido--><g id="elem_ItemPedido"><rect codeLine="60" fill="#F1F1F1" height="136.0469" id="ItemPedido" rx="2.5" ry="2.5" style="stroke:#181818;stroke-width:0.5;" width="205" x="342.57" y="570.1094"/><ellipse cx="405.82" cy="586.1094" fill="#ADD1B2" rx="11" ry="11" style="stroke:#181818;stroke-width:1.0;"/><path d="M408.5856,581.9844 Q408.7419,581.7656 408.9294,581.6563 Q409.1169,581.5469 409.3356,581.5469 Q409.7106,581.5469 409.945,581.8047 Q410.1794,582.0625 410.1794,582.6719 L410.1794,584.125 Q410.1794,584.7344 409.945,585 Q409.7106,585.2656 409.3356,585.2656 Q408.9919,585.2656 408.7888,585.0625 Q408.5856,584.875 408.4763,584.3594 Q408.4294,584 408.2419,583.8125 Q407.9138,583.4375 407.3044,583.2188 Q406.695,583 406.07,583 Q405.3044,583 404.6716,583.3281 Q404.0388,583.6563 403.5466,584.4063 Q403.0544,585.1563 403.0544,586.1875 L403.0544,587.2813 Q403.0544,588.5156 403.945,589.3359 Q404.8356,590.1563 406.4294,590.1563 Q407.3669,590.1563 408.0231,589.9063 Q408.4138,589.75 408.8356,589.3125 Q409.1013,589.0469 409.2497,588.9688 Q409.3981,588.8906 409.6013,588.8906 Q409.9294,588.8906 410.1872,589.1484 Q410.445,589.4063 410.445,589.75 Q410.445,590.0938 410.1013,590.5 Q409.6013,591.0781 408.8044,591.4063 Q407.7263,591.8594 406.4294,591.8594 Q404.9138,591.8594 403.7106,591.2344 Q402.7263,590.7344 402.0388,589.6641 Q401.3513,588.5938 401.3513,587.3125 L401.3513,586.1563 Q401.3513,584.8281 401.9684,583.6797 Q402.5856,582.5313 403.6794,581.9141 Q404.7731,581.2969 406.0075,581.2969 Q406.7419,581.2969 407.3903,581.4609 Q408.0388,581.625 408.5856,581.9844 Z " fill="#000000"/><text fill="#000000" font-family="sans-serif" font-size="14" lengthAdjust="spacing" textLength="70" x="426.32" y="591.8379">ItemPedido</text><line style="stroke:#181818;stroke-width:0.5;" x1="343.57" x2="546.57" y1="602.1094" y2="602.1094"/><text fill="#000000" font-family="sans-serif" font-size="14" lengthAdjust="spacing" textLength="105" x="348.57" y="620.6426">+id_item: integer</text><text fill="#000000" font-family="sans-serif" font-size="14" lengthAdjust="spacing" textLength="122" x="348.57" y="638.252">+id_pedido: integer</text><text fill="#000000" font-family="sans-serif" font-size="14" lengthAdjust="spacing" textLength="128" x="348.57" y="655.8613">+id_produto: integer</text><text fill="#000000" font-family="sans-serif" font-size="14" lengthAdjust="spacing" textLength="102" x="348.57" y="673.4707">+quantidade: int</text><line style="stroke:#181818;stroke-width:0.5;" x1="343.57" x2="546.57" y1="680.5469" y2="680.5469"/><text fill="#000000" font-family="sans-serif" font-size="14" lengthAdjust="spacing" textLength="193" x="348.57" y="699.0801">+preco_unitario: decimal(10,2)</text></g><!--class AuthFailure--><g id="elem_AuthFailure"><rect codeLine="68" fill="#F1F1F1" height="100.8281" id="AuthFailure" rx="2.5" ry="2.5" style="stroke:#181818;stroke-width:0.5;" width="187" x="864.57" y="80.6094"/><ellipse cx="917.32" cy="96.6094" fill="#ADD1B2" rx="11" ry="11" style="stroke:#181818;stroke-width:1.0;"/><path d="M920.0856,92.4844 Q920.2419,92.2656 920.4294,92.1563 Q920.6169,92.0469 920.8356,92.0469 Q921.2106,92.0469 921.445,92.3047 Q921.6794,92.5625 921.6794,93.1719 L921.6794,94.625 Q921.6794,95.2344 921.445,95.5 Q921.2106,95.7656 920.8356,95.7656 Q920.4919,95.7656 920.2888,95.5625 Q920.0856,95.375 919.9763,94.8594 Q919.9294,94.5 919.7419,94.3125 Q919.4138,93.9375 918.8044,93.7188 Q918.195,93.5 917.57,93.5 Q916.8044,93.5 916.1716,93.8281 Q915.5388,94.1563 915.0466,94.9063 Q914.5544,95.6563 914.5544,96.6875 L914.5544,97.7813 Q914.5544,99.0156 915.445,99.8359 Q916.3356,100.6563 917.9294,100.6563 Q918.8669,100.6563 919.5231,100.4063 Q919.9138,100.25 920.3356,99.8125 Q920.6013,99.5469 920.7497,99.4688 Q920.8981,99.3906 921.1013,99.3906 Q921.4294,99.3906 921.6872,99.6484 Q921.945,99.9063 921.945,100.25 Q921.945,100.5938 921.6013,101 Q921.1013,101.5781 920.3044,101.9063 Q919.2263,102.3594 917.9294,102.3594 Q916.4138,102.3594 915.2106,101.7344 Q914.2263,101.2344 913.5388,100.1641 Q912.8513,99.0938 912.8513,97.8125 L912.8513,96.6563 Q912.8513,95.3281 913.4684,94.1797 Q914.0856,93.0313 915.1794,92.4141 Q916.2731,91.7969 917.5075,91.7969 Q918.2419,91.7969 918.8903,91.9609 Q919.5388,92.125 920.0856,92.4844 Z " fill="#000000"/><text fill="#000000" font-family="sans-serif" font-size="14" lengthAdjust="spacing" textLength="73" x="937.82" y="102.3379">AuthFailure</text><line style="stroke:#181818;stroke-width:0.5;" x1="865.57" x2="1050.57" y1="112.6094" y2="112.6094"/><text fill="#000000" font-family="sans-serif" font-size="14" lengthAdjust="spacing" textLength="92" x="870.57" y="131.1426">+tentativas: int</text><text fill="#000000" font-family="sans-serif" font-size="14" lengthAdjust="spacing" textLength="175" x="870.57" y="148.752">+bloqueado_ate: timestamp</text><line style="stroke:#181818;stroke-width:0.5;" x1="865.57" x2="1050.57" y1="155.8281" y2="155.8281"/><text fill="#000000" font-family="sans-serif" font-size="14" lengthAdjust="spacing" textLength="131" x="870.57" y="174.3613">+email: varchar(100)</text></g><!--class TokenReset--><g id="elem_TokenReset"><rect codeLine="74" fill="#F1F1F1" height="136.0469" id="TokenReset" rx="2.5" ry="2.5" style="stroke:#181818;stroke-width:0.5;" width="189" x="319.57" y="312.1094"/><ellipse cx="371.32" cy="328.1094" fill="#ADD1B2" rx="11" ry="11" style="stroke:#181818;stroke-width:1.0;"/><path d="M374.0856,323.9844 Q374.2419,323.7656 374.4294,323.6563 Q374.6169,323.5469 374.8356,323.5469 Q375.2106,323.5469 375.445,323.8047 Q375.6794,324.0625 375.6794,324.6719 L375.6794,326.125 Q375.6794,326.7344 375.445,327 Q375.2106,327.2656 374.8356,327.2656 Q374.4919,327.2656 374.2888,327.0625 Q374.0856,326.875 373.9763,326.3594 Q373.9294,326 373.7419,325.8125 Q373.4138,325.4375 372.8044,325.2188 Q372.195,325 371.57,325 Q370.8044,325 370.1716,325.3281 Q369.5388,325.6563 369.0466,326.4063 Q368.5544,327.1563 368.5544,328.1875 L368.5544,329.2813 Q368.5544,330.5156 369.445,331.3359 Q370.3356,332.1563 371.9294,332.1563 Q372.8669,332.1563 373.5231,331.9063 Q373.9138,331.75 374.3356,331.3125 Q374.6013,331.0469 374.7497,330.9688 Q374.8981,330.8906 375.1013,330.8906 Q375.4294,330.8906 375.6872,331.1484 Q375.945,331.4063 375.945,331.75 Q375.945,332.0938 375.6013,332.5 Q375.1013,333.0781 374.3044,333.4063 Q373.2263,333.8594 371.9294,333.8594 Q370.4138,333.8594 369.2106,333.2344 Q368.2263,332.7344 367.5388,331.6641 Q366.8513,330.5938 366.8513,329.3125 L366.8513,328.1563 Q366.8513,326.8281 367.4684,325.6797 Q368.0856,324.5313 369.1794,323.9141 Q370.2731,323.2969 371.5075,323.2969 Q372.2419,323.2969 372.8903,323.4609 Q373.5388,323.625 374.0856,323.9844 Z " fill="#000000"/><text fill="#000000" font-family="sans-serif" font-size="14" lengthAdjust="spacing" textLength="77" x="391.82" y="333.8379">TokenReset</text><line style="stroke:#181818;stroke-width:0.5;" x1="320.57" x2="507.57" y1="344.1094" y2="344.1094"/><text fill="#000000" font-family="sans-serif" font-size="14" lengthAdjust="spacing" textLength="114" x="325.57" y="362.6426">+id_token: integer</text><text fill="#000000" font-family="sans-serif" font-size="14" lengthAdjust="spacing" textLength="126" x="325.57" y="380.252">+id_usuario: integer</text><text fill="#000000" font-family="sans-serif" font-size="14" lengthAdjust="spacing" textLength="112" x="325.57" y="397.8613">+token_hash: text</text><text fill="#000000" font-family="sans-serif" font-size="14" lengthAdjust="spacing" textLength="177" x="325.57" y="415.4707">+data_expiracao: timestamp</text><text fill="#000000" font-family="sans-serif" font-size="14" lengthAdjust="spacing" textLength="106" x="325.57" y="433.0801">+usado: boolean</text><line style="stroke:#181818;stroke-width:0.5;" x1="320.57" x2="507.57" y1="440.1563" y2="440.1563"/></g><!--link Usuario to Endereco--><g id="link_Usuario_Endereco"><path codeLine="83" d="M294.74,146.6294 C216.2,165.6794 100.11,207.5394 46.07,294.6094 C6,359.1894 23.09,393.1694 46.07,465.6094 C55.71,495.9994 72.9,525.6494 91.35,551.5194 " fill="none" id="Usuario-Endereco" style="stroke:#181818;stroke-width:1.0;"/><text fill="#000000" font-family="sans-serif" font-size="13" lengthAdjust="spacing" textLength="38" x="47.07" y="385.6045">possui</text><text fill="#000000" font-family="sans-serif" font-size="13" lengthAdjust="spacing" textLength="7" x="280.1041" y="144.8217">1</text><text fill="#000000" font-family="sans-serif" font-size="13" lengthAdjust="spacing" textLength="20" x="63.4477" y="540.3164">0..*</text></g><!--link Categoria to Produto--><g id="link_Categoria_Produto"><path codeLine="84" d="M754.07,172.6194 C754.07,205.5994 754.07,253.2894 754.07,294.5194 " fill="none" id="Categoria-Produto" style="stroke:#181818;stroke-width:1.0;"/><text fill="#000000" font-family="sans-serif" font-size="13" lengthAdjust="spacing" textLength="43" x="755.07" y="261.1045">cont&#233;m</text><text fill="#000000" font-family="sans-serif" font-size="13" lengthAdjust="spacing" textLength="7" x="746.4903" y="194.3256">1</text><text fill="#000000" font-family="sans-serif" font-size="13" lengthAdjust="spacing" textLength="20" x="733.1794" y="283.683">0..*</text></g><!--link Usuario to Carrinho--><g id="link_Usuario_Carrinho"><path codeLine="85" d="M453.3,185.2294 C474.74,202.6994 496.34,223.6094 512.07,246.6094 C582.7,349.8494 537.69,405.7694 601.07,513.6094 C614.77,536.9094 633.43,559.5794 651.63,578.9994 " fill="none" id="Usuario-Carrinho" style="stroke:#181818;stroke-width:1.0;"/><text fill="#000000" font-family="sans-serif" font-size="13" lengthAdjust="spacing" textLength="38" x="578.07" y="385.6045">possui</text><text fill="#000000" font-family="sans-serif" font-size="13" lengthAdjust="spacing" textLength="7" x="461.1852" y="187.1244">1</text><text fill="#000000" font-family="sans-serif" font-size="13" lengthAdjust="spacing" textLength="20" x="622.8014" y="568.3102">0..*</text></g><!--link Produto to Carrinho--><g id="link_Produto_Carrinho"><path codeLine="86" d="M742.29,465.6294 C739.97,481.5794 737.5,498.1094 735.07,513.6094 C731.72,534.9894 727.8,558.4094 724.26,579.0494 " fill="none" id="Produto-Carrinho" style="stroke:#181818;stroke-width:1.0;"/><text fill="#000000" font-family="sans-serif" font-size="13" lengthAdjust="spacing" textLength="95" x="738.07" y="510.1045">referenciado_em</text><text fill="#000000" font-family="sans-serif" font-size="13" lengthAdjust="spacing" textLength="7" x="733.9291" y="487.4574">1</text><text fill="#000000" font-family="sans-serif" font-size="13" lengthAdjust="spacing" textLength="20" x="704.2832" y="568.3663">0..*</text></g><!--link Pedido to ItemPedido--><g id="link_Pedido_ItemPedido"><path codeLine="88" d="M268.7,457.2294 C303.82,493.0394 345.33,535.3794 379.25,569.9794 " fill="none" id="Pedido-ItemPedido" style="stroke:#181818;stroke-width:1.0;"/><text fill="#000000" font-family="sans-serif" font-size="13" lengthAdjust="spacing" textLength="78" x="321.07" y="510.1045">cont&#233;m_itens</text><text fill="#000000" font-family="sans-serif" font-size="13" lengthAdjust="spacing" textLength="7" x="268.035" y="478.3365">1</text><text fill="#000000" font-family="sans-serif" font-size="13" lengthAdjust="spacing" textLength="20" x="350.9572" y="559.1644">0..*</text></g><!--link Produto to ItemPedido--><g id="link_Produto_ItemPedido"><path codeLine="89" d="M674.5,447.0394 C628.9,484.8094 571.81,532.1094 525.99,570.0694 " fill="none" id="Produto-ItemPedido" style="stroke:#181818;stroke-width:1.0;"/><text fill="#000000" font-family="sans-serif" font-size="13" lengthAdjust="spacing" textLength="95" x="609.07" y="510.1045">referenciado_em</text><text fill="#000000" font-family="sans-serif" font-size="13" lengthAdjust="spacing" textLength="7" x="659.5824" y="450.1554">1</text><text fill="#000000" font-family="sans-serif" font-size="13" lengthAdjust="spacing" textLength="20" x="513.7469" y="559.2643">0..*</text></g><!--link Usuario to Pedido--><g id="link_Usuario_Pedido"><path codeLine="90" d="M312.38,216.7694 C292.02,244.6994 269.52,275.5794 249.65,302.8394 " fill="none" id="Usuario-Pedido" style="stroke:#181818;stroke-width:1.0;"/><text fill="#000000" font-family="sans-serif" font-size="13" lengthAdjust="spacing" textLength="38" x="291.07" y="261.1045">realiza</text><text fill="#000000" font-family="sans-serif" font-size="13" lengthAdjust="spacing" textLength="7" x="299.7777" y="238.3171">1</text><text fill="#000000" font-family="sans-serif" font-size="13" lengthAdjust="spacing" textLength="20" x="233.9943" y="292.2403">0..*</text></g><!--link Pedido to Endereco--><g id="link_Pedido_Endereco"><path codeLine="91" d="M186.04,457.2294 C183.2,484.1994 179.96,514.8694 176.98,543.1494 " fill="none" id="Pedido-Endereco" style="stroke:#181818;stroke-width:1.0;"/><text fill="#000000" font-family="sans-serif" font-size="13" lengthAdjust="spacing" textLength="103" x="183.07" y="510.1045">endereco_entrega</text><text fill="#000000" font-family="sans-serif" font-size="13" lengthAdjust="spacing" textLength="22" x="162.3451" y="478.3365">0..1</text><text fill="#000000" font-family="sans-serif" font-size="13" lengthAdjust="spacing" textLength="20" x="156.9731" y="532.7799">0..*</text></g><!--link Usuario to TokenReset--><g id="link_Usuario_TokenReset"><path codeLine="94" d="M387.78,216.7694 C392.82,247.9094 398.46,282.7194 403.22,312.0994 " fill="none" id="Usuario-TokenReset" style="stroke:#181818;stroke-width:1.0;"/><text fill="#000000" font-family="sans-serif" font-size="13" lengthAdjust="spacing" textLength="107" x="396.07" y="261.1045">possuiTokenReset</text><text fill="#000000" font-family="sans-serif" font-size="13" lengthAdjust="spacing" textLength="7" x="381.6574" y="238.3171">1</text><text fill="#000000" font-family="sans-serif" font-size="13" lengthAdjust="spacing" textLength="22" x="378.8302" y="301.2976">0..1</text></g><!--SRC=[ZLLBRjim4Dth58GtITecjGC4QBqBqXJ8haZQjJ0Mnz8W4gcG8oT8qVCKFK1Fa8jrA5aI_IkyC60zpUUz-Oc9IrGt9NYllX3a3YfrhcvD_c2N_0mEayG_agaXlCY2sJMpeqN3U9TPyq2lgAQHYIz0ssSokLf2wSNxH88nCQ5NEHfqmAZLqjbAQPlvT07P8nhzqMUEQavzLc055_wfL62qSbXRJsoTk2T9crxzy0quikfdejHxqcdJFSyL6SOSNO2DhN2kLk2o0jpfR3ez2wX4fd8Npkfb1CvQpACfO4GlhwvQcAcsSO3Etv5eJh6QAwOAFKDL9xzwkZSYE1S1C13EUkG_bAyaz13YrcXqc8sISGri13XG2jT4EcQN7MNJLEWY9Mju0UHY-DDQ86dGk0C7fJeEqXbZFKAV8nNVdDKDZoBgxdbRmp7LwJkdCOnD1XA4yOK3L7TrqPXH1QLOVhZioTgd1jkWRQOAyj2nZGv7JNEEJ66ZddN03jkIK81jU9-sfmPa4RfA1X9ZOL2JZkhIFXwJI0F3O3wENXXV1cxyJdzNK5gNicKezvLeFLKfwJ7DmFAEiTfYIXmgkALyB_jZwj4tBsqCSJV6cnG7AjSD5rzbbHk77PS3YyrICM1QWHyoBCem1M5T8HHppxv-jtAFxj4Z3pevGCViMckO5k2BSI3R9k5BJGwwGOtxrFXsWnRMbWWca3XHzrZ2s- -tlt8mJnVWXInuPUGdsbO2YhS3awC4z6T9VmqdiuawFrUJwSN5kybuCUPA3gXlA1dFqAPblvLp9TUSt_vK1o8E6p54x3qFsZbS2WcJhQzZagp7PzCXcgk1GvWiumzas73Oph6VV6GE9Rt2m4HU7whRi0qoH0vp2Atv3WjfZbVGl519yd7q-nBAlsY8-dgDKF8F]--></g></svg>