<?xml version="1.0" encoding="us-ascii" standalone="no"?><svg xmlns="http://www.w3.org/2000/svg" xmlns:xlink="http://www.w3.org/1999/xlink" contentStyleType="text/css" height="2046px" preserveAspectRatio="none" style="width:1930px;height:2046px;background:#FFFFFF;" version="1.1" viewBox="0 0 1930 2046" width="1930px" zoomAndPan="magnify"><defs/><g><text fill="#000000" font-family="sans-serif" font-size="14" font-weight="bold" lengthAdjust="spacing" textLength="266" x="833.5" y="29.5332">Diagrama de Sequ&#234;ncia - Vought Tech</text><text fill="#000000" font-family="sans-serif" font-size="14" font-weight="bold" lengthAdjust="spacing" textLength="4" x="964.5" y="47.1426">&#160;</text><text fill="#000000" font-family="sans-serif" font-size="14" font-weight="bold" lengthAdjust="spacing" textLength="268" x="832.5" y="64.752">Fluxo: Editar Pedido (PUT /pedidos/:id)</text><rect fill="#FFFFFF" height="1316.4141" style="stroke:#181818;stroke-width:1.0;" width="10" x="1021.5" y="538.6563"/><rect fill="none" height="123.4063" style="stroke:#000000;stroke-width:1.5;" width="1154" x="228.5" y="355.5469"/><rect fill="none" height="507.625" style="stroke:#000000;stroke-width:1.5;" width="1715.5" x="208.5" y="553.6563"/><rect fill="none" height="125.4063" style="stroke:#000000;stroke-width:1.5;" width="1695.5" x="218.5" y="579.0078"/><rect fill="none" height="93.0547" style="stroke:#000000;stroke-width:1.5;" width="1675.5" x="228.5" y="604.3594"/><rect fill="none" height="123.4063" style="stroke:#000000;stroke-width:1.5;" width="1290" x="228.5" y="809.4688"/><rect fill="none" height="368.2188" style="stroke:#000000;stroke-width:1.5;" width="1685.5" x="218.5" y="1075.2813"/><rect fill="none" height="123.4063" style="stroke:#000000;stroke-width:1.5;" width="1443" x="228.5" y="1191.6875"/><rect fill="none" height="216.4609" style="stroke:#000000;stroke-width:1.5;" width="1685.5" x="218.5" y="1457.5"/><rect fill="none" height="93.0547" style="stroke:#000000;stroke-width:1.5;" width="860.5" x="228.5" y="1482.8516"/><line style="stroke:#181818;stroke-width:0.5;stroke-dasharray:5.0,5.0;" x1="27" x2="27" y1="156.4375" y2="1964.125"/><line style="stroke:#181818;stroke-width:0.5;stroke-dasharray:5.0,5.0;" x1="314.5" x2="314.5" y1="156.4375" y2="1964.125"/><line style="stroke:#181818;stroke-width:0.5;stroke-dasharray:5.0,5.0;" x1="670.5" x2="670.5" y1="156.4375" y2="1964.125"/><line style="stroke:#181818;stroke-width:0.5;stroke-dasharray:5.0,5.0;" x1="1026" x2="1026" y1="156.4375" y2="1964.125"/><line style="stroke:#181818;stroke-width:0.5;stroke-dasharray:5.0,5.0;" x1="1309.5" x2="1309.5" y1="156.4375" y2="1964.125"/><line style="stroke:#181818;stroke-width:0.5;stroke-dasharray:5.0,5.0;" x1="1445.5" x2="1445.5" y1="156.4375" y2="1964.125"/><line style="stroke:#181818;stroke-width:0.5;stroke-dasharray:5.0,5.0;" x1="1589.5" x2="1589.5" y1="156.4375" y2="1964.125"/><line style="stroke:#181818;stroke-width:0.5;stroke-dasharray:5.0,5.0;" x1="1876" x2="1876" y1="156.4375" y2="1964.125"/><text fill="#000000" font-family="sans-serif" font-size="14" lengthAdjust="spacing" textLength="39" x="5" y="153.3613">Admin</text><ellipse cx="27.5" cy="87.3281" fill="#E2E2F0" rx="8" ry="8" style="stroke:#181818;stroke-width:0.5;"/><path d="M27.5,95.3281 L27.5,122.3281 M14.5,103.3281 L40.5,103.3281 M27.5,122.3281 L14.5,137.3281 M27.5,122.3281 L40.5,137.3281 " fill="none" style="stroke:#181818;stroke-width:0.5;"/><text fill="#000000" font-family="sans-serif" font-size="14" lengthAdjust="spacing" textLength="39" x="5" y="1977.6582">Admin</text><ellipse cx="27.5" cy="1989.2344" fill="#E2E2F0" rx="8" ry="8" style="stroke:#181818;stroke-width:0.5;"/><path d="M27.5,1997.2344 L27.5,2024.2344 M14.5,2005.2344 L40.5,2005.2344 M27.5,2024.2344 L14.5,2039.2344 M27.5,2024.2344 L40.5,2039.2344 " fill="none" style="stroke:#181818;stroke-width:0.5;"/><rect fill="#E2E2F0" height="31.6094" rx="2.5" ry="2.5" style="stroke:#181818;stroke-width:0.5;" width="152" x="238.5" y="123.8281"/><text fill="#000000" font-family="sans-serif" font-size="14" lengthAdjust="spacing" textLength="138" x="245.5" y="145.3613">Rota PUT /pedidos/:id</text><rect fill="#E2E2F0" height="31.6094" rx="2.5" ry="2.5" style="stroke:#181818;stroke-width:0.5;" width="152" x="238.5" y="1963.125"/><text fill="#000000" font-family="sans-serif" font-size="14" lengthAdjust="spacing" textLength="138" x="245.5" y="1984.6582">Rota PUT /pedidos/:id</text><rect fill="#E2E2F0" height="31.6094" rx="2.5" ry="2.5" style="stroke:#181818;stroke-width:0.5;" width="120" x="610.5" y="123.8281"/><text fill="#000000" font-family="sans-serif" font-size="14" lengthAdjust="spacing" textLength="106" x="617.5" y="145.3613">PedidoController</text><rect fill="#E2E2F0" height="31.6094" rx="2.5" ry="2.5" style="stroke:#181818;stroke-width:0.5;" width="120" x="610.5" y="1963.125"/><text fill="#000000" font-family="sans-serif" font-size="14" lengthAdjust="spacing" textLength="106" x="617.5" y="1984.6582">PedidoController</text><rect fill="#E2E2F0" height="31.6094" rx="2.5" ry="2.5" style="stroke:#181818;stroke-width:0.5;" width="105" x="974" y="123.8281"/><text fill="#000000" font-family="sans-serif" font-size="14" lengthAdjust="spacing" textLength="91" x="981" y="145.3613">PedidoService</text><rect fill="#E2E2F0" height="31.6094" rx="2.5" ry="2.5" style="stroke:#181818;stroke-width:0.5;" width="105" x="974" y="1963.125"/><text fill="#000000" font-family="sans-serif" font-size="14" lengthAdjust="spacing" textLength="91" x="981" y="1984.6582">PedidoService</text><rect fill="#E2E2F0" height="31.6094" rx="2.5" ry="2.5" style="stroke:#181818;stroke-width:0.5;" width="126" x="1246.5" y="123.8281"/><text fill="#000000" font-family="sans-serif" font-size="14" lengthAdjust="spacing" textLength="112" x="1253.5" y="145.3613">PedidoRepository</text><rect fill="#E2E2F0" height="31.6094" rx="2.5" ry="2.5" style="stroke:#181818;stroke-width:0.5;" width="126" x="1246.5" y="1963.125"/><text fill="#000000" font-family="sans-serif" font-size="14" lengthAdjust="spacing" textLength="112" x="1253.5" y="1984.6582">PedidoRepository</text><rect fill="#E2E2F0" height="31.6094" rx="2.5" ry="2.5" style="stroke:#181818;stroke-width:0.5;" width="126" x="1382.5" y="123.8281"/><text fill="#000000" font-family="sans-serif" font-size="14" lengthAdjust="spacing" textLength="112" x="1389.5" y="145.3613">ClienteRepository</text><rect fill="#E2E2F0" height="31.6094" rx="2.5" ry="2.5" style="stroke:#181818;stroke-width:0.5;" width="126" x="1382.5" y="1963.125"/><text fill="#000000" font-family="sans-serif" font-size="14" lengthAdjust="spacing" textLength="112" x="1389.5" y="1984.6582">ClienteRepository</text><rect fill="#E2E2F0" height="31.6094" rx="2.5" ry="2.5" style="stroke:#181818;stroke-width:0.5;" width="143" x="1518.5" y="123.8281"/><text fill="#000000" font-family="sans-serif" font-size="14" lengthAdjust="spacing" textLength="129" x="1525.5" y="145.3613">EnderecoRepository</text><rect fill="#E2E2F0" height="31.6094" rx="2.5" ry="2.5" style="stroke:#181818;stroke-width:0.5;" width="143" x="1518.5" y="1963.125"/><text fill="#000000" font-family="sans-serif" font-size="14" lengthAdjust="spacing" textLength="129" x="1525.5" y="1984.6582">EnderecoRepository</text><text fill="#000000" font-family="sans-serif" font-size="14" lengthAdjust="spacing" textLength="19" x="1863.5" y="153.3613">DB</text><path d="M1858,102.8281 C1858,92.8281 1876,92.8281 1876,92.8281 C1876,92.8281 1894,92.8281 1894,102.8281 L1894,128.8281 C1894,138.8281 1876,138.8281 1876,138.8281 C1876,138.8281 1858,138.8281 1858,128.8281 L1858,102.8281 " fill="#E2E2F0" style="stroke:#181818;stroke-width:1.5;"/><path d="M1858,102.8281 C1858,112.8281 1876,112.8281 1876,112.8281 C1876,112.8281 1894,112.8281 1894,102.8281 " fill="none" style="stroke:#181818;stroke-width:1.5;"/><text fill="#000000" font-family="sans-serif" font-size="14" lengthAdjust="spacing" textLength="19" x="1863.5" y="1977.6582">DB</text><path d="M1858,1990.7344 C1858,1980.7344 1876,1980.7344 1876,1980.7344 C1876,1980.7344 1894,1980.7344 1894,1990.7344 L1894,2016.7344 C1894,2026.7344 1876,2026.7344 1876,2026.7344 C1876,2026.7344 1858,2026.7344 1858,2016.7344 L1858,1990.7344 " fill="#E2E2F0" style="stroke:#181818;stroke-width:1.5;"/><path d="M1858,1990.7344 C1858,2000.7344 1876,2000.7344 1876,2000.7344 C1876,2000.7344 1894,2000.7344 1894,1990.7344 " fill="none" style="stroke:#181818;stroke-width:1.5;"/><rect fill="#FFFFFF" height="1316.4141" style="stroke:#181818;stroke-width:1.0;" width="10" x="1021.5" y="538.6563"/><polygon fill="#181818" points="302.5,184.7891,312.5,188.7891,302.5,192.7891,306.5,188.7891" style="stroke:#181818;stroke-width:1.0;"/><line style="stroke:#181818;stroke-width:1.0;" x1="27.5" x2="308.5" y1="188.7891" y2="188.7891"/><text fill="#000000" font-family="sans-serif" font-size="13" lengthAdjust="spacing" textLength="263" x="34.5" y="183.9326">Envia dados (id, status, enderecoId, clienteId)</text><polygon fill="#181818" points="658.5,215.1406,668.5,219.1406,658.5,223.1406,662.5,219.1406" style="stroke:#181818;stroke-width:1.0;"/><line style="stroke:#181818;stroke-width:1.0;" x1="314.5" x2="664.5" y1="219.1406" y2="219.1406"/><text fill="#000000" font-family="sans-serif" font-size="13" lengthAdjust="spacing" textLength="141" x="321.5" y="214.2842">atualizarPedido(req, res)</text><polygon fill="#181818" points="1014.5,245.4922,1024.5,249.4922,1014.5,253.4922,1018.5,249.4922" style="stroke:#181818;stroke-width:1.0;"/><line style="stroke:#181818;stroke-width:1.0;" x1="670.5" x2="1020.5" y1="249.4922" y2="249.4922"/><text fill="#000000" font-family="sans-serif" font-size="13" lengthAdjust="spacing" textLength="332" x="677.5" y="244.6357">atualizarPedido(pedidoId, { status, enderecoId, clienteId })</text><polygon fill="#181818" points="1297.5,275.8438,1307.5,279.8438,1297.5,283.8438,1301.5,279.8438" style="stroke:#181818;stroke-width:1.0;"/><line style="stroke:#181818;stroke-width:1.0;" x1="1026.5" x2="1303.5" y1="279.8438" y2="279.8438"/><text fill="#000000" font-family="sans-serif" font-size="13" lengthAdjust="spacing" textLength="114" x="1033.5" y="274.9873">getPedido(pedidoId)</text><polygon fill="#181818" points="1864,306.1953,1874,310.1953,1864,314.1953,1868,310.1953" style="stroke:#181818;stroke-width:1.0;"/><line style="stroke:#181818;stroke-width:1.0;" x1="1309.5" x2="1870" y1="310.1953" y2="310.1953"/><text fill="#000000" font-family="sans-serif" font-size="13" lengthAdjust="spacing" textLength="292" x="1316.5" y="305.3389">SELECT * FROM pedidos WHERE id_pedido = $1</text><polygon fill="#181818" points="1320.5,336.5469,1310.5,340.5469,1320.5,344.5469,1316.5,340.5469" style="stroke:#181818;stroke-width:1.0;"/><line style="stroke:#181818;stroke-width:1.0;stroke-dasharray:2.0,2.0;" x1="1314.5" x2="1875" y1="340.5469" y2="340.5469"/><text fill="#000000" font-family="sans-serif" font-size="13" lengthAdjust="spacing" textLength="38" x="1326.5" y="335.6904">pedido</text><path d="M228.5,355.5469 L289.5,355.5469 L289.5,363.8984 L279.5,373.8984 L228.5,373.8984 L228.5,355.5469 " fill="#EEEEEE" style="stroke:#000000;stroke-width:1.5;"/><rect fill="none" height="123.4063" style="stroke:#000000;stroke-width:1.5;" width="1154" x="228.5" y="355.5469"/><text fill="#000000" font-family="sans-serif" font-size="13" font-weight="bold" lengthAdjust="spacing" textLength="16" x="243.5" y="370.042">alt</text><text fill="#000000" font-family="sans-serif" font-size="11" font-weight="bold" lengthAdjust="spacing" textLength="135" x="304.5" y="368.9658">[pedido n&#227;o encontrado]</text><polygon fill="#181818" points="1037.5,392.25,1027.5,396.25,1037.5,400.25,1033.5,396.25" style="stroke:#181818;stroke-width:1.0;"/><line style="stroke:#181818;stroke-width:1.0;stroke-dasharray:2.0,2.0;" x1="1031.5" x2="1308.5" y1="396.25" y2="396.25"/><text fill="#000000" font-family="sans-serif" font-size="13" lengthAdjust="spacing" textLength="20" x="1043.5" y="391.3936">null</text><polygon fill="#181818" points="681.5,422.6016,671.5,426.6016,681.5,430.6016,677.5,426.6016" style="stroke:#181818;stroke-width:1.0;"/><line style="stroke:#181818;stroke-width:1.0;" x1="675.5" x2="1025.5" y1="426.6016" y2="426.6016"/><text fill="#000000" font-family="sans-serif" font-size="13" lengthAdjust="spacing" textLength="241" x="687.5" y="421.7451">"lan&#231;a AppError (Pedido n&#227;o encontrado)"</text><polygon fill="#181818" points="325.5,452.9531,315.5,456.9531,325.5,460.9531,321.5,456.9531" style="stroke:#181818;stroke-width:1.0;"/><line style="stroke:#181818;stroke-width:1.0;" x1="319.5" x2="669.5" y1="456.9531" y2="456.9531"/><text fill="#000000" font-family="sans-serif" font-size="13" lengthAdjust="spacing" textLength="223" x="331.5" y="452.0967">responde 404 - Pedido n&#227;o encontrado</text><polygon fill="#181818" points="658.5,466.9531,668.5,470.9531,658.5,474.9531,662.5,470.9531" style="stroke:#181818;stroke-width:1.0;"/><line style="stroke:#181818;stroke-width:1.0;stroke-dasharray:2.0,2.0;" x1="314.5" x2="664.5" y1="470.9531" y2="470.9531"/><polygon fill="#181818" points="1037.5,504.3047,1027.5,508.3047,1037.5,512.3047,1033.5,508.3047" style="stroke:#181818;stroke-width:1.0;"/><line style="stroke:#181818;stroke-width:1.0;stroke-dasharray:2.0,2.0;" x1="1031.5" x2="1308.5" y1="508.3047" y2="508.3047"/><text fill="#000000" font-family="sans-serif" font-size="13" lengthAdjust="spacing" textLength="106" x="1043.5" y="503.4482">pedido encontrado</text><polygon fill="#181818" points="1864,534.6563,1874,538.6563,1864,542.6563,1868,538.6563" style="stroke:#181818;stroke-width:1.0;"/><line style="stroke:#181818;stroke-width:1.0;" x1="1031.5" x2="1870" y1="538.6563" y2="538.6563"/><text fill="#000000" font-family="sans-serif" font-size="13" lengthAdjust="spacing" textLength="91" x="1038.5" y="533.7998">inicia transa&#231;&#227;o</text><path d="M208.5,553.6563 L269.5,553.6563 L269.5,562.0078 L259.5,572.0078 L208.5,572.0078 L208.5,553.6563 " fill="#EEEEEE" style="stroke:#000000;stroke-width:1.5;"/><rect fill="none" height="507.625" style="stroke:#000000;stroke-width:1.5;" width="1715.5" x="208.5" y="553.6563"/><text fill="#000000" font-family="sans-serif" font-size="13" font-weight="bold" lengthAdjust="spacing" textLength="16" x="223.5" y="568.1514">alt</text><text fill="#000000" font-family="sans-serif" font-size="11" font-weight="bold" lengthAdjust="spacing" textLength="229" x="284.5" y="567.0752">[atualizar cliente (se clienteId informado)]</text><path d="M218.5,579.0078 L279.5,579.0078 L279.5,587.3594 L269.5,597.3594 L218.5,597.3594 L218.5,579.0078 " fill="#EEEEEE" style="stroke:#000000;stroke-width:1.5;"/><rect fill="none" height="125.4063" style="stroke:#000000;stroke-width:1.5;" width="1695.5" x="218.5" y="579.0078"/><text fill="#000000" font-family="sans-serif" font-size="13" font-weight="bold" lengthAdjust="spacing" textLength="16" x="233.5" y="593.5029">alt</text><text fill="#000000" font-family="sans-serif" font-size="11" font-weight="bold" lengthAdjust="spacing" textLength="223" x="294.5" y="592.4268">[status n&#227;o permite mudan&#231;a de cliente]</text><path d="M228.5,604.3594 L289.5,604.3594 L289.5,612.7109 L279.5,622.7109 L228.5,622.7109 L228.5,604.3594 " fill="#EEEEEE" style="stroke:#000000;stroke-width:1.5;"/><rect fill="none" height="93.0547" style="stroke:#000000;stroke-width:1.5;" width="1675.5" x="228.5" y="604.3594"/><text fill="#000000" font-family="sans-serif" font-size="13" font-weight="bold" lengthAdjust="spacing" textLength="16" x="243.5" y="618.8545">alt</text><text fill="#000000" font-family="sans-serif" font-size="11" font-weight="bold" lengthAdjust="spacing" textLength="231" x="304.5" y="617.7783">[pedido.status &#233; "enviado" ou "entregue"]</text><polygon fill="#181818" points="681.5,641.0625,671.5,645.0625,681.5,649.0625,677.5,645.0625" style="stroke:#181818;stroke-width:1.0;"/><line style="stroke:#181818;stroke-width:1.0;" x1="675.5" x2="1020.5" y1="645.0625" y2="645.0625"/><text fill="#000000" font-family="sans-serif" font-size="13" lengthAdjust="spacing" textLength="274" x="687.5" y="640.2061">"lan&#231;a AppError (N&#227;o &#233; poss&#237;vel alterar cliente)"</text><polygon fill="#181818" points="325.5,671.4141,315.5,675.4141,325.5,679.4141,321.5,675.4141" style="stroke:#181818;stroke-width:1.0;"/><line style="stroke:#181818;stroke-width:1.0;" x1="319.5" x2="669.5" y1="675.4141" y2="675.4141"/><text fill="#000000" font-family="sans-serif" font-size="13" lengthAdjust="spacing" textLength="332" x="331.5" y="670.5576">responde 400 - N&#227;o &#233; poss&#237;vel alterar cliente neste status</text><polygon fill="#181818" points="1042.5,685.4141,1032.5,689.4141,1042.5,693.4141,1038.5,689.4141" style="stroke:#181818;stroke-width:1.0;"/><line style="stroke:#181818;stroke-width:1.0;stroke-dasharray:2.0,2.0;" x1="1036.5" x2="1875" y1="689.4141" y2="689.4141"/><polygon fill="#181818" points="1433.5,729.7656,1443.5,733.7656,1433.5,737.7656,1437.5,733.7656" style="stroke:#181818;stroke-width:1.0;"/><line style="stroke:#181818;stroke-width:1.0;" x1="1031.5" x2="1439.5" y1="733.7656" y2="733.7656"/><text fill="#000000" font-family="sans-serif" font-size="13" lengthAdjust="spacing" textLength="114" x="1038.5" y="728.9092">getCliente(clienteId)</text><polygon fill="#181818" points="1864,760.1172,1874,764.1172,1864,768.1172,1868,764.1172" style="stroke:#181818;stroke-width:1.0;"/><line style="stroke:#181818;stroke-width:1.0;" x1="1445.5" x2="1870" y1="764.1172" y2="764.1172"/><text fill="#000000" font-family="sans-serif" font-size="13" lengthAdjust="spacing" textLength="300" x="1452.5" y="759.2607">SELECT * FROM usuarios WHERE id_usuario = $1</text><polygon fill="#181818" points="1456.5,790.4688,1446.5,794.4688,1456.5,798.4688,1452.5,794.4688" style="stroke:#181818;stroke-width:1.0;"/><line style="stroke:#181818;stroke-width:1.0;stroke-dasharray:2.0,2.0;" x1="1450.5" x2="1875" y1="794.4688" y2="794.4688"/><text fill="#000000" font-family="sans-serif" font-size="13" lengthAdjust="spacing" textLength="38" x="1462.5" y="789.6123">cliente</text><path d="M228.5,809.4688 L289.5,809.4688 L289.5,817.8203 L279.5,827.8203 L228.5,827.8203 L228.5,809.4688 " fill="#EEEEEE" style="stroke:#000000;stroke-width:1.5;"/><rect fill="none" height="123.4063" style="stroke:#000000;stroke-width:1.5;" width="1290" x="228.5" y="809.4688"/><text fill="#000000" font-family="sans-serif" font-size="13" font-weight="bold" lengthAdjust="spacing" textLength="16" x="243.5" y="823.9639">alt</text><text fill="#000000" font-family="sans-serif" font-size="11" font-weight="bold" lengthAdjust="spacing" textLength="134" x="304.5" y="822.8877">[cliente n&#227;o encontrado]</text><polygon fill="#181818" points="1042.5,846.1719,1032.5,850.1719,1042.5,854.1719,1038.5,850.1719" style="stroke:#181818;stroke-width:1.0;"/><line style="stroke:#181818;stroke-width:1.0;stroke-dasharray:2.0,2.0;" x1="1036.5" x2="1444.5" y1="850.1719" y2="850.1719"/><text fill="#000000" font-family="sans-serif" font-size="13" lengthAdjust="spacing" textLength="20" x="1048.5" y="845.3154">null</text><polygon fill="#181818" points="681.5,876.5234,671.5,880.5234,681.5,884.5234,677.5,880.5234" style="stroke:#181818;stroke-width:1.0;"/><line style="stroke:#181818;stroke-width:1.0;" x1="675.5" x2="1020.5" y1="880.5234" y2="880.5234"/><text fill="#000000" font-family="sans-serif" font-size="13" lengthAdjust="spacing" textLength="241" x="687.5" y="875.667">"lan&#231;a AppError (Cliente n&#227;o encontrado)"</text><polygon fill="#181818" points="325.5,906.875,315.5,910.875,325.5,914.875,321.5,910.875" style="stroke:#181818;stroke-width:1.0;"/><line style="stroke:#181818;stroke-width:1.0;" x1="319.5" x2="669.5" y1="910.875" y2="910.875"/><text fill="#000000" font-family="sans-serif" font-size="13" lengthAdjust="spacing" textLength="223" x="331.5" y="906.0186">responde 404 - Cliente n&#227;o encontrado</text><polygon fill="#181818" points="658.5,920.875,668.5,924.875,658.5,928.875,662.5,924.875" style="stroke:#181818;stroke-width:1.0;"/><line style="stroke:#181818;stroke-width:1.0;stroke-dasharray:2.0,2.0;" x1="314.5" x2="664.5" y1="924.875" y2="924.875"/><polygon fill="#181818" points="1042.5,958.2266,1032.5,962.2266,1042.5,966.2266,1038.5,962.2266" style="stroke:#181818;stroke-width:1.0;"/><line style="stroke:#181818;stroke-width:1.0;stroke-dasharray:2.0,2.0;" x1="1036.5" x2="1444.5" y1="962.2266" y2="962.2266"/><text fill="#000000" font-family="sans-serif" font-size="13" lengthAdjust="spacing" textLength="106" x="1048.5" y="957.3701">cliente encontrado</text><polygon fill="#181818" points="1297.5,988.5781,1307.5,992.5781,1297.5,996.5781,1301.5,992.5781" style="stroke:#181818;stroke-width:1.0;"/><line style="stroke:#181818;stroke-width:1.0;" x1="1031.5" x2="1303.5" y1="992.5781" y2="992.5781"/><text fill="#000000" font-family="sans-serif" font-size="13" lengthAdjust="spacing" textLength="224" x="1038.5" y="987.7217">atualizarCliente(pedidoId, clienteId, trx)</text><polygon fill="#181818" points="1864,1018.9297,1874,1022.9297,1864,1026.9297,1868,1022.9297" style="stroke:#181818;stroke-width:1.0;"/><line style="stroke:#181818;stroke-width:1.0;" x1="1309.5" x2="1870" y1="1022.9297" y2="1022.9297"/><text fill="#000000" font-family="sans-serif" font-size="13" lengthAdjust="spacing" textLength="361" x="1316.5" y="1018.0732">UPDATE pedidos SET id_cliente = $1 WHERE id_pedido = $2</text><polygon fill="#181818" points="1320.5,1049.2813,1310.5,1053.2813,1320.5,1057.2813,1316.5,1053.2813" style="stroke:#181818;stroke-width:1.0;"/><line style="stroke:#181818;stroke-width:1.0;stroke-dasharray:2.0,2.0;" x1="1314.5" x2="1875" y1="1053.2813" y2="1053.2813"/><text fill="#000000" font-family="sans-serif" font-size="13" lengthAdjust="spacing" textLength="101" x="1326.5" y="1048.4248">cliente atualizado</text><path d="M218.5,1075.2813 L279.5,1075.2813 L279.5,1083.6328 L269.5,1093.6328 L218.5,1093.6328 L218.5,1075.2813 " fill="#EEEEEE" style="stroke:#000000;stroke-width:1.5;"/><rect fill="none" height="368.2188" style="stroke:#000000;stroke-width:1.5;" width="1685.5" x="218.5" y="1075.2813"/><text fill="#000000" font-family="sans-serif" font-size="13" font-weight="bold" lengthAdjust="spacing" textLength="16" x="233.5" y="1089.7764">alt</text><text fill="#000000" font-family="sans-serif" font-size="11" font-weight="bold" lengthAdjust="spacing" textLength="261" x="294.5" y="1088.7002">[atualizar endere&#231;o (se enderecoId informado)]</text><polygon fill="#181818" points="1578,1111.9844,1588,1115.9844,1578,1119.9844,1582,1115.9844" style="stroke:#181818;stroke-width:1.0;"/><line style="stroke:#181818;stroke-width:1.0;" x1="1031.5" x2="1584" y1="1115.9844" y2="1115.9844"/><text fill="#000000" font-family="sans-serif" font-size="13" lengthAdjust="spacing" textLength="144" x="1038.5" y="1111.1279">getEndereco(enderecoId)</text><polygon fill="#181818" points="1864,1142.3359,1874,1146.3359,1864,1150.3359,1868,1146.3359" style="stroke:#181818;stroke-width:1.0;"/><line style="stroke:#181818;stroke-width:1.0;" x1="1590" x2="1870" y1="1146.3359" y2="1146.3359"/><text fill="#000000" font-family="sans-serif" font-size="13" lengthAdjust="spacing" textLength="262" x="1597" y="1141.4795">SELECT * FROM enderecos WHERE id = $1</text><polygon fill="#181818" points="1601,1172.6875,1591,1176.6875,1601,1180.6875,1597,1176.6875" style="stroke:#181818;stroke-width:1.0;"/><line style="stroke:#181818;stroke-width:1.0;stroke-dasharray:2.0,2.0;" x1="1595" x2="1875" y1="1176.6875" y2="1176.6875"/><text fill="#000000" font-family="sans-serif" font-size="13" lengthAdjust="spacing" textLength="53" x="1607" y="1171.8311">endereco</text><path d="M228.5,1191.6875 L289.5,1191.6875 L289.5,1200.0391 L279.5,1210.0391 L228.5,1210.0391 L228.5,1191.6875 " fill="#EEEEEE" style="stroke:#000000;stroke-width:1.5;"/><rect fill="none" height="123.4063" style="stroke:#000000;stroke-width:1.5;" width="1443" x="228.5" y="1191.6875"/><text fill="#000000" font-family="sans-serif" font-size="13" font-weight="bold" lengthAdjust="spacing" textLength="16" x="243.5" y="1206.1826">alt</text><text fill="#000000" font-family="sans-serif" font-size="11" font-weight="bold" lengthAdjust="spacing" textLength="150" x="304.5" y="1205.1064">[endereco n&#227;o encontrado]</text><polygon fill="#181818" points="1042.5,1228.3906,1032.5,1232.3906,1042.5,1236.3906,1038.5,1232.3906" style="stroke:#181818;stroke-width:1.0;"/><line style="stroke:#181818;stroke-width:1.0;stroke-dasharray:2.0,2.0;" x1="1036.5" x2="1589" y1="1232.3906" y2="1232.3906"/><text fill="#000000" font-family="sans-serif" font-size="13" lengthAdjust="spacing" textLength="20" x="1048.5" y="1227.5342">null</text><polygon fill="#181818" points="681.5,1258.7422,671.5,1262.7422,681.5,1266.7422,677.5,1262.7422" style="stroke:#181818;stroke-width:1.0;"/><line style="stroke:#181818;stroke-width:1.0;" x1="675.5" x2="1020.5" y1="1262.7422" y2="1262.7422"/><text fill="#000000" font-family="sans-serif" font-size="13" lengthAdjust="spacing" textLength="256" x="687.5" y="1257.8857">"lan&#231;a AppError (Endere&#231;o n&#227;o encontrado)"</text><polygon fill="#181818" points="325.5,1289.0938,315.5,1293.0938,325.5,1297.0938,321.5,1293.0938" style="stroke:#181818;stroke-width:1.0;"/><line style="stroke:#181818;stroke-width:1.0;" x1="319.5" x2="669.5" y1="1293.0938" y2="1293.0938"/><text fill="#000000" font-family="sans-serif" font-size="13" lengthAdjust="spacing" textLength="238" x="331.5" y="1288.2373">responde 404 - Endere&#231;o n&#227;o encontrado</text><polygon fill="#181818" points="658.5,1303.0938,668.5,1307.0938,658.5,1311.0938,662.5,1307.0938" style="stroke:#181818;stroke-width:1.0;"/><line style="stroke:#181818;stroke-width:1.0;stroke-dasharray:2.0,2.0;" x1="314.5" x2="664.5" y1="1307.0938" y2="1307.0938"/><polygon fill="#181818" points="1042.5,1340.4453,1032.5,1344.4453,1042.5,1348.4453,1038.5,1344.4453" style="stroke:#181818;stroke-width:1.0;"/><line style="stroke:#181818;stroke-width:1.0;stroke-dasharray:2.0,2.0;" x1="1036.5" x2="1589" y1="1344.4453" y2="1344.4453"/><text fill="#000000" font-family="sans-serif" font-size="13" lengthAdjust="spacing" textLength="121" x="1048.5" y="1339.5889">endereco encontrado</text><polygon fill="#181818" points="1297.5,1370.7969,1307.5,1374.7969,1297.5,1378.7969,1301.5,1374.7969" style="stroke:#181818;stroke-width:1.0;"/><line style="stroke:#181818;stroke-width:1.0;" x1="1031.5" x2="1303.5" y1="1374.7969" y2="1374.7969"/><text fill="#000000" font-family="sans-serif" font-size="13" lengthAdjust="spacing" textLength="254" x="1038.5" y="1369.9404">atualizarEndereco(pedidoId, enderecoId, trx)</text><polygon fill="#181818" points="1864,1401.1484,1874,1405.1484,1864,1409.1484,1868,1405.1484" style="stroke:#181818;stroke-width:1.0;"/><line style="stroke:#181818;stroke-width:1.0;" x1="1309.5" x2="1870" y1="1405.1484" y2="1405.1484"/><text fill="#000000" font-family="sans-serif" font-size="13" lengthAdjust="spacing" textLength="376" x="1316.5" y="1400.292">UPDATE pedidos SET endereco_id = $1 WHERE id_pedido = $2</text><polygon fill="#181818" points="1320.5,1431.5,1310.5,1435.5,1320.5,1439.5,1316.5,1435.5" style="stroke:#181818;stroke-width:1.0;"/><line style="stroke:#181818;stroke-width:1.0;stroke-dasharray:2.0,2.0;" x1="1314.5" x2="1875" y1="1435.5" y2="1435.5"/><text fill="#000000" font-family="sans-serif" font-size="13" lengthAdjust="spacing" textLength="116" x="1326.5" y="1430.6436">endereco atualizado</text><path d="M218.5,1457.5 L279.5,1457.5 L279.5,1465.8516 L269.5,1475.8516 L218.5,1475.8516 L218.5,1457.5 " fill="#EEEEEE" style="stroke:#000000;stroke-width:1.5;"/><rect fill="none" height="216.4609" style="stroke:#000000;stroke-width:1.5;" width="1685.5" x="218.5" y="1457.5"/><text fill="#000000" font-family="sans-serif" font-size="13" font-weight="bold" lengthAdjust="spacing" textLength="16" x="233.5" y="1471.9951">alt</text><text fill="#000000" font-family="sans-serif" font-size="11" font-weight="bold" lengthAdjust="spacing" textLength="215" x="294.5" y="1470.9189">[atualizar status (se status informado)]</text><path d="M228.5,1482.8516 L289.5,1482.8516 L289.5,1491.2031 L279.5,1501.2031 L228.5,1501.2031 L228.5,1482.8516 " fill="#EEEEEE" style="stroke:#000000;stroke-width:1.5;"/><rect fill="none" height="93.0547" style="stroke:#000000;stroke-width:1.5;" width="860.5" x="228.5" y="1482.8516"/><text fill="#000000" font-family="sans-serif" font-size="13" font-weight="bold" lengthAdjust="spacing" textLength="16" x="243.5" y="1497.3467">alt</text><text fill="#000000" font-family="sans-serif" font-size="11" font-weight="bold" lengthAdjust="spacing" textLength="88" x="304.5" y="1496.2705">[status inv&#225;lido]</text><polygon fill="#181818" points="681.5,1519.5547,671.5,1523.5547,681.5,1527.5547,677.5,1523.5547" style="stroke:#181818;stroke-width:1.0;"/><line style="stroke:#181818;stroke-width:1.0;" x1="675.5" x2="1020.5" y1="1523.5547" y2="1523.5547"/><text fill="#000000" font-family="sans-serif" font-size="13" lengthAdjust="spacing" textLength="192" x="687.5" y="1518.6982">"lan&#231;a AppError (Status inv&#225;lido)"</text><polygon fill="#181818" points="325.5,1549.9063,315.5,1553.9063,325.5,1557.9063,321.5,1553.9063" style="stroke:#181818;stroke-width:1.0;"/><line style="stroke:#181818;stroke-width:1.0;" x1="319.5" x2="669.5" y1="1553.9063" y2="1553.9063"/><text fill="#000000" font-family="sans-serif" font-size="13" lengthAdjust="spacing" textLength="174" x="331.5" y="1549.0498">responde 400 - Status inv&#225;lido</text><polygon fill="#181818" points="658.5,1563.9063,668.5,1567.9063,658.5,1571.9063,662.5,1567.9063" style="stroke:#181818;stroke-width:1.0;"/><line style="stroke:#181818;stroke-width:1.0;stroke-dasharray:2.0,2.0;" x1="314.5" x2="664.5" y1="1567.9063" y2="1567.9063"/><polygon fill="#181818" points="1297.5,1601.2578,1307.5,1605.2578,1297.5,1609.2578,1301.5,1605.2578" style="stroke:#181818;stroke-width:1.0;"/><line style="stroke:#181818;stroke-width:1.0;" x1="1031.5" x2="1303.5" y1="1605.2578" y2="1605.2578"/><text fill="#000000" font-family="sans-serif" font-size="13" lengthAdjust="spacing" textLength="210" x="1038.5" y="1600.4014">atualizarStatus(pedidoId, status, trx)</text><polygon fill="#181818" points="1864,1631.6094,1874,1635.6094,1864,1639.6094,1868,1635.6094" style="stroke:#181818;stroke-width:1.0;"/><line style="stroke:#181818;stroke-width:1.0;" x1="1309.5" x2="1870" y1="1635.6094" y2="1635.6094"/><text fill="#000000" font-family="sans-serif" font-size="13" lengthAdjust="spacing" textLength="342" x="1316.5" y="1630.7529">UPDATE pedidos SET status = $1 WHERE id_pedido = $2</text><polygon fill="#181818" points="1320.5,1661.9609,1310.5,1665.9609,1320.5,1669.9609,1316.5,1665.9609" style="stroke:#181818;stroke-width:1.0;"/><line style="stroke:#181818;stroke-width:1.0;stroke-dasharray:2.0,2.0;" x1="1314.5" x2="1875" y1="1665.9609" y2="1665.9609"/><text fill="#000000" font-family="sans-serif" font-size="13" lengthAdjust="spacing" textLength="99" x="1326.5" y="1661.1045">status atualizado</text><polygon fill="#181818" points="1297.5,1699.3125,1307.5,1703.3125,1297.5,1707.3125,1301.5,1703.3125" style="stroke:#181818;stroke-width:1.0;"/><line style="stroke:#181818;stroke-width:1.0;" x1="1031.5" x2="1303.5" y1="1703.3125" y2="1703.3125"/><text fill="#000000" font-family="sans-serif" font-size="13" lengthAdjust="spacing" textLength="137" x="1038.5" y="1698.4561">getPedido(pedidoId, trx)</text><polygon fill="#181818" points="1864,1729.6641,1874,1733.6641,1864,1737.6641,1868,1733.6641" style="stroke:#181818;stroke-width:1.0;"/><line style="stroke:#181818;stroke-width:1.0;" x1="1309.5" x2="1870" y1="1733.6641" y2="1733.6641"/><text fill="#000000" font-family="sans-serif" font-size="13" lengthAdjust="spacing" textLength="292" x="1316.5" y="1728.8076">SELECT * FROM pedidos WHERE id_pedido = $1</text><polygon fill="#181818" points="1320.5,1760.0156,1310.5,1764.0156,1320.5,1768.0156,1316.5,1764.0156" style="stroke:#181818;stroke-width:1.0;"/><line style="stroke:#181818;stroke-width:1.0;stroke-dasharray:2.0,2.0;" x1="1314.5" x2="1875" y1="1764.0156" y2="1764.0156"/><text fill="#000000" font-family="sans-serif" font-size="13" lengthAdjust="spacing" textLength="101" x="1326.5" y="1759.1592">pedido atualizado</text><polygon fill="#181818" points="1297.5,1790.3672,1307.5,1794.3672,1297.5,1798.3672,1301.5,1794.3672" style="stroke:#181818;stroke-width:1.0;"/><line style="stroke:#181818;stroke-width:1.0;" x1="1031.5" x2="1303.5" y1="1794.3672" y2="1794.3672"/><text fill="#000000" font-family="sans-serif" font-size="13" lengthAdjust="spacing" textLength="165" x="1038.5" y="1789.5107">getItensPedido(pedidoId, trx)</text><polygon fill="#181818" points="1864,1820.7188,1874,1824.7188,1864,1828.7188,1868,1824.7188" style="stroke:#181818;stroke-width:1.0;"/><line style="stroke:#181818;stroke-width:1.0;" x1="1309.5" x2="1870" y1="1824.7188" y2="1824.7188"/><text fill="#000000" font-family="sans-serif" font-size="13" lengthAdjust="spacing" textLength="320" x="1316.5" y="1819.8623">SELECT * FROM itens_pedido WHERE id_pedido = $1</text><polygon fill="#181818" points="1320.5,1851.0703,1310.5,1855.0703,1320.5,1859.0703,1316.5,1855.0703" style="stroke:#181818;stroke-width:1.0;"/><line style="stroke:#181818;stroke-width:1.0;stroke-dasharray:2.0,2.0;" x1="1314.5" x2="1875" y1="1855.0703" y2="1855.0703"/><text fill="#000000" font-family="sans-serif" font-size="13" lengthAdjust="spacing" textLength="28" x="1326.5" y="1850.2139">itens</text><polygon fill="#181818" points="681.5,1881.4219,671.5,1885.4219,681.5,1889.4219,677.5,1885.4219" style="stroke:#181818;stroke-width:1.0;"/><line style="stroke:#181818;stroke-width:1.0;" x1="675.5" x2="1025.5" y1="1885.4219" y2="1885.4219"/><text fill="#000000" font-family="sans-serif" font-size="13" lengthAdjust="spacing" textLength="206" x="687.5" y="1880.5654">retorna pedido atualizado com itens</text><polygon fill="#181818" points="325.5,1911.7734,315.5,1915.7734,325.5,1919.7734,321.5,1915.7734" style="stroke:#181818;stroke-width:1.0;"/><line style="stroke:#181818;stroke-width:1.0;" x1="319.5" x2="669.5" y1="1915.7734" y2="1915.7734"/><text fill="#000000" font-family="sans-serif" font-size="13" lengthAdjust="spacing" textLength="191" x="331.5" y="1910.917">responde 200 (pedido atualizado)</text><polygon fill="#181818" points="38.5,1942.125,28.5,1946.125,38.5,1950.125,34.5,1946.125" style="stroke:#181818;stroke-width:1.0;"/><line style="stroke:#181818;stroke-width:1.0;" x1="32.5" x2="313.5" y1="1946.125" y2="1946.125"/><text fill="#000000" font-family="sans-serif" font-size="13" lengthAdjust="spacing" textLength="202" x="44.5" y="1941.2686">retorna dados do pedido atualizado</text><!--SRC=[jLVBRXCn5DtxAwuY5WbAQQbOHGAfJQQY4eyeIM5PcR59BKtigSSJ5H0VWrXK8F4LysFOOy_RIPCKDgDv-BxEEVVQevYAA9eml9HuXO5GcDFRDFlDGuRX23w8T7cZO4736mJe8ahln0W2mXIMCAM44G7zwTK2ZkFy8JaUCJ90b1DGkME4GoKad94LuoZ6Kh6GnPWhwCs4mj0sxG5EO2PIHHkBRQInu4gAAABIyt5EvPg5FhCPZKN2T1PV6X_74QDSqGrV0qwef67Tc625F-64mkGSeRmWE7fbazMGyBN6Ys1T1_GP6KAYi4gJ8L3dw5A_2st8IurGRcRiswMDGDlXY7t5qdxgItex14cJ0MglhUnTzLrZYwq9_crxIl1zW533MUMz0c44IwfQhekygbN6Sd8-Wddm9XWlu2bSpDw_1KSpV7mTp09WvDg-W9Vmv3cQdCEHDvvTf7KKANSFFFifT16XmK43ZW2w2NIHuMaKbKix9TO9w4MOP_SOpk8ua5Ahjp_r1XxqIdzDJfmcD6Unq5Z3YvCNkfMccxANLAMIcwP1Q9TA70mr7rtY3FoCCzF4UWbFS7QluvfkP6kibTTicXpTKZg5AA2lnLu9XF7FGgvCtJfdOs3rP0kAgLmnRR9AYGMFbAPwjLrlytxcpB9VqAEcQuZeWKZDWv9qcT9URd0WK-zCCjgrnY_9_gnfP29JMHKrQBf_YBWJJTo3Fe7JH5zjOSwz8zNS6cBjrQU_pXpAUyozxTT61dIN-XijJL8iMRtJt1lRQW2ksJoH2yeSmsLz7SrwazdOT0UIEVQ7TnJktddZBMMKF3b-TYghmCKpXBOEpxB52dghyLmIFTGDUpVm3ZLBzjLqShO8od4w3nQ6uY8bGx5ln9vMl7VpAeoB_7GzEHpDiM3tZUnUv8EXsaMQaw43GtShpHLUlEvNZenvTxLVv8LLfVAMkdrX2wD2tyMpLnc-JFwrmeCIqiTgVACdhyftgws4vs2TboHNGg-VFlPNUc5zxVZUM-fbJTkrxZOf8tHtksdxOtoT_OYO0_eW5SnRdlOYt-nGSrygRSxtuSqwhB5Md1ttPyp1T11PphPDrK77L9Vx_p-hrjFTCTLBHNdoc7oPSL0akL_IkIb2X6uu6-wWQAqq8JdkrW-XMBa0kuZvL8kvtt5I-rdA_xggUFPtYmWFy7y1]--></g></svg>