<?xml version="1.0" encoding="us-ascii" standalone="no"?><svg xmlns="http://www.w3.org/2000/svg" xmlns:xlink="http://www.w3.org/1999/xlink" contentStyleType="text/css" height="768px" preserveAspectRatio="none" style="width:979px;height:768px;background:#FFFFFF;" version="1.1" viewBox="0 0 979 768" width="979px" zoomAndPan="magnify"><defs/><g><text fill="#000000" font-family="sans-serif" font-size="14" font-weight="bold" lengthAdjust="spacing" textLength="276" x="344.5" y="24.5332">Diagrama de Implanta&#231;&#227;o - Vought Tech</text><!--cluster Cliente--><g id="cluster_Cliente"><polygon fill="#FEF9D8" points="575,54.6094,585,44.6094,878,44.6094,878,165.6094,868,175.6094,575,175.6094,575,54.6094" style="stroke:#333333;stroke-width:1.0;"/><line style="stroke:#333333;stroke-width:1.0;" x1="868" x2="878" y1="54.6094" y2="44.6094"/><line style="stroke:#333333;stroke-width:1.0;" x1="575" x2="868" y1="54.6094" y2="54.6094"/><line style="stroke:#333333;stroke-width:1.0;" x1="868" x2="868" y1="54.6094" y2="175.6094"/><text fill="#000000" font-family="sans-serif" font-size="14" font-weight="bold" lengthAdjust="spacing" textLength="227" x="609" y="72.1426">&#171;device&#187; Dispositivo do Usu&#225;rio</text></g><!--cluster AppServer--><g id="cluster_AppServer"><polygon fill="#FEF9D8" points="367,243.6094,377,233.6094,841,233.6094,841,576.6094,831,586.6094,367,586.6094,367,243.6094" style="stroke:#333333;stroke-width:1.0;"/><line style="stroke:#333333;stroke-width:1.0;" x1="831" x2="841" y1="243.6094" y2="233.6094"/><line style="stroke:#333333;stroke-width:1.0;" x1="367" x2="831" y1="243.6094" y2="243.6094"/><line style="stroke:#333333;stroke-width:1.0;" x1="831" x2="831" y1="243.6094" y2="586.6094"/><text fill="#000000" font-family="sans-serif" font-size="14" font-weight="bold" lengthAdjust="spacing" textLength="338" x="431" y="261.1426">&#171;execution environment&#187; Servidor de Aplica&#231;&#227;o</text></g><!--cluster FrontEnv--><g id="cluster_FrontEnv"><polygon fill="#FEF9D8" points="391,292.6094,401,282.6094,817,282.6094,817,387.6094,807,397.6094,391,397.6094,391,292.6094" style="stroke:#333333;stroke-width:1.0;"/><line style="stroke:#333333;stroke-width:1.0;" x1="807" x2="817" y1="292.6094" y2="282.6094"/><line style="stroke:#333333;stroke-width:1.0;" x1="391" x2="807" y1="292.6094" y2="292.6094"/><line style="stroke:#333333;stroke-width:1.0;" x1="807" x2="807" y1="292.6094" y2="397.6094"/><text fill="#000000" font-family="sans-serif" font-size="14" font-weight="bold" lengthAdjust="spacing" textLength="350" x="425" y="310.1426">&#171;execution environment&#187; Ambiente Frontend Vite</text></g><!--cluster BackEnv--><g id="cluster_BackEnv"><polygon fill="#FEF9D8" points="408,457.6094,418,447.6094,799,447.6094,799,552.6094,789,562.6094,408,562.6094,408,457.6094" style="stroke:#333333;stroke-width:1.0;"/><line style="stroke:#333333;stroke-width:1.0;" x1="789" x2="799" y1="457.6094" y2="447.6094"/><line style="stroke:#333333;stroke-width:1.0;" x1="408" x2="789" y1="457.6094" y2="457.6094"/><line style="stroke:#333333;stroke-width:1.0;" x1="789" x2="789" y1="457.6094" y2="562.6094"/><text fill="#000000" font-family="sans-serif" font-size="14" font-weight="bold" lengthAdjust="spacing" textLength="315" x="442" y="475.1426">&#171;execution environment&#187; Ambiente Backend</text></g><!--cluster DBServer--><g id="cluster_DBServer"><polygon fill="#FEF9D8" points="16,646.6094,26,636.6094,455,636.6094,455,741.6094,445,751.6094,16,751.6094,16,646.6094" style="stroke:#333333;stroke-width:1.0;"/><line style="stroke:#333333;stroke-width:1.0;" x1="445" x2="455" y1="646.6094" y2="636.6094"/><line style="stroke:#333333;stroke-width:1.0;" x1="16" x2="445" y1="646.6094" y2="646.6094"/><line style="stroke:#333333;stroke-width:1.0;" x1="445" x2="445" y1="646.6094" y2="751.6094"/><text fill="#000000" font-family="sans-serif" font-size="14" font-weight="bold" lengthAdjust="spacing" textLength="363" x="50" y="664.1426">&#171;execution environment&#187; Servidor Banco de Dados</text></g><!--cluster SExternos--><g id="cluster_SExternos"><polygon fill="#FEF9D8" points="479,646.6094,489,636.6094,962,636.6094,962,741.6094,952,751.6094,479,751.6094,479,646.6094" style="stroke:#333333;stroke-width:1.0;"/><line style="stroke:#333333;stroke-width:1.0;" x1="952" x2="962" y1="646.6094" y2="636.6094"/><line style="stroke:#333333;stroke-width:1.0;" x1="479" x2="952" y1="646.6094" y2="646.6094"/><line style="stroke:#333333;stroke-width:1.0;" x1="952" x2="952" y1="646.6094" y2="751.6094"/><text fill="#000000" font-family="sans-serif" font-size="14" font-weight="bold" lengthAdjust="spacing" textLength="313" x="560" y="664.1426">&#171;execution environment&#187; Servi&#231;os Externos</text></g><!--entity Navegador--><g id="elem_Navegador"><rect fill="#FFFFEE" height="58.2188" rx="2.5" ry="2.5" style="stroke:#333333;stroke-width:0.5;" width="195" x="648.5" y="93.6094"/><polygon fill="#FFFFEE" points="826.5,98.6094,826.5,112.6094,838.5,112.6094,838.5,104.6094,832.5,98.6094,826.5,98.6094" style="stroke:#333333;stroke-width:0.5;"/><line style="stroke:#333333;stroke-width:0.5;" x1="832.5" x2="832.5" y1="98.6094" y2="104.6094"/><line style="stroke:#333333;stroke-width:0.5;" x1="838.5" x2="832.5" y1="104.6094" y2="104.6094"/><text fill="#000000" font-family="sans-serif" font-size="14" lengthAdjust="spacing" textLength="165" x="658.5" y="121.1426">&#171;artifact&#187; Navegador Web</text><text fill="#000000" font-family="sans-serif" font-size="14" lengthAdjust="spacing" textLength="160" x="661" y="138.752">(Chrome / Firefox / Edge)</text></g><!--entity Frontend--><g id="elem_Frontend"><rect fill="#FFFFEE" height="58.2188" rx="2.5" ry="2.5" style="stroke:#333333;stroke-width:0.5;" width="198" x="504" y="323.6094"/><polygon fill="#FFFFEE" points="685,328.6094,685,342.6094,697,342.6094,697,334.6094,691,328.6094,685,328.6094" style="stroke:#333333;stroke-width:0.5;"/><line style="stroke:#333333;stroke-width:0.5;" x1="691" x2="691" y1="328.6094" y2="334.6094"/><line style="stroke:#333333;stroke-width:0.5;" x1="697" x2="691" y1="334.6094" y2="334.6094"/><text fill="#000000" font-family="sans-serif" font-size="14" lengthAdjust="spacing" textLength="121" x="537.5" y="351.1426">&#171;artifact&#187; Frontend</text><text fill="#000000" font-family="sans-serif" font-size="14" lengthAdjust="spacing" textLength="168" x="514" y="368.752">(React 18.2.0 / JavaScript)</text></g><!--entity Backend--><g id="elem_Backend"><rect fill="#FFFFEE" height="58.2188" rx="2.5" ry="2.5" style="stroke:#333333;stroke-width:0.5;" width="201" x="502.5" y="488.6094"/><polygon fill="#FFFFEE" points="686.5,493.6094,686.5,507.6094,698.5,507.6094,698.5,499.6094,692.5,493.6094,686.5,493.6094" style="stroke:#333333;stroke-width:0.5;"/><line style="stroke:#333333;stroke-width:0.5;" x1="692.5" x2="692.5" y1="493.6094" y2="499.6094"/><line style="stroke:#333333;stroke-width:0.5;" x1="698.5" x2="692.5" y1="499.6094" y2="499.6094"/><text fill="#000000" font-family="sans-serif" font-size="14" lengthAdjust="spacing" textLength="118" x="539" y="516.1426">&#171;artifact&#187; Backend</text><text fill="#000000" font-family="sans-serif" font-size="14" lengthAdjust="spacing" textLength="171" x="512.5" y="533.752">(Node.js 22.21.0 / Express)</text></g><!--entity Postgres--><g id="elem_Postgres"><rect fill="#FFFFEE" height="58.2188" rx="2.5" ry="2.5" style="stroke:#333333;stroke-width:0.5;" width="202" x="237" y="677.6094"/><polygon fill="#FFFFEE" points="422,682.6094,422,696.6094,434,696.6094,434,688.6094,428,682.6094,422,682.6094" style="stroke:#333333;stroke-width:0.5;"/><line style="stroke:#333333;stroke-width:0.5;" x1="428" x2="428" y1="682.6094" y2="688.6094"/><line style="stroke:#333333;stroke-width:0.5;" x1="434" x2="428" y1="688.6094" y2="688.6094"/><text fill="#000000" font-family="sans-serif" font-size="14" lengthAdjust="spacing" textLength="172" x="247" y="705.1426">&#171;artifact&#187; PostgreSQL 17.5</text><text fill="#000000" font-family="sans-serif" font-size="14" lengthAdjust="spacing" textLength="77" x="294.5" y="722.752">(db_vought)</text></g><!--entity SMTP--><g id="elem_SMTP"><rect fill="#FFFFEE" height="40.6094" rx="2.5" ry="2.5" style="stroke:#333333;stroke-width:0.5;" width="216" x="495" y="686.1094"/><polygon fill="#FFFFEE" points="694,691.1094,694,705.1094,706,705.1094,706,697.1094,700,691.1094,694,691.1094" style="stroke:#333333;stroke-width:0.5;"/><line style="stroke:#333333;stroke-width:0.5;" x1="700" x2="700" y1="691.1094" y2="697.1094"/><line style="stroke:#333333;stroke-width:0.5;" x1="706" x2="700" y1="697.1094" y2="697.1094"/><text fill="#000000" font-family="sans-serif" font-size="14" lengthAdjust="spacing" textLength="186" x="505" y="713.6426">&#171;artifact&#187; SMTP (Nodemailer)</text></g><!--entity Storage--><g id="elem_Storage"><rect fill="#FFFFEE" height="58.2188" rx="2.5" ry="2.5" style="stroke:#333333;stroke-width:0.5;" width="200" x="746" y="677.6094"/><polygon fill="#FFFFEE" points="929,682.6094,929,696.6094,941,696.6094,941,688.6094,935,682.6094,929,682.6094" style="stroke:#333333;stroke-width:0.5;"/><line style="stroke:#333333;stroke-width:0.5;" x1="935" x2="935" y1="682.6094" y2="688.6094"/><line style="stroke:#333333;stroke-width:0.5;" x1="941" x2="935" y1="688.6094" y2="688.6094"/><text fill="#000000" font-family="sans-serif" font-size="14" lengthAdjust="spacing" textLength="170" x="756" y="705.1426">&#171;artifact&#187; Storage Imagens</text><text fill="#000000" font-family="sans-serif" font-size="14" lengthAdjust="spacing" textLength="73" x="804.5" y="722.752">(Local / S3)</text></g><!--link Cliente to Frontend--><g id="link_Cliente_Frontend"><path d="M603,176.2095 C603,176.5018 603,176.7949 603,177.0888 C603,178.2642 603,179.4517 603,180.6506 C603,183.0483 603,185.4912 603,187.9732 C603,192.9371 603,198.057 603,203.2831 C603,245.0919 603,287.6944 603,317.5494 " fill="none" id="Cliente-to-Frontend" style="stroke:#181818;stroke-width:1.0;"/><polygon fill="#181818" points="603,323.5494,607,314.5494,603,318.5494,599,314.5494,603,323.5494" style="stroke:#181818;stroke-width:1.0;"/><text fill="#000000" font-family="sans-serif" font-size="13" lengthAdjust="spacing" textLength="99" x="604" y="214.1045">&#171;TCP/IP&#187; (HTTP)</text></g><!--link Frontend to Backend--><g id="link_Frontend_Backend"><path d="M603,381.6294 C603,411.4894 603,452.4894 603,482.4094 " fill="none" id="Frontend-to-Backend" style="stroke:#181818;stroke-width:1.0;"/><polygon fill="#181818" points="603,488.4094,607,479.4094,603,483.4094,599,479.4094,603,488.4094" style="stroke:#181818;stroke-width:1.0;"/><text fill="#000000" font-family="sans-serif" font-size="13" lengthAdjust="spacing" textLength="121" x="604" y="428.1045">&#171;TCP/IP&#187; (API Calls)</text></g><!--link Backend to Postgres--><g id="link_Backend_Postgres"><path d="M502.49,545.8694 C467.33,558.9194 429.34,577.3594 400,602.6094 C376.43,622.8994 361.7366,648.9809 351.5366,671.8209 " fill="none" id="Backend-to-Postgres" style="stroke:#181818;stroke-width:1.0;"/><polygon fill="#181818" points="349.09,677.2994,356.4123,670.7127,351.1288,672.734,349.1076,667.4505,349.09,677.2994" style="stroke:#181818;stroke-width:1.0;"/><text fill="#000000" font-family="sans-serif" font-size="13" lengthAdjust="spacing" textLength="193" x="401" y="617.1045">&#171;TCP/IP&#187; (Conex&#227;o PostgreSQL)</text></g><!--link Backend to SMTP--><g id="link_Backend_SMTP"><path d="M603,547.0094 C603,585.3294 603,646.5894 603,679.8494 " fill="none" id="Backend-to-SMTP" style="stroke:#181818;stroke-width:1.0;"/><polygon fill="#181818" points="603,685.8494,607,676.8494,603,680.8494,599,676.8494,603,685.8494" style="stroke:#181818;stroke-width:1.0;"/><text fill="#000000" font-family="sans-serif" font-size="13" lengthAdjust="spacing" textLength="138" x="604" y="617.1045">&#171;TCP/IP&#187; (Envio SMTP)</text></g><!--link Backend to Storage--><g id="link_Backend_Storage"><path d="M661.85,546.6194 C690.12,561.3894 723.7,580.9294 751,602.6094 C779.01,624.8394 802.3713,650.8651 820.4313,672.9451 " fill="none" id="Backend-to-Storage" style="stroke:#181818;stroke-width:1.0;"/><polygon fill="#181818" points="824.23,677.5894,821.6281,668.0904,821.0644,673.7191,815.4357,673.1554,824.23,677.5894" style="stroke:#181818;stroke-width:1.0;"/><text fill="#000000" font-family="sans-serif" font-size="13" lengthAdjust="spacing" textLength="175" x="772" y="617.1045">&#171;TCP/IP&#187; (Upload / Download)</text></g><!--SRC=[lLNHRjCm57tFLrp10-l3EjOACL2Pb2QkAEgQqcHZ3qZ8IzpKBBKZs-qgeJtni2_W0n0F-v3y6DTfscu55LW1FqIExxadlkSUEuQRZ87FQQheX4B2e3l9CoeCBMwBRnBsuKnEqx61YCLZnz6NNEGKeQ37D95NNAGmefbcTo896z5fPY8sDsx6Kp5Xma2C3wRke8HCM9l6bwcIKv5uCfCA7dT8vuL_j8cIAc6gGZIRpJjXgWmVqTZyI8I3a9yXDyaSvmcyUiZ0FA_N9Vs8F9Z1iUN1erOhOJCUi-DZR8JEfUQ6poGa4axrjFYgk7m4L8ENSIiYV780nx8WcxwS8q6VpbYAdL7mZbsy5tlUMCa9WmFeSCL6SeupagIiLZAkmCxrJZg4P7ZMzOCX-0JSGQ_hkSLDyJdONHSsP_7KS2c0YHbNilGILXaoDUEsI8IvUSRZXLlBejmyjs6cKAXIgL-HkPEBXR0TN3DC97363IkvoXKYPfNcMtHVvgBaGsR3XqVrHlqfols6pcWOAvwRsfeJaINZzHzkqHeTSqiYE_-jlLL9kBK-VgV-KKEZKMySbhiZyrmnhMihnlNETlD4s-rxWJM4x_f1-1-iqAOYbjOGFZfQb_NuxPKJjiWpaDgaYeLlUt3ulFuCPKekFipAMsyXImNGV-EK53T12EGy8iF-FrUbk9KQ6upthgW42PTlsnK9Jw81b6QPK9unjP31hcxDCbBHrFv0y2aqwjYJCStGP66pObWWTjJH2_halFX2GjWZOTJjeSi2E0byqWjg3rTqURlkxwyFCxo4LYlo1WVT0TQtzpgA1ZLd5RJ8wiHi0Dr15poQPRhcB04MlFJH1jgJWitjltPjnFjvPJlkv-2vvx8CR42h7jn7d-QPf0asmfTNmavhpdS0]--></g></svg>