<?xml version="1.0" encoding="us-ascii" standalone="no"?><svg xmlns="http://www.w3.org/2000/svg" xmlns:xlink="http://www.w3.org/1999/xlink" contentStyleType="text/css" height="1248px" preserveAspectRatio="none" style="width:1523px;height:1248px;background:#FFFFFF;" version="1.1" viewBox="0 0 1523 1248" width="1523px" zoomAndPan="magnify"><defs/><g><text fill="#000000" font-family="sans-serif" font-size="14" font-weight="bold" lengthAdjust="spacing" textLength="266" x="629.5" y="29.5332">Diagrama de Sequ&#234;ncia - Vought Tech</text><text fill="#000000" font-family="sans-serif" font-size="14" font-weight="bold" lengthAdjust="spacing" textLength="4" x="760.5" y="47.1426">&#160;</text><text fill="#000000" font-family="sans-serif" font-size="14" font-weight="bold" lengthAdjust="spacing" textLength="323" x="601" y="64.752">Fluxo: Buscar Pedido por ID (GET /pedidos/:id)</text><rect fill="none" height="168.7578" style="stroke:#000000;stroke-width:1.5;" width="814" x="108.5" y="264.4922"/><rect fill="none" height="93.0547" style="stroke:#000000;stroke-width:1.5;" width="735.5" x="118.5" y="333.1953"/><rect fill="none" height="611.0313" style="stroke:#000000;stroke-width:1.5;" width="1506" x="10" y="538.3047"/><line style="stroke:#181818;stroke-width:0.5;stroke-dasharray:5.0,5.0;" x1="42" x2="42" y1="156.4375" y2="1166.3359"/><line style="stroke:#181818;stroke-width:0.5;stroke-dasharray:5.0,5.0;" x1="205.5" x2="205.5" y1="156.4375" y2="1166.3359"/><line style="stroke:#181818;stroke-width:0.5;stroke-dasharray:5.0,5.0;" x1="452.5" x2="452.5" y1="156.4375" y2="1166.3359"/><line style="stroke:#181818;stroke-width:0.5;stroke-dasharray:5.0,5.0;" x1="791" x2="791" y1="156.4375" y2="1166.3359"/><line style="stroke:#181818;stroke-width:0.5;stroke-dasharray:5.0,5.0;" x1="921.5" x2="921.5" y1="156.4375" y2="1166.3359"/><line style="stroke:#181818;stroke-width:0.5;stroke-dasharray:5.0,5.0;" x1="1057.5" x2="1057.5" y1="156.4375" y2="1166.3359"/><line style="stroke:#181818;stroke-width:0.5;stroke-dasharray:5.0,5.0;" x1="1201.5" x2="1201.5" y1="156.4375" y2="1166.3359"/><line style="stroke:#181818;stroke-width:0.5;stroke-dasharray:5.0,5.0;" x1="1488" x2="1488" y1="156.4375" y2="1166.3359"/><text fill="#000000" font-family="sans-serif" font-size="14" lengthAdjust="spacing" textLength="39" x="20" y="153.3613">Admin</text><ellipse cx="42.5" cy="87.3281" fill="#E2E2F0" rx="8" ry="8" style="stroke:#181818;stroke-width:0.5;"/><path d="M42.5,95.3281 L42.5,122.3281 M29.5,103.3281 L55.5,103.3281 M42.5,122.3281 L29.5,137.3281 M42.5,122.3281 L55.5,137.3281 " fill="none" style="stroke:#181818;stroke-width:0.5;"/><text fill="#000000" font-family="sans-serif" font-size="14" lengthAdjust="spacing" textLength="39" x="20" y="1179.8691">Admin</text><ellipse cx="42.5" cy="1191.4453" fill="#E2E2F0" rx="8" ry="8" style="stroke:#181818;stroke-width:0.5;"/><path d="M42.5,1199.4453 L42.5,1226.4453 M29.5,1207.4453 L55.5,1207.4453 M42.5,1226.4453 L29.5,1241.4453 M42.5,1226.4453 L55.5,1241.4453 " fill="none" style="stroke:#181818;stroke-width:0.5;"/><rect fill="#E2E2F0" height="31.6094" rx="2.5" ry="2.5" style="stroke:#181818;stroke-width:0.5;" width="154" x="128.5" y="123.8281"/><text fill="#000000" font-family="sans-serif" font-size="14" lengthAdjust="spacing" textLength="140" x="135.5" y="145.3613">Rota GET /pedidos/:id</text><rect fill="#E2E2F0" height="31.6094" rx="2.5" ry="2.5" style="stroke:#181818;stroke-width:0.5;" width="154" x="128.5" y="1165.3359"/><text fill="#000000" font-family="sans-serif" font-size="14" lengthAdjust="spacing" textLength="140" x="135.5" y="1186.8691">Rota GET /pedidos/:id</text><rect fill="#E2E2F0" height="31.6094" rx="2.5" ry="2.5" style="stroke:#181818;stroke-width:0.5;" width="120" x="392.5" y="123.8281"/><text fill="#000000" font-family="sans-serif" font-size="14" lengthAdjust="spacing" textLength="106" x="399.5" y="145.3613">PedidoController</text><rect fill="#E2E2F0" height="31.6094" rx="2.5" ry="2.5" style="stroke:#181818;stroke-width:0.5;" width="120" x="392.5" y="1165.3359"/><text fill="#000000" font-family="sans-serif" font-size="14" lengthAdjust="spacing" textLength="106" x="399.5" y="1186.8691">PedidoController</text><rect fill="#E2E2F0" height="31.6094" rx="2.5" ry="2.5" style="stroke:#181818;stroke-width:0.5;" width="105" x="739" y="123.8281"/><text fill="#000000" font-family="sans-serif" font-size="14" lengthAdjust="spacing" textLength="91" x="746" y="145.3613">PedidoService</text><rect fill="#E2E2F0" height="31.6094" rx="2.5" ry="2.5" style="stroke:#181818;stroke-width:0.5;" width="105" x="739" y="1165.3359"/><text fill="#000000" font-family="sans-serif" font-size="14" lengthAdjust="spacing" textLength="91" x="746" y="1186.8691">PedidoService</text><rect fill="#E2E2F0" height="31.6094" rx="2.5" ry="2.5" style="stroke:#181818;stroke-width:0.5;" width="126" x="858.5" y="123.8281"/><text fill="#000000" font-family="sans-serif" font-size="14" lengthAdjust="spacing" textLength="112" x="865.5" y="145.3613">PedidoRepository</text><rect fill="#E2E2F0" height="31.6094" rx="2.5" ry="2.5" style="stroke:#181818;stroke-width:0.5;" width="126" x="858.5" y="1165.3359"/><text fill="#000000" font-family="sans-serif" font-size="14" lengthAdjust="spacing" textLength="112" x="865.5" y="1186.8691">PedidoRepository</text><rect fill="#E2E2F0" height="31.6094" rx="2.5" ry="2.5" style="stroke:#181818;stroke-width:0.5;" width="126" x="994.5" y="123.8281"/><text fill="#000000" font-family="sans-serif" font-size="14" lengthAdjust="spacing" textLength="112" x="1001.5" y="145.3613">ClienteRepository</text><rect fill="#E2E2F0" height="31.6094" rx="2.5" ry="2.5" style="stroke:#181818;stroke-width:0.5;" width="126" x="994.5" y="1165.3359"/><text fill="#000000" font-family="sans-serif" font-size="14" lengthAdjust="spacing" textLength="112" x="1001.5" y="1186.8691">ClienteRepository</text><rect fill="#E2E2F0" height="31.6094" rx="2.5" ry="2.5" style="stroke:#181818;stroke-width:0.5;" width="143" x="1130.5" y="123.8281"/><text fill="#000000" font-family="sans-serif" font-size="14" lengthAdjust="spacing" textLength="129" x="1137.5" y="145.3613">EnderecoRepository</text><rect fill="#E2E2F0" height="31.6094" rx="2.5" ry="2.5" style="stroke:#181818;stroke-width:0.5;" width="143" x="1130.5" y="1165.3359"/><text fill="#000000" font-family="sans-serif" font-size="14" lengthAdjust="spacing" textLength="129" x="1137.5" y="1186.8691">EnderecoRepository</text><text fill="#000000" font-family="sans-serif" font-size="14" lengthAdjust="spacing" textLength="19" x="1475.5" y="153.3613">DB</text><path d="M1470,102.8281 C1470,92.8281 1488,92.8281 1488,92.8281 C1488,92.8281 1506,92.8281 1506,102.8281 L1506,128.8281 C1506,138.8281 1488,138.8281 1488,138.8281 C1488,138.8281 1470,138.8281 1470,128.8281 L1470,102.8281 " fill="#E2E2F0" style="stroke:#181818;stroke-width:1.5;"/><path d="M1470,102.8281 C1470,112.8281 1488,112.8281 1488,112.8281 C1488,112.8281 1506,112.8281 1506,102.8281 " fill="none" style="stroke:#181818;stroke-width:1.5;"/><text fill="#000000" font-family="sans-serif" font-size="14" lengthAdjust="spacing" textLength="19" x="1475.5" y="1179.8691">DB</text><path d="M1470,1192.9453 C1470,1182.9453 1488,1182.9453 1488,1182.9453 C1488,1182.9453 1506,1182.9453 1506,1192.9453 L1506,1218.9453 C1506,1228.9453 1488,1228.9453 1488,1228.9453 C1488,1228.9453 1470,1228.9453 1470,1218.9453 L1470,1192.9453 " fill="#E2E2F0" style="stroke:#181818;stroke-width:1.5;"/><path d="M1470,1192.9453 C1470,1202.9453 1488,1202.9453 1488,1202.9453 C1488,1202.9453 1506,1202.9453 1506,1192.9453 " fill="none" style="stroke:#181818;stroke-width:1.5;"/><polygon fill="#181818" points="193.5,184.7891,203.5,188.7891,193.5,192.7891,197.5,188.7891" style="stroke:#181818;stroke-width:1.0;"/><line style="stroke:#181818;stroke-width:1.0;" x1="42.5" x2="199.5" y1="188.7891" y2="188.7891"/><text fill="#000000" font-family="sans-serif" font-size="13" lengthAdjust="spacing" textLength="107" x="49.5" y="183.9326">Solicita pedido (id)</text><polygon fill="#181818" points="440.5,215.1406,450.5,219.1406,440.5,223.1406,444.5,219.1406" style="stroke:#181818;stroke-width:1.0;"/><line style="stroke:#181818;stroke-width:1.0;" x1="205.5" x2="446.5" y1="219.1406" y2="219.1406"/><text fill="#000000" font-family="sans-serif" font-size="13" lengthAdjust="spacing" textLength="110" x="212.5" y="214.2842">getPedido(req, res)</text><polygon fill="#181818" points="779.5,245.4922,789.5,249.4922,779.5,253.4922,783.5,249.4922" style="stroke:#181818;stroke-width:1.0;"/><line style="stroke:#181818;stroke-width:1.0;" x1="452.5" x2="785.5" y1="249.4922" y2="249.4922"/><text fill="#000000" font-family="sans-serif" font-size="13" lengthAdjust="spacing" textLength="76" x="459.5" y="244.6357">getPedido(id)</text><path d="M108.5,264.4922 L169.5,264.4922 L169.5,272.8438 L159.5,282.8438 L108.5,282.8438 L108.5,264.4922 " fill="#EEEEEE" style="stroke:#000000;stroke-width:1.5;"/><rect fill="none" height="168.7578" style="stroke:#000000;stroke-width:1.5;" width="814" x="108.5" y="264.4922"/><text fill="#000000" font-family="sans-serif" font-size="13" font-weight="bold" lengthAdjust="spacing" textLength="16" x="123.5" y="278.9873">alt</text><text fill="#000000" font-family="sans-serif" font-size="11" font-weight="bold" lengthAdjust="spacing" textLength="92" x="184.5" y="277.9111">[valida&#231;&#227;o inicial]</text><line style="stroke:#181818;stroke-width:1.0;" x1="791.5" x2="833.5" y1="305.1953" y2="305.1953"/><line style="stroke:#181818;stroke-width:1.0;" x1="833.5" x2="833.5" y1="305.1953" y2="318.1953"/><line style="stroke:#181818;stroke-width:1.0;" x1="792.5" x2="833.5" y1="318.1953" y2="318.1953"/><polygon fill="#181818" points="802.5,314.1953,792.5,318.1953,802.5,322.1953,798.5,318.1953" style="stroke:#181818;stroke-width:1.0;"/><text fill="#000000" font-family="sans-serif" font-size="13" lengthAdjust="spacing" textLength="112" x="798.5" y="300.3389">verifica se ID existe</text><path d="M118.5,333.1953 L179.5,333.1953 L179.5,341.5469 L169.5,351.5469 L118.5,351.5469 L118.5,333.1953 " fill="#EEEEEE" style="stroke:#000000;stroke-width:1.5;"/><rect fill="none" height="93.0547" style="stroke:#000000;stroke-width:1.5;" width="735.5" x="118.5" y="333.1953"/><text fill="#000000" font-family="sans-serif" font-size="13" font-weight="bold" lengthAdjust="spacing" textLength="16" x="133.5" y="347.6904">alt</text><text fill="#000000" font-family="sans-serif" font-size="11" font-weight="bold" lengthAdjust="spacing" textLength="97" x="194.5" y="346.6143">[ID n&#227;o fornecido]</text><polygon fill="#181818" points="463.5,369.8984,453.5,373.8984,463.5,377.8984,459.5,373.8984" style="stroke:#181818;stroke-width:1.0;"/><line style="stroke:#181818;stroke-width:1.0;" x1="457.5" x2="790.5" y1="373.8984" y2="373.8984"/><text fill="#000000" font-family="sans-serif" font-size="13" lengthAdjust="spacing" textLength="184" x="469.5" y="369.042">"lan&#231;a AppError (ID obrigat&#243;rio)"</text><polygon fill="#181818" points="216.5,400.25,206.5,404.25,216.5,408.25,212.5,404.25" style="stroke:#181818;stroke-width:1.0;"/><line style="stroke:#181818;stroke-width:1.0;" x1="210.5" x2="451.5" y1="404.25" y2="404.25"/><text fill="#000000" font-family="sans-serif" font-size="13" lengthAdjust="spacing" textLength="166" x="222.5" y="399.3936">responde 400 - ID obrigat&#243;rio</text><polygon fill="#181818" points="440.5,414.25,450.5,418.25,440.5,422.25,444.5,418.25" style="stroke:#181818;stroke-width:1.0;"/><line style="stroke:#181818;stroke-width:1.0;stroke-dasharray:2.0,2.0;" x1="205.5" x2="446.5" y1="418.25" y2="418.25"/><polygon fill="#181818" points="909.5,458.6016,919.5,462.6016,909.5,466.6016,913.5,462.6016" style="stroke:#181818;stroke-width:1.0;"/><line style="stroke:#181818;stroke-width:1.0;" x1="791.5" x2="915.5" y1="462.6016" y2="462.6016"/><text fill="#000000" font-family="sans-serif" font-size="13" lengthAdjust="spacing" textLength="76" x="798.5" y="457.7451">getPedido(id)</text><polygon fill="#181818" points="1476,488.9531,1486,492.9531,1476,496.9531,1480,492.9531" style="stroke:#181818;stroke-width:1.0;"/><line style="stroke:#181818;stroke-width:1.0;" x1="921.5" x2="1482" y1="492.9531" y2="492.9531"/><text fill="#000000" font-family="sans-serif" font-size="13" lengthAdjust="spacing" textLength="292" x="928.5" y="488.0967">SELECT * FROM pedidos WHERE id_pedido = $1</text><polygon fill="#181818" points="932.5,519.3047,922.5,523.3047,932.5,527.3047,928.5,523.3047" style="stroke:#181818;stroke-width:1.0;"/><line style="stroke:#181818;stroke-width:1.0;stroke-dasharray:2.0,2.0;" x1="926.5" x2="1487" y1="523.3047" y2="523.3047"/><text fill="#000000" font-family="sans-serif" font-size="13" lengthAdjust="spacing" textLength="38" x="938.5" y="518.4482">pedido</text><path d="M10,538.3047 L71,538.3047 L71,546.6563 L61,556.6563 L10,556.6563 L10,538.3047 " fill="#EEEEEE" style="stroke:#000000;stroke-width:1.5;"/><rect fill="none" height="611.0313" style="stroke:#000000;stroke-width:1.5;" width="1506" x="10" y="538.3047"/><text fill="#000000" font-family="sans-serif" font-size="13" font-weight="bold" lengthAdjust="spacing" textLength="16" x="25" y="552.7998">alt</text><text fill="#000000" font-family="sans-serif" font-size="11" font-weight="bold" lengthAdjust="spacing" textLength="135" x="86" y="551.7236">[pedido n&#227;o encontrado]</text><polygon fill="#181818" points="802.5,575.0078,792.5,579.0078,802.5,583.0078,798.5,579.0078" style="stroke:#181818;stroke-width:1.0;"/><line style="stroke:#181818;stroke-width:1.0;stroke-dasharray:2.0,2.0;" x1="796.5" x2="920.5" y1="579.0078" y2="579.0078"/><text fill="#000000" font-family="sans-serif" font-size="13" lengthAdjust="spacing" textLength="20" x="808.5" y="574.1514">null</text><polygon fill="#181818" points="463.5,605.3594,453.5,609.3594,463.5,613.3594,459.5,609.3594" style="stroke:#181818;stroke-width:1.0;"/><line style="stroke:#181818;stroke-width:1.0;" x1="457.5" x2="790.5" y1="609.3594" y2="609.3594"/><text fill="#000000" font-family="sans-serif" font-size="13" lengthAdjust="spacing" textLength="241" x="469.5" y="604.5029">"lan&#231;a AppError (Pedido n&#227;o encontrado)"</text><polygon fill="#181818" points="216.5,635.7109,206.5,639.7109,216.5,643.7109,212.5,639.7109" style="stroke:#181818;stroke-width:1.0;"/><line style="stroke:#181818;stroke-width:1.0;" x1="210.5" x2="451.5" y1="639.7109" y2="639.7109"/><text fill="#000000" font-family="sans-serif" font-size="13" lengthAdjust="spacing" textLength="223" x="222.5" y="634.8545">responde 404 - Pedido n&#227;o encontrado</text><polygon fill="#181818" points="440.5,649.7109,450.5,653.7109,440.5,657.7109,444.5,653.7109" style="stroke:#181818;stroke-width:1.0;"/><line style="stroke:#181818;stroke-width:1.0;stroke-dasharray:2.0,2.0;" x1="205.5" x2="446.5" y1="653.7109" y2="653.7109"/><line style="stroke:#000000;stroke-width:1.0;stroke-dasharray:2.0,2.0;" x1="10" x2="1516" y1="662.7109" y2="662.7109"/><polygon fill="#181818" points="802.5,682.0625,792.5,686.0625,802.5,690.0625,798.5,686.0625" style="stroke:#181818;stroke-width:1.0;"/><line style="stroke:#181818;stroke-width:1.0;stroke-dasharray:2.0,2.0;" x1="796.5" x2="920.5" y1="686.0625" y2="686.0625"/><text fill="#000000" font-family="sans-serif" font-size="13" lengthAdjust="spacing" textLength="106" x="808.5" y="681.2061">pedido encontrado</text><polygon fill="#181818" points="909.5,712.4141,919.5,716.4141,909.5,720.4141,913.5,716.4141" style="stroke:#181818;stroke-width:1.0;"/><line style="stroke:#181818;stroke-width:1.0;" x1="791.5" x2="915.5" y1="716.4141" y2="716.4141"/><text fill="#000000" font-family="sans-serif" font-size="13" lengthAdjust="spacing" textLength="104" x="798.5" y="711.5576">getItensPedido(id)</text><polygon fill="#181818" points="1476,742.7656,1486,746.7656,1476,750.7656,1480,746.7656" style="stroke:#181818;stroke-width:1.0;"/><line style="stroke:#181818;stroke-width:1.0;" x1="921.5" x2="1482" y1="746.7656" y2="746.7656"/><text fill="#000000" font-family="sans-serif" font-size="13" lengthAdjust="spacing" textLength="320" x="928.5" y="741.9092">SELECT * FROM itens_pedido WHERE id_pedido = $1</text><polygon fill="#181818" points="932.5,773.1172,922.5,777.1172,932.5,781.1172,928.5,777.1172" style="stroke:#181818;stroke-width:1.0;"/><line style="stroke:#181818;stroke-width:1.0;stroke-dasharray:2.0,2.0;" x1="926.5" x2="1487" y1="777.1172" y2="777.1172"/><text fill="#000000" font-family="sans-serif" font-size="13" lengthAdjust="spacing" textLength="28" x="938.5" y="772.2607">itens</text><polygon fill="#181818" points="802.5,803.4688,792.5,807.4688,802.5,811.4688,798.5,807.4688" style="stroke:#181818;stroke-width:1.0;"/><line style="stroke:#181818;stroke-width:1.0;stroke-dasharray:2.0,2.0;" x1="796.5" x2="920.5" y1="807.4688" y2="807.4688"/><text fill="#000000" font-family="sans-serif" font-size="13" lengthAdjust="spacing" textLength="74" x="808.5" y="802.6123">lista de itens</text><polygon fill="#181818" points="1045.5,833.8203,1055.5,837.8203,1045.5,841.8203,1049.5,837.8203" style="stroke:#181818;stroke-width:1.0;"/><line style="stroke:#181818;stroke-width:1.0;" x1="791.5" x2="1051.5" y1="837.8203" y2="837.8203"/><text fill="#000000" font-family="sans-serif" font-size="13" lengthAdjust="spacing" textLength="163" x="798.5" y="832.9639">getCliente(pedido.id_cliente)</text><polygon fill="#181818" points="1476,864.1719,1486,868.1719,1476,872.1719,1480,868.1719" style="stroke:#181818;stroke-width:1.0;"/><line style="stroke:#181818;stroke-width:1.0;" x1="1057.5" x2="1482" y1="868.1719" y2="868.1719"/><text fill="#000000" font-family="sans-serif" font-size="13" lengthAdjust="spacing" textLength="300" x="1064.5" y="863.3154">SELECT * FROM usuarios WHERE id_usuario = $1</text><polygon fill="#181818" points="1068.5,894.5234,1058.5,898.5234,1068.5,902.5234,1064.5,898.5234" style="stroke:#181818;stroke-width:1.0;"/><line style="stroke:#181818;stroke-width:1.0;stroke-dasharray:2.0,2.0;" x1="1062.5" x2="1487" y1="898.5234" y2="898.5234"/><text fill="#000000" font-family="sans-serif" font-size="13" lengthAdjust="spacing" textLength="38" x="1074.5" y="893.667">cliente</text><polygon fill="#181818" points="802.5,924.875,792.5,928.875,802.5,932.875,798.5,928.875" style="stroke:#181818;stroke-width:1.0;"/><line style="stroke:#181818;stroke-width:1.0;stroke-dasharray:2.0,2.0;" x1="796.5" x2="1056.5" y1="928.875" y2="928.875"/><text fill="#000000" font-family="sans-serif" font-size="13" lengthAdjust="spacing" textLength="95" x="808.5" y="924.0186">dados do cliente</text><polygon fill="#181818" points="1190,955.2266,1200,959.2266,1190,963.2266,1194,959.2266" style="stroke:#181818;stroke-width:1.0;"/><line style="stroke:#181818;stroke-width:1.0;" x1="791.5" x2="1196" y1="959.2266" y2="959.2266"/><text fill="#000000" font-family="sans-serif" font-size="13" lengthAdjust="spacing" textLength="193" x="798.5" y="954.3701">getEndereco(pedido.endereco_id)</text><polygon fill="#181818" points="1476,985.5781,1486,989.5781,1476,993.5781,1480,989.5781" style="stroke:#181818;stroke-width:1.0;"/><line style="stroke:#181818;stroke-width:1.0;" x1="1202" x2="1482" y1="989.5781" y2="989.5781"/><text fill="#000000" font-family="sans-serif" font-size="13" lengthAdjust="spacing" textLength="262" x="1209" y="984.7217">SELECT * FROM enderecos WHERE id = $1</text><polygon fill="#181818" points="1213,1015.9297,1203,1019.9297,1213,1023.9297,1209,1019.9297" style="stroke:#181818;stroke-width:1.0;"/><line style="stroke:#181818;stroke-width:1.0;stroke-dasharray:2.0,2.0;" x1="1207" x2="1487" y1="1019.9297" y2="1019.9297"/><text fill="#000000" font-family="sans-serif" font-size="13" lengthAdjust="spacing" textLength="53" x="1219" y="1015.0732">endereco</text><polygon fill="#181818" points="802.5,1046.2813,792.5,1050.2813,802.5,1054.2813,798.5,1050.2813" style="stroke:#181818;stroke-width:1.0;"/><line style="stroke:#181818;stroke-width:1.0;stroke-dasharray:2.0,2.0;" x1="796.5" x2="1201" y1="1050.2813" y2="1050.2813"/><text fill="#000000" font-family="sans-serif" font-size="13" lengthAdjust="spacing" textLength="110" x="808.5" y="1045.4248">dados do endere&#231;o</text><polygon fill="#181818" points="463.5,1076.6328,453.5,1080.6328,463.5,1084.6328,459.5,1080.6328" style="stroke:#181818;stroke-width:1.0;"/><line style="stroke:#181818;stroke-width:1.0;" x1="457.5" x2="790.5" y1="1080.6328" y2="1080.6328"/><text fill="#000000" font-family="sans-serif" font-size="13" lengthAdjust="spacing" textLength="315" x="469.5" y="1075.7764">retorna pedido completo (com itens, cliente, endereco)</text><polygon fill="#181818" points="216.5,1106.9844,206.5,1110.9844,216.5,1114.9844,212.5,1110.9844" style="stroke:#181818;stroke-width:1.0;"/><line style="stroke:#181818;stroke-width:1.0;" x1="210.5" x2="451.5" y1="1110.9844" y2="1110.9844"/><text fill="#000000" font-family="sans-serif" font-size="13" lengthAdjust="spacing" textLength="185" x="222.5" y="1106.1279">responde 200 (pedido completo)</text><polygon fill="#181818" points="53.5,1137.3359,43.5,1141.3359,53.5,1145.3359,49.5,1141.3359" style="stroke:#181818;stroke-width:1.0;"/><line style="stroke:#181818;stroke-width:1.0;" x1="47.5" x2="204.5" y1="1141.3359" y2="1141.3359"/><text fill="#000000" font-family="sans-serif" font-size="13" lengthAdjust="spacing" textLength="139" x="59.5" y="1136.4795">retorna dados do pedido</text><!--SRC=[ZLNBRjim4BppAnP63t9XDscHau4MY6sb3T2YXcsqnu2HDWu1cbGeoaY_fmS3lVOJ_6DPKf8V4cKOy45USdPtPiYb5LOYcmg-CdpD8KLOu4kn-wSImM48ltInUhQmnEIP0RkJnQiUmRZ84svWXgb8DMJQmFqKeg_n4guo7yklHYBjCrGfM9-VySJIjjjqBHJBkB4Y4HbN5dfpRJaqeJtWESnrOV5aSrbmefKrMaeqWSK5cer8Gh0vPZeNrCMVayM95AWiTgp6AaM3oJ4uvPO_yXnXEcRC4uBXbxBP4Ioq92WnAib0v6JmQsvJi_yHhD2MmSZWom0CvdtMt7L0LkIEOIu_uzB2XakHyjrszrU3KDG4bmnESO546pJYIIGSY0zvYAyY9yq1wEUIKaYvX4_QA4m8IF7EfCUyUfAhtPR3RPR5nf3p4QNIZqQikDtzDqBtUqUfJhbMKf8McIRvuURwcWvY0-_H1crX57tIGNE7ZR6ErWxsDRLhhZlCT4n6nj_ZoHBUmztyvu_ApHn-VuldCOZqeRBtCxpxoAPZ60OhbPjAUog0LnDLuWXpBsUxWRPBgf1dp3ol-onOsCj_cVWt9Fwig_lA0PGvNiYb4k8aIpUtXd7t5bL-v5wePCW_uN2rQK4J0JfjzE0BsKcwFtw8bg0GiTR0ySogQ5Jsz86wIyg88zc2X5aMUS7fQXmTqohIe1Zee2eMhjMccN9t6qYx6XSYsfwTdcaThgbYzV-XDBID2fEjOGUs3PQXyZMeeyuPeYLojzNiiej85uDcvluTIFGwanI2YBxAmp6enHlis-fVU2a_qKIC6faTTl_G-6VfqCIUHJMHtAXy0m00]--></g></svg>