<?xml version="1.0" encoding="us-ascii" standalone="no"?><svg xmlns="http://www.w3.org/2000/svg" xmlns:xlink="http://www.w3.org/1999/xlink" contentStyleType="text/css" height="1221px" preserveAspectRatio="none" style="width:1796px;height:1221px;background:#FFFFFF;" version="1.1" viewBox="0 0 1796 1221" width="1796px" zoomAndPan="magnify"><defs/><g><text fill="#000000" font-family="sans-serif" font-size="14" font-weight="bold" lengthAdjust="spacing" textLength="266" x="766.25" y="29.5332">Diagrama de Sequ&#234;ncia - Vought Tech</text><text fill="#000000" font-family="sans-serif" font-size="14" font-weight="bold" lengthAdjust="spacing" textLength="4" x="897.25" y="47.1426">&#160;</text><text fill="#000000" font-family="sans-serif" font-size="14" font-weight="bold" lengthAdjust="spacing" textLength="340" x="729.25" y="64.752">Fluxo: Deletar Categoria (DELETE /categorias/:id)</text><rect fill="none" height="125.4063" style="stroke:#000000;stroke-width:1.5;" width="1121" x="93" y="264.4922"/><rect fill="none" height="93.0547" style="stroke:#000000;stroke-width:1.5;" width="1101" x="103" y="289.8438"/><rect fill="none" height="123.4063" style="stroke:#000000;stroke-width:1.5;" width="1256.5" x="103" y="494.9531"/><rect fill="none" height="368.2188" style="stroke:#000000;stroke-width:1.5;" width="1779.5" x="10" y="753.7656"/><line style="stroke:#181818;stroke-width:0.5;stroke-dasharray:5.0,5.0;" x1="42" x2="42" y1="156.4375" y2="1138.9844"/><line style="stroke:#181818;stroke-width:0.5;stroke-dasharray:5.0,5.0;" x1="210" x2="210" y1="156.4375" y2="1138.9844"/><line style="stroke:#181818;stroke-width:0.5;stroke-dasharray:5.0,5.0;" x1="742.5" x2="742.5" y1="156.4375" y2="1138.9844"/><line style="stroke:#181818;stroke-width:0.5;stroke-dasharray:5.0,5.0;" x1="1132" x2="1132" y1="156.4375" y2="1138.9844"/><line style="stroke:#181818;stroke-width:0.5;stroke-dasharray:5.0,5.0;" x1="1277.5" x2="1277.5" y1="156.4375" y2="1138.9844"/><line style="stroke:#181818;stroke-width:0.5;stroke-dasharray:5.0,5.0;" x1="1425.5" x2="1425.5" y1="156.4375" y2="1138.9844"/><line style="stroke:#181818;stroke-width:0.5;stroke-dasharray:5.0,5.0;" x1="1761.5" x2="1761.5" y1="156.4375" y2="1138.9844"/><text fill="#000000" font-family="sans-serif" font-size="14" lengthAdjust="spacing" textLength="39" x="20" y="153.3613">Admin</text><ellipse cx="42.5" cy="87.3281" fill="#E2E2F0" rx="8" ry="8" style="stroke:#181818;stroke-width:0.5;"/><path d="M42.5,95.3281 L42.5,122.3281 M29.5,103.3281 L55.5,103.3281 M42.5,122.3281 L29.5,137.3281 M42.5,122.3281 L55.5,137.3281 " fill="none" style="stroke:#181818;stroke-width:0.5;"/><text fill="#000000" font-family="sans-serif" font-size="14" lengthAdjust="spacing" textLength="39" x="20" y="1152.5176">Admin</text><ellipse cx="42.5" cy="1164.0938" fill="#E2E2F0" rx="8" ry="8" style="stroke:#181818;stroke-width:0.5;"/><path d="M42.5,1172.0938 L42.5,1199.0938 M29.5,1180.0938 L55.5,1180.0938 M42.5,1199.0938 L29.5,1214.0938 M42.5,1199.0938 L55.5,1214.0938 " fill="none" style="stroke:#181818;stroke-width:0.5;"/><rect fill="#E2E2F0" height="31.6094" rx="2.5" ry="2.5" style="stroke:#181818;stroke-width:0.5;" width="195" x="113" y="123.8281"/><text fill="#000000" font-family="sans-serif" font-size="14" lengthAdjust="spacing" textLength="181" x="120" y="145.3613">Rota DELETE /categorias/:id</text><rect fill="#E2E2F0" height="31.6094" rx="2.5" ry="2.5" style="stroke:#181818;stroke-width:0.5;" width="195" x="113" y="1137.9844"/><text fill="#000000" font-family="sans-serif" font-size="14" lengthAdjust="spacing" textLength="181" x="120" y="1159.5176">Rota DELETE /categorias/:id</text><rect fill="#E2E2F0" height="31.6094" rx="2.5" ry="2.5" style="stroke:#181818;stroke-width:0.5;" width="138" x="673.5" y="123.8281"/><text fill="#000000" font-family="sans-serif" font-size="14" lengthAdjust="spacing" textLength="124" x="680.5" y="145.3613">CategoriaController</text><rect fill="#E2E2F0" height="31.6094" rx="2.5" ry="2.5" style="stroke:#181818;stroke-width:0.5;" width="138" x="673.5" y="1137.9844"/><text fill="#000000" font-family="sans-serif" font-size="14" lengthAdjust="spacing" textLength="124" x="680.5" y="1159.5176">CategoriaController</text><rect fill="#E2E2F0" height="31.6094" rx="2.5" ry="2.5" style="stroke:#181818;stroke-width:0.5;" width="123" x="1071" y="123.8281"/><text fill="#000000" font-family="sans-serif" font-size="14" lengthAdjust="spacing" textLength="109" x="1078" y="145.3613">CategoriaService</text><rect fill="#E2E2F0" height="31.6094" rx="2.5" ry="2.5" style="stroke:#181818;stroke-width:0.5;" width="123" x="1071" y="1137.9844"/><text fill="#000000" font-family="sans-serif" font-size="14" lengthAdjust="spacing" textLength="109" x="1078" y="1159.5176">CategoriaService</text><rect fill="#E2E2F0" height="31.6094" rx="2.5" ry="2.5" style="stroke:#181818;stroke-width:0.5;" width="144" x="1205.5" y="123.8281"/><text fill="#000000" font-family="sans-serif" font-size="14" lengthAdjust="spacing" textLength="130" x="1212.5" y="145.3613">CategoriaRepository</text><rect fill="#E2E2F0" height="31.6094" rx="2.5" ry="2.5" style="stroke:#181818;stroke-width:0.5;" width="144" x="1205.5" y="1137.9844"/><text fill="#000000" font-family="sans-serif" font-size="14" lengthAdjust="spacing" textLength="130" x="1212.5" y="1159.5176">CategoriaRepository</text><rect fill="#E2E2F0" height="31.6094" rx="2.5" ry="2.5" style="stroke:#181818;stroke-width:0.5;" width="132" x="1359.5" y="123.8281"/><text fill="#000000" font-family="sans-serif" font-size="14" lengthAdjust="spacing" textLength="118" x="1366.5" y="145.3613">ProdutoRepository</text><rect fill="#E2E2F0" height="31.6094" rx="2.5" ry="2.5" style="stroke:#181818;stroke-width:0.5;" width="132" x="1359.5" y="1137.9844"/><text fill="#000000" font-family="sans-serif" font-size="14" lengthAdjust="spacing" textLength="118" x="1366.5" y="1159.5176">ProdutoRepository</text><text fill="#000000" font-family="sans-serif" font-size="14" lengthAdjust="spacing" textLength="19" x="1749" y="153.3613">DB</text><path d="M1743.5,102.8281 C1743.5,92.8281 1761.5,92.8281 1761.5,92.8281 C1761.5,92.8281 1779.5,92.8281 1779.5,102.8281 L1779.5,128.8281 C1779.5,138.8281 1761.5,138.8281 1761.5,138.8281 C1761.5,138.8281 1743.5,138.8281 1743.5,128.8281 L1743.5,102.8281 " fill="#E2E2F0" style="stroke:#181818;stroke-width:1.5;"/><path d="M1743.5,102.8281 C1743.5,112.8281 1761.5,112.8281 1761.5,112.8281 C1761.5,112.8281 1779.5,112.8281 1779.5,102.8281 " fill="none" style="stroke:#181818;stroke-width:1.5;"/><text fill="#000000" font-family="sans-serif" font-size="14" lengthAdjust="spacing" textLength="19" x="1749" y="1152.5176">DB</text><path d="M1743.5,1165.5938 C1743.5,1155.5938 1761.5,1155.5938 1761.5,1155.5938 C1761.5,1155.5938 1779.5,1155.5938 1779.5,1165.5938 L1779.5,1191.5938 C1779.5,1201.5938 1761.5,1201.5938 1761.5,1201.5938 C1761.5,1201.5938 1743.5,1201.5938 1743.5,1191.5938 L1743.5,1165.5938 " fill="#E2E2F0" style="stroke:#181818;stroke-width:1.5;"/><path d="M1743.5,1165.5938 C1743.5,1175.5938 1761.5,1175.5938 1761.5,1175.5938 C1761.5,1175.5938 1779.5,1175.5938 1779.5,1165.5938 " fill="none" style="stroke:#181818;stroke-width:1.5;"/><polygon fill="#181818" points="198.5,184.7891,208.5,188.7891,198.5,192.7891,202.5,188.7891" style="stroke:#181818;stroke-width:1.0;"/><line style="stroke:#181818;stroke-width:1.0;" x1="42.5" x2="204.5" y1="188.7891" y2="188.7891"/><text fill="#000000" font-family="sans-serif" font-size="13" lengthAdjust="spacing" textLength="121" x="49.5" y="183.9326">Solicita exclus&#227;o (id)</text><polygon fill="#181818" points="730.5,215.1406,740.5,219.1406,730.5,223.1406,734.5,219.1406" style="stroke:#181818;stroke-width:1.0;"/><line style="stroke:#181818;stroke-width:1.0;" x1="210.5" x2="736.5" y1="219.1406" y2="219.1406"/><text fill="#000000" font-family="sans-serif" font-size="13" lengthAdjust="spacing" textLength="142" x="217.5" y="214.2842">deleteCategoria(req, res)</text><polygon fill="#181818" points="1120.5,245.4922,1130.5,249.4922,1120.5,253.4922,1124.5,249.4922" style="stroke:#181818;stroke-width:1.0;"/><line style="stroke:#181818;stroke-width:1.0;" x1="742.5" x2="1126.5" y1="249.4922" y2="249.4922"/><text fill="#000000" font-family="sans-serif" font-size="13" lengthAdjust="spacing" textLength="108" x="749.5" y="244.6357">deleteCategoria(id)</text><path d="M93,264.4922 L154,264.4922 L154,272.8438 L144,282.8438 L93,282.8438 L93,264.4922 " fill="#EEEEEE" style="stroke:#000000;stroke-width:1.5;"/><rect fill="none" height="125.4063" style="stroke:#000000;stroke-width:1.5;" width="1121" x="93" y="264.4922"/><text fill="#000000" font-family="sans-serif" font-size="13" font-weight="bold" lengthAdjust="spacing" textLength="16" x="108" y="278.9873">alt</text><text fill="#000000" font-family="sans-serif" font-size="11" font-weight="bold" lengthAdjust="spacing" textLength="92" x="169" y="277.9111">[valida&#231;&#227;o inicial]</text><path d="M103,289.8438 L164,289.8438 L164,298.1953 L154,308.1953 L103,308.1953 L103,289.8438 " fill="#EEEEEE" style="stroke:#000000;stroke-width:1.5;"/><rect fill="none" height="93.0547" style="stroke:#000000;stroke-width:1.5;" width="1101" x="103" y="289.8438"/><text fill="#000000" font-family="sans-serif" font-size="13" font-weight="bold" lengthAdjust="spacing" textLength="16" x="118" y="304.3389">alt</text><text fill="#000000" font-family="sans-serif" font-size="11" font-weight="bold" lengthAdjust="spacing" textLength="97" x="179" y="303.2627">[ID n&#227;o fornecido]</text><polygon fill="#181818" points="753.5,326.5469,743.5,330.5469,753.5,334.5469,749.5,330.5469" style="stroke:#181818;stroke-width:1.0;"/><line style="stroke:#181818;stroke-width:1.0;" x1="747.5" x2="1131.5" y1="330.5469" y2="330.5469"/><text fill="#000000" font-family="sans-serif" font-size="13" lengthAdjust="spacing" textLength="184" x="759.5" y="325.6904">"lan&#231;a AppError (ID obrigat&#243;rio)"</text><polygon fill="#181818" points="221.5,356.8984,211.5,360.8984,221.5,364.8984,217.5,360.8984" style="stroke:#181818;stroke-width:1.0;"/><line style="stroke:#181818;stroke-width:1.0;" x1="215.5" x2="741.5" y1="360.8984" y2="360.8984"/><text fill="#000000" font-family="sans-serif" font-size="13" lengthAdjust="spacing" textLength="166" x="227.5" y="356.042">responde 400 - ID obrigat&#243;rio</text><polygon fill="#181818" points="730.5,370.8984,740.5,374.8984,730.5,378.8984,734.5,374.8984" style="stroke:#181818;stroke-width:1.0;"/><line style="stroke:#181818;stroke-width:1.0;stroke-dasharray:2.0,2.0;" x1="210.5" x2="736.5" y1="374.8984" y2="374.8984"/><polygon fill="#181818" points="1265.5,415.25,1275.5,419.25,1265.5,423.25,1269.5,419.25" style="stroke:#181818;stroke-width:1.0;"/><line style="stroke:#181818;stroke-width:1.0;" x1="1132.5" x2="1271.5" y1="419.25" y2="419.25"/><text fill="#000000" font-family="sans-serif" font-size="13" lengthAdjust="spacing" textLength="91" x="1139.5" y="414.3936">getCategoria(id)</text><polygon fill="#181818" points="1749.5,445.6016,1759.5,449.6016,1749.5,453.6016,1753.5,449.6016" style="stroke:#181818;stroke-width:1.0;"/><line style="stroke:#181818;stroke-width:1.0;" x1="1277.5" x2="1755.5" y1="449.6016" y2="449.6016"/><text fill="#000000" font-family="sans-serif" font-size="13" lengthAdjust="spacing" textLength="427" x="1284.5" y="444.7451">SELECT id_categoria, nome FROM categorias WHERE id_categoria = $1</text><polygon fill="#181818" points="1288.5,475.9531,1278.5,479.9531,1288.5,483.9531,1284.5,479.9531" style="stroke:#181818;stroke-width:1.0;"/><line style="stroke:#181818;stroke-width:1.0;stroke-dasharray:2.0,2.0;" x1="1282.5" x2="1760.5" y1="479.9531" y2="479.9531"/><text fill="#000000" font-family="sans-serif" font-size="13" lengthAdjust="spacing" textLength="53" x="1294.5" y="475.0967">categoria</text><path d="M103,494.9531 L164,494.9531 L164,503.3047 L154,513.3047 L103,513.3047 L103,494.9531 " fill="#EEEEEE" style="stroke:#000000;stroke-width:1.5;"/><rect fill="none" height="123.4063" style="stroke:#000000;stroke-width:1.5;" width="1256.5" x="103" y="494.9531"/><text fill="#000000" font-family="sans-serif" font-size="13" font-weight="bold" lengthAdjust="spacing" textLength="16" x="118" y="509.4482">alt</text><text fill="#000000" font-family="sans-serif" font-size="11" font-weight="bold" lengthAdjust="spacing" textLength="147" x="179" y="508.3721">[categoria n&#227;o encontrada]</text><polygon fill="#181818" points="1143.5,531.6563,1133.5,535.6563,1143.5,539.6563,1139.5,535.6563" style="stroke:#181818;stroke-width:1.0;"/><line style="stroke:#181818;stroke-width:1.0;stroke-dasharray:2.0,2.0;" x1="1137.5" x2="1276.5" y1="535.6563" y2="535.6563"/><text fill="#000000" font-family="sans-serif" font-size="13" lengthAdjust="spacing" textLength="20" x="1149.5" y="530.7998">null</text><polygon fill="#181818" points="753.5,562.0078,743.5,566.0078,753.5,570.0078,749.5,566.0078" style="stroke:#181818;stroke-width:1.0;"/><line style="stroke:#181818;stroke-width:1.0;" x1="747.5" x2="1131.5" y1="566.0078" y2="566.0078"/><text fill="#000000" font-family="sans-serif" font-size="13" lengthAdjust="spacing" textLength="256" x="759.5" y="561.1514">"lan&#231;a AppError (Categoria n&#227;o encontrada)"</text><polygon fill="#181818" points="221.5,592.3594,211.5,596.3594,221.5,600.3594,217.5,596.3594" style="stroke:#181818;stroke-width:1.0;"/><line style="stroke:#181818;stroke-width:1.0;" x1="215.5" x2="741.5" y1="596.3594" y2="596.3594"/><text fill="#000000" font-family="sans-serif" font-size="13" lengthAdjust="spacing" textLength="238" x="227.5" y="591.5029">responde 404 - Categoria n&#227;o encontrada</text><polygon fill="#181818" points="730.5,606.3594,740.5,610.3594,730.5,614.3594,734.5,610.3594" style="stroke:#181818;stroke-width:1.0;"/><line style="stroke:#181818;stroke-width:1.0;stroke-dasharray:2.0,2.0;" x1="210.5" x2="736.5" y1="610.3594" y2="610.3594"/><polygon fill="#181818" points="1143.5,643.7109,1133.5,647.7109,1143.5,651.7109,1139.5,647.7109" style="stroke:#181818;stroke-width:1.0;"/><line style="stroke:#181818;stroke-width:1.0;stroke-dasharray:2.0,2.0;" x1="1137.5" x2="1276.5" y1="647.7109" y2="647.7109"/><text fill="#000000" font-family="sans-serif" font-size="13" lengthAdjust="spacing" textLength="121" x="1149.5" y="642.8545">categoria encontrada</text><polygon fill="#181818" points="1413.5,674.0625,1423.5,678.0625,1413.5,682.0625,1417.5,678.0625" style="stroke:#181818;stroke-width:1.0;"/><line style="stroke:#181818;stroke-width:1.0;" x1="1132.5" x2="1419.5" y1="678.0625" y2="678.0625"/><text fill="#000000" font-family="sans-serif" font-size="13" lengthAdjust="spacing" textLength="159" x="1139.5" y="673.2061">getProdutosByCategoria(id)</text><polygon fill="#181818" points="1749.5,704.4141,1759.5,708.4141,1749.5,712.4141,1753.5,708.4141" style="stroke:#181818;stroke-width:1.0;"/><line style="stroke:#181818;stroke-width:1.0;" x1="1425.5" x2="1755.5" y1="708.4141" y2="708.4141"/><text fill="#000000" font-family="sans-serif" font-size="13" lengthAdjust="spacing" textLength="312" x="1432.5" y="703.5576">SELECT * FROM produtos WHERE id_categoria = $1</text><polygon fill="#181818" points="1436.5,734.7656,1426.5,738.7656,1436.5,742.7656,1432.5,738.7656" style="stroke:#181818;stroke-width:1.0;"/><line style="stroke:#181818;stroke-width:1.0;stroke-dasharray:2.0,2.0;" x1="1430.5" x2="1760.5" y1="738.7656" y2="738.7656"/><text fill="#000000" font-family="sans-serif" font-size="13" lengthAdjust="spacing" textLength="114" x="1442.5" y="733.9092">produtos vinculados</text><path d="M10,753.7656 L71,753.7656 L71,762.1172 L61,772.1172 L10,772.1172 L10,753.7656 " fill="#EEEEEE" style="stroke:#000000;stroke-width:1.5;"/><rect fill="none" height="368.2188" style="stroke:#000000;stroke-width:1.5;" width="1779.5" x="10" y="753.7656"/><text fill="#000000" font-family="sans-serif" font-size="13" font-weight="bold" lengthAdjust="spacing" textLength="16" x="25" y="768.2607">alt</text><text fill="#000000" font-family="sans-serif" font-size="11" font-weight="bold" lengthAdjust="spacing" textLength="216" x="86" y="767.1846">[categoria possui produtos vinculados]</text><polygon fill="#181818" points="1143.5,790.4688,1133.5,794.4688,1143.5,798.4688,1139.5,794.4688" style="stroke:#181818;stroke-width:1.0;"/><line style="stroke:#181818;stroke-width:1.0;stroke-dasharray:2.0,2.0;" x1="1137.5" x2="1424.5" y1="794.4688" y2="794.4688"/><text fill="#000000" font-family="sans-serif" font-size="13" lengthAdjust="spacing" textLength="177" x="1149.5" y="789.6123">lista com produtos (length &gt; 0)</text><polygon fill="#181818" points="753.5,820.8203,743.5,824.8203,753.5,828.8203,749.5,824.8203" style="stroke:#181818;stroke-width:1.0;"/><line style="stroke:#181818;stroke-width:1.0;" x1="747.5" x2="1131.5" y1="824.8203" y2="824.8203"/><text fill="#000000" font-family="sans-serif" font-size="13" lengthAdjust="spacing" textLength="366" x="759.5" y="819.9639">"lan&#231;a AppError (N&#227;o &#233; poss&#237;vel excluir - produtos associados)"</text><polygon fill="#181818" points="221.5,851.1719,211.5,855.1719,221.5,859.1719,217.5,855.1719" style="stroke:#181818;stroke-width:1.0;"/><line style="stroke:#181818;stroke-width:1.0;" x1="215.5" x2="741.5" y1="855.1719" y2="855.1719"/><text fill="#000000" font-family="sans-serif" font-size="13" lengthAdjust="spacing" textLength="508" x="227.5" y="850.3154">responde 400 - N&#227;o &#233; poss&#237;vel excluir esta categoria pois ela est&#225; associada a produtos</text><polygon fill="#181818" points="730.5,865.1719,740.5,869.1719,730.5,873.1719,734.5,869.1719" style="stroke:#181818;stroke-width:1.0;"/><line style="stroke:#181818;stroke-width:1.0;stroke-dasharray:2.0,2.0;" x1="210.5" x2="736.5" y1="869.1719" y2="869.1719"/><line style="stroke:#000000;stroke-width:1.0;stroke-dasharray:2.0,2.0;" x1="10" x2="1789.5" y1="878.1719" y2="878.1719"/><polygon fill="#181818" points="1143.5,897.5234,1133.5,901.5234,1143.5,905.5234,1139.5,901.5234" style="stroke:#181818;stroke-width:1.0;"/><line style="stroke:#181818;stroke-width:1.0;stroke-dasharray:2.0,2.0;" x1="1137.5" x2="1424.5" y1="901.5234" y2="901.5234"/><text fill="#000000" font-family="sans-serif" font-size="13" lengthAdjust="spacing" textLength="127" x="1149.5" y="896.667">lista vazia (length = 0)</text><polygon fill="#181818" points="1265.5,927.875,1275.5,931.875,1265.5,935.875,1269.5,931.875" style="stroke:#181818;stroke-width:1.0;"/><line style="stroke:#181818;stroke-width:1.0;" x1="1132.5" x2="1271.5" y1="931.875" y2="931.875"/><text fill="#000000" font-family="sans-serif" font-size="13" lengthAdjust="spacing" textLength="108" x="1139.5" y="927.0186">deleteCategoria(id)</text><polygon fill="#181818" points="1749.5,958.2266,1759.5,962.2266,1749.5,966.2266,1753.5,962.2266" style="stroke:#181818;stroke-width:1.0;"/><line style="stroke:#181818;stroke-width:1.0;" x1="1277.5" x2="1755.5" y1="962.2266" y2="962.2266"/><text fill="#000000" font-family="sans-serif" font-size="13" lengthAdjust="spacing" textLength="400" x="1284.5" y="957.3701">DELETE FROM categorias WHERE id_categoria = $1 RETURNING *</text><polygon fill="#181818" points="1288.5,988.5781,1278.5,992.5781,1288.5,996.5781,1284.5,992.5781" style="stroke:#181818;stroke-width:1.0;"/><line style="stroke:#181818;stroke-width:1.0;stroke-dasharray:2.0,2.0;" x1="1282.5" x2="1760.5" y1="992.5781" y2="992.5781"/><text fill="#000000" font-family="sans-serif" font-size="13" lengthAdjust="spacing" textLength="106" x="1294.5" y="987.7217">categoria deletada</text><polygon fill="#181818" points="1143.5,1018.9297,1133.5,1022.9297,1143.5,1026.9297,1139.5,1022.9297" style="stroke:#181818;stroke-width:1.0;"/><line style="stroke:#181818;stroke-width:1.0;stroke-dasharray:2.0,2.0;" x1="1137.5" x2="1276.5" y1="1022.9297" y2="1022.9297"/><text fill="#000000" font-family="sans-serif" font-size="13" lengthAdjust="spacing" textLength="106" x="1149.5" y="1018.0732">categoria deletada</text><polygon fill="#181818" points="753.5,1049.2813,743.5,1053.2813,753.5,1057.2813,749.5,1053.2813" style="stroke:#181818;stroke-width:1.0;"/><line style="stroke:#181818;stroke-width:1.0;" x1="747.5" x2="1131.5" y1="1053.2813" y2="1053.2813"/><text fill="#000000" font-family="sans-serif" font-size="13" lengthAdjust="spacing" textLength="150" x="759.5" y="1048.4248">retorna categoria deletada</text><polygon fill="#181818" points="221.5,1079.6328,211.5,1083.6328,221.5,1087.6328,217.5,1083.6328" style="stroke:#181818;stroke-width:1.0;"/><line style="stroke:#181818;stroke-width:1.0;" x1="215.5" x2="741.5" y1="1083.6328" y2="1083.6328"/><text fill="#000000" font-family="sans-serif" font-size="13" lengthAdjust="spacing" textLength="196" x="227.5" y="1078.7764">responde 200 (categoria deletada)</text><polygon fill="#181818" points="53.5,1109.9844,43.5,1113.9844,53.5,1117.9844,49.5,1113.9844" style="stroke:#181818;stroke-width:1.0;"/><line style="stroke:#181818;stroke-width:1.0;" x1="47.5" x2="209.5" y1="1113.9844" y2="1113.9844"/><text fill="#000000" font-family="sans-serif" font-size="13" lengthAdjust="spacing" textLength="144" x="59.5" y="1109.1279">confirma&#231;&#227;o de exclus&#227;o</text><!--SRC=[fLNDJjj04BxlKuoY7X84WbQS8e54OjCYjRHoqlPO3VOILjhicjrr17sRgWVKIZtr4VnYdRLT9oORGiJDsldxPhxFCquuoLaaS6PmZf1ncF3RelojKe5m05zqCRjnCENf3GDsBeixFOI8I-xGm1WTdsb3ZlqeVXzFOpXC_p_Pmw781eoh35nLWc7gj86pR2uKoz4uaOeSbODUeXr2E44Fq4AY2ySx8MtXiLREQ2cv2Tidt2n4kY4uuRcsWa3TT-oVZCuAfrUi6JgyGiiX6Z5MDG07fpMi8Koqf4ZgWD-bih3bJmrzttbbzdu1i4EQCusGjwQ-uRVxOBWTi81x9qlJqdeANvIXTB10AJ8i7pmKeGWSIWRWBHSHAFzwhOtYgSWqlSDQwesWUn9L-O1mbkUnCKHcdnBgAoDcwCg_HkX1hvkmsq8pCEeorug4TdnqH0fxbA9AOBWhZA9Fae-N46DFObnIDOGPTzsH1BnyS3GYwaXpuoc8x5khkdrGUixXFFdu0PPIXA_luYJkEC89l7hDeX4SR4BIkjQiB2Ch2hXA_N0mGmOGn1WaNHLIiXTHDjw4eoBlsTGT4tNZ9rfgAEoIjxMzvP1MaWN9N_jBA-gRLpkwxufWpVkH1FPgnlCcV1lVWU9jw4Aej92OQVkOTtAsXGXw0WGG1YSaXQLTa-hvCazVSZLpDt0AHuENQUFIqrZ-gf2MVnPSrajDa0QMvT1QJJk5OE-c6F-pRox0gxPMPYKiS8d-lVpHraJ05iYAoAJbEuzmWT_zuMfcTrBFRjluLXaFxTyDltAjjUR4FNEtG19FFoUN5vTlOO_oFclJr9XstId1y5s4H3JGGS4jE9xMnnlIHtyzWHzfUqchqqjujReMPjvSE8fjBs-rRlu1]--></g></svg>