<?xml version="1.0" encoding="us-ascii" standalone="no"?><svg xmlns="http://www.w3.org/2000/svg" xmlns:xlink="http://www.w3.org/1999/xlink" contentStyleType="text/css" height="884px" preserveAspectRatio="none" style="width:1398px;height:884px;background:#FFFFFF;" version="1.1" viewBox="0 0 1398 884" width="1398px" zoomAndPan="magnify"><defs/><g><text fill="#000000" font-family="sans-serif" font-size="14" font-weight="bold" lengthAdjust="spacing" textLength="266" x="559.5" y="29.5332">Diagrama de Sequ&#234;ncia - Vought Tech</text><text fill="#000000" font-family="sans-serif" font-size="14" font-weight="bold" lengthAdjust="spacing" textLength="4" x="690.5" y="47.1426">&#160;</text><text fill="#000000" font-family="sans-serif" font-size="14" font-weight="bold" lengthAdjust="spacing" textLength="359" x="513" y="64.752">Fluxo: Buscar Categoria por ID (GET /categorias/:id)</text><rect fill="none" height="168.7578" style="stroke:#000000;stroke-width:1.5;" width="778" x="120" y="264.4922"/><rect fill="none" height="93.0547" style="stroke:#000000;stroke-width:1.5;" width="708.5" x="130" y="333.1953"/><rect fill="none" height="246.8125" style="stroke:#000000;stroke-width:1.5;" width="984" x="10" y="538.3047"/><line style="stroke:#181818;stroke-width:0.5;stroke-dasharray:5.0,5.0;" x1="47" x2="47" y1="156.4375" y2="802.1172"/><line style="stroke:#181818;stroke-width:0.5;stroke-dasharray:5.0,5.0;" x1="225" x2="225" y1="156.4375" y2="802.1172"/><line style="stroke:#181818;stroke-width:0.5;stroke-dasharray:5.0,5.0;" x1="487" x2="487" y1="156.4375" y2="802.1172"/><line style="stroke:#181818;stroke-width:0.5;stroke-dasharray:5.0,5.0;" x1="766.5" x2="766.5" y1="156.4375" y2="802.1172"/><line style="stroke:#181818;stroke-width:0.5;stroke-dasharray:5.0,5.0;" x1="912" x2="912" y1="156.4375" y2="802.1172"/><line style="stroke:#181818;stroke-width:0.5;stroke-dasharray:5.0,5.0;" x1="1363" x2="1363" y1="156.4375" y2="802.1172"/><text fill="#000000" font-family="sans-serif" font-size="14" lengthAdjust="spacing" textLength="48" x="20" y="153.3613">Usuario</text><ellipse cx="47" cy="87.3281" fill="#E2E2F0" rx="8" ry="8" style="stroke:#181818;stroke-width:0.5;"/><path d="M47,95.3281 L47,122.3281 M34,103.3281 L60,103.3281 M47,122.3281 L34,137.3281 M47,122.3281 L60,137.3281 " fill="none" style="stroke:#181818;stroke-width:0.5;"/><text fill="#000000" font-family="sans-serif" font-size="14" lengthAdjust="spacing" textLength="48" x="20" y="815.6504">Usuario</text><ellipse cx="47" cy="827.2266" fill="#E2E2F0" rx="8" ry="8" style="stroke:#181818;stroke-width:0.5;"/><path d="M47,835.2266 L47,862.2266 M34,843.2266 L60,843.2266 M47,862.2266 L34,877.2266 M47,862.2266 L60,877.2266 " fill="none" style="stroke:#181818;stroke-width:0.5;"/><rect fill="#E2E2F0" height="31.6094" rx="2.5" ry="2.5" style="stroke:#181818;stroke-width:0.5;" width="170" x="140" y="123.8281"/><text fill="#000000" font-family="sans-serif" font-size="14" lengthAdjust="spacing" textLength="156" x="147" y="145.3613">Rota GET /categorias/:id</text><rect fill="#E2E2F0" height="31.6094" rx="2.5" ry="2.5" style="stroke:#181818;stroke-width:0.5;" width="170" x="140" y="801.1172"/><text fill="#000000" font-family="sans-serif" font-size="14" lengthAdjust="spacing" textLength="156" x="147" y="822.6504">Rota GET /categorias/:id</text><rect fill="#E2E2F0" height="31.6094" rx="2.5" ry="2.5" style="stroke:#181818;stroke-width:0.5;" width="138" x="418" y="123.8281"/><text fill="#000000" font-family="sans-serif" font-size="14" lengthAdjust="spacing" textLength="124" x="425" y="145.3613">CategoriaController</text><rect fill="#E2E2F0" height="31.6094" rx="2.5" ry="2.5" style="stroke:#181818;stroke-width:0.5;" width="138" x="418" y="801.1172"/><text fill="#000000" font-family="sans-serif" font-size="14" lengthAdjust="spacing" textLength="124" x="425" y="822.6504">CategoriaController</text><rect fill="#E2E2F0" height="31.6094" rx="2.5" ry="2.5" style="stroke:#181818;stroke-width:0.5;" width="123" x="705.5" y="123.8281"/><text fill="#000000" font-family="sans-serif" font-size="14" lengthAdjust="spacing" textLength="109" x="712.5" y="145.3613">CategoriaService</text><rect fill="#E2E2F0" height="31.6094" rx="2.5" ry="2.5" style="stroke:#181818;stroke-width:0.5;" width="123" x="705.5" y="801.1172"/><text fill="#000000" font-family="sans-serif" font-size="14" lengthAdjust="spacing" textLength="109" x="712.5" y="822.6504">CategoriaService</text><rect fill="#E2E2F0" height="31.6094" rx="2.5" ry="2.5" style="stroke:#181818;stroke-width:0.5;" width="144" x="840" y="123.8281"/><text fill="#000000" font-family="sans-serif" font-size="14" lengthAdjust="spacing" textLength="130" x="847" y="145.3613">CategoriaRepository</text><rect fill="#E2E2F0" height="31.6094" rx="2.5" ry="2.5" style="stroke:#181818;stroke-width:0.5;" width="144" x="840" y="801.1172"/><text fill="#000000" font-family="sans-serif" font-size="14" lengthAdjust="spacing" textLength="130" x="847" y="822.6504">CategoriaRepository</text><text fill="#000000" font-family="sans-serif" font-size="14" lengthAdjust="spacing" textLength="19" x="1350.5" y="153.3613">DB</text><path d="M1345,102.8281 C1345,92.8281 1363,92.8281 1363,92.8281 C1363,92.8281 1381,92.8281 1381,102.8281 L1381,128.8281 C1381,138.8281 1363,138.8281 1363,138.8281 C1363,138.8281 1345,138.8281 1345,128.8281 L1345,102.8281 " fill="#E2E2F0" style="stroke:#181818;stroke-width:1.5;"/><path d="M1345,102.8281 C1345,112.8281 1363,112.8281 1363,112.8281 C1363,112.8281 1381,112.8281 1381,102.8281 " fill="none" style="stroke:#181818;stroke-width:1.5;"/><text fill="#000000" font-family="sans-serif" font-size="14" lengthAdjust="spacing" textLength="19" x="1350.5" y="815.6504">DB</text><path d="M1345,828.7266 C1345,818.7266 1363,818.7266 1363,818.7266 C1363,818.7266 1381,818.7266 1381,828.7266 L1381,854.7266 C1381,864.7266 1363,864.7266 1363,864.7266 C1363,864.7266 1345,864.7266 1345,854.7266 L1345,828.7266 " fill="#E2E2F0" style="stroke:#181818;stroke-width:1.5;"/><path d="M1345,828.7266 C1345,838.7266 1363,838.7266 1363,838.7266 C1363,838.7266 1381,838.7266 1381,828.7266 " fill="none" style="stroke:#181818;stroke-width:1.5;"/><polygon fill="#181818" points="213,184.7891,223,188.7891,213,192.7891,217,188.7891" style="stroke:#181818;stroke-width:1.0;"/><line style="stroke:#181818;stroke-width:1.0;" x1="47" x2="219" y1="188.7891" y2="188.7891"/><text fill="#000000" font-family="sans-serif" font-size="13" lengthAdjust="spacing" textLength="122" x="54" y="183.9326">Solicita categoria (id)</text><polygon fill="#181818" points="475,215.1406,485,219.1406,475,223.1406,479,219.1406" style="stroke:#181818;stroke-width:1.0;"/><line style="stroke:#181818;stroke-width:1.0;" x1="225" x2="481" y1="219.1406" y2="219.1406"/><text fill="#000000" font-family="sans-serif" font-size="13" lengthAdjust="spacing" textLength="125" x="232" y="214.2842">getCategoria(req, res)</text><polygon fill="#181818" points="755,245.4922,765,249.4922,755,253.4922,759,249.4922" style="stroke:#181818;stroke-width:1.0;"/><line style="stroke:#181818;stroke-width:1.0;" x1="487" x2="761" y1="249.4922" y2="249.4922"/><text fill="#000000" font-family="sans-serif" font-size="13" lengthAdjust="spacing" textLength="91" x="494" y="244.6357">getCategoria(id)</text><path d="M120,264.4922 L181,264.4922 L181,272.8438 L171,282.8438 L120,282.8438 L120,264.4922 " fill="#EEEEEE" style="stroke:#000000;stroke-width:1.5;"/><rect fill="none" height="168.7578" style="stroke:#000000;stroke-width:1.5;" width="778" x="120" y="264.4922"/><text fill="#000000" font-family="sans-serif" font-size="13" font-weight="bold" lengthAdjust="spacing" textLength="16" x="135" y="278.9873">alt</text><text fill="#000000" font-family="sans-serif" font-size="11" font-weight="bold" lengthAdjust="spacing" textLength="92" x="196" y="277.9111">[valida&#231;&#227;o inicial]</text><line style="stroke:#181818;stroke-width:1.0;" x1="767" x2="809" y1="305.1953" y2="305.1953"/><line style="stroke:#181818;stroke-width:1.0;" x1="809" x2="809" y1="305.1953" y2="318.1953"/><line style="stroke:#181818;stroke-width:1.0;" x1="768" x2="809" y1="318.1953" y2="318.1953"/><polygon fill="#181818" points="778,314.1953,768,318.1953,778,322.1953,774,318.1953" style="stroke:#181818;stroke-width:1.0;"/><text fill="#000000" font-family="sans-serif" font-size="13" lengthAdjust="spacing" textLength="112" x="774" y="300.3389">verifica se ID existe</text><path d="M130,333.1953 L191,333.1953 L191,341.5469 L181,351.5469 L130,351.5469 L130,333.1953 " fill="#EEEEEE" style="stroke:#000000;stroke-width:1.5;"/><rect fill="none" height="93.0547" style="stroke:#000000;stroke-width:1.5;" width="708.5" x="130" y="333.1953"/><text fill="#000000" font-family="sans-serif" font-size="13" font-weight="bold" lengthAdjust="spacing" textLength="16" x="145" y="347.6904">alt</text><text fill="#000000" font-family="sans-serif" font-size="11" font-weight="bold" lengthAdjust="spacing" textLength="97" x="206" y="346.6143">[ID n&#227;o fornecido]</text><polygon fill="#181818" points="498,369.8984,488,373.8984,498,377.8984,494,373.8984" style="stroke:#181818;stroke-width:1.0;"/><line style="stroke:#181818;stroke-width:1.0;" x1="492" x2="766" y1="373.8984" y2="373.8984"/><text fill="#000000" font-family="sans-serif" font-size="13" lengthAdjust="spacing" textLength="184" x="504" y="369.042">"lan&#231;a AppError (ID obrigat&#243;rio)"</text><polygon fill="#181818" points="236,400.25,226,404.25,236,408.25,232,404.25" style="stroke:#181818;stroke-width:1.0;"/><line style="stroke:#181818;stroke-width:1.0;" x1="230" x2="486" y1="404.25" y2="404.25"/><text fill="#000000" font-family="sans-serif" font-size="13" lengthAdjust="spacing" textLength="166" x="242" y="399.3936">responde 400 - ID obrigat&#243;rio</text><polygon fill="#181818" points="475,414.25,485,418.25,475,422.25,479,418.25" style="stroke:#181818;stroke-width:1.0;"/><line style="stroke:#181818;stroke-width:1.0;stroke-dasharray:2.0,2.0;" x1="225" x2="481" y1="418.25" y2="418.25"/><polygon fill="#181818" points="900,458.6016,910,462.6016,900,466.6016,904,462.6016" style="stroke:#181818;stroke-width:1.0;"/><line style="stroke:#181818;stroke-width:1.0;" x1="767" x2="906" y1="462.6016" y2="462.6016"/><text fill="#000000" font-family="sans-serif" font-size="13" lengthAdjust="spacing" textLength="91" x="774" y="457.7451">getCategoria(id)</text><polygon fill="#181818" points="1351,488.9531,1361,492.9531,1351,496.9531,1355,492.9531" style="stroke:#181818;stroke-width:1.0;"/><line style="stroke:#181818;stroke-width:1.0;" x1="912" x2="1357" y1="492.9531" y2="492.9531"/><text fill="#000000" font-family="sans-serif" font-size="13" lengthAdjust="spacing" textLength="427" x="919" y="488.0967">SELECT id_categoria, nome FROM categorias WHERE id_categoria = $1</text><polygon fill="#181818" points="923,519.3047,913,523.3047,923,527.3047,919,523.3047" style="stroke:#181818;stroke-width:1.0;"/><line style="stroke:#181818;stroke-width:1.0;stroke-dasharray:2.0,2.0;" x1="917" x2="1362" y1="523.3047" y2="523.3047"/><text fill="#000000" font-family="sans-serif" font-size="13" lengthAdjust="spacing" textLength="53" x="929" y="518.4482">categoria</text><path d="M10,538.3047 L71,538.3047 L71,546.6563 L61,556.6563 L10,556.6563 L10,538.3047 " fill="#EEEEEE" style="stroke:#000000;stroke-width:1.5;"/><rect fill="none" height="246.8125" style="stroke:#000000;stroke-width:1.5;" width="984" x="10" y="538.3047"/><text fill="#000000" font-family="sans-serif" font-size="13" font-weight="bold" lengthAdjust="spacing" textLength="16" x="25" y="552.7998">alt</text><text fill="#000000" font-family="sans-serif" font-size="11" font-weight="bold" lengthAdjust="spacing" textLength="147" x="86" y="551.7236">[categoria n&#227;o encontrada]</text><polygon fill="#181818" points="778,575.0078,768,579.0078,778,583.0078,774,579.0078" style="stroke:#181818;stroke-width:1.0;"/><line style="stroke:#181818;stroke-width:1.0;stroke-dasharray:2.0,2.0;" x1="772" x2="911" y1="579.0078" y2="579.0078"/><text fill="#000000" font-family="sans-serif" font-size="13" lengthAdjust="spacing" textLength="20" x="784" y="574.1514">null</text><polygon fill="#181818" points="498,605.3594,488,609.3594,498,613.3594,494,609.3594" style="stroke:#181818;stroke-width:1.0;"/><line style="stroke:#181818;stroke-width:1.0;" x1="492" x2="766" y1="609.3594" y2="609.3594"/><text fill="#000000" font-family="sans-serif" font-size="13" lengthAdjust="spacing" textLength="256" x="504" y="604.5029">"lan&#231;a AppError (Categoria n&#227;o encontrada)"</text><polygon fill="#181818" points="236,635.7109,226,639.7109,236,643.7109,232,639.7109" style="stroke:#181818;stroke-width:1.0;"/><line style="stroke:#181818;stroke-width:1.0;" x1="230" x2="486" y1="639.7109" y2="639.7109"/><text fill="#000000" font-family="sans-serif" font-size="13" lengthAdjust="spacing" textLength="238" x="242" y="634.8545">responde 404 - Categoria n&#227;o encontrada</text><polygon fill="#181818" points="475,649.7109,485,653.7109,475,657.7109,479,653.7109" style="stroke:#181818;stroke-width:1.0;"/><line style="stroke:#181818;stroke-width:1.0;stroke-dasharray:2.0,2.0;" x1="225" x2="481" y1="653.7109" y2="653.7109"/><line style="stroke:#000000;stroke-width:1.0;stroke-dasharray:2.0,2.0;" x1="10" x2="994" y1="662.7109" y2="662.7109"/><polygon fill="#181818" points="778,682.0625,768,686.0625,778,690.0625,774,686.0625" style="stroke:#181818;stroke-width:1.0;"/><line style="stroke:#181818;stroke-width:1.0;stroke-dasharray:2.0,2.0;" x1="772" x2="911" y1="686.0625" y2="686.0625"/><text fill="#000000" font-family="sans-serif" font-size="13" lengthAdjust="spacing" textLength="121" x="784" y="681.2061">categoria encontrada</text><polygon fill="#181818" points="498,712.4141,488,716.4141,498,720.4141,494,716.4141" style="stroke:#181818;stroke-width:1.0;"/><line style="stroke:#181818;stroke-width:1.0;" x1="492" x2="766" y1="716.4141" y2="716.4141"/><text fill="#000000" font-family="sans-serif" font-size="13" lengthAdjust="spacing" textLength="97" x="504" y="711.5576">retorna categoria</text><polygon fill="#181818" points="236,742.7656,226,746.7656,236,750.7656,232,746.7656" style="stroke:#181818;stroke-width:1.0;"/><line style="stroke:#181818;stroke-width:1.0;" x1="230" x2="486" y1="746.7656" y2="746.7656"/><text fill="#000000" font-family="sans-serif" font-size="13" lengthAdjust="spacing" textLength="143" x="242" y="741.9092">responde 200 (categoria)</text><polygon fill="#181818" points="58,773.1172,48,777.1172,58,781.1172,54,777.1172" style="stroke:#181818;stroke-width:1.0;"/><line style="stroke:#181818;stroke-width:1.0;" x1="52" x2="224" y1="777.1172" y2="777.1172"/><text fill="#000000" font-family="sans-serif" font-size="13" lengthAdjust="spacing" textLength="154" x="64" y="772.2607">retorna dados da categoria</text><!--SRC=[bLHDQzj04BtlhnXC3pB492qv6Lg89QKjj1HajpsMYNQYB6nsbTsLINzF3u5U-nFynpfIL7qaifs2468ry-RDUqyAAcWIYSB2uIs295ZJNRNxRNA5i81ljYfk0cmeln4WBdLrRvUmgdoE3c8CL5Z7TQLry361w7swWTFytx4_NIev5sGaX6QAm3nmvLTVeLDMbEY2obM99i0iim5Xedy6w26pLQ1HVJSxjYOugpMvwVThSbkLxsdEgBHUCQUVGcB0A_G4oKg8bY4itZsENiBQQkvcYXqxYEhbcjTrtGIX9HGKklF8qTq9EF9pCL4xWcWvF-clnmdK0RQebSJTm-wN1MMO5ce1pxgd4RVarBNA4NXJTepkbMTb0VYgeVd8rB3NrXdAbRHyVWHwkEzCezaz85oKPUeSMnqneBrogi2m-yEApcTZmB40hTQiKMaD9_7yx8mZ-0IY0N0KAcVuaSDL1qo8WnnxdoSqdQYgcvCLkvv-IkCDAFcZi_q4ZBqbkCo-VEwpuE7xXpHBHuNm5bwz5iaA5lkOTAMFjlQTZGLaybeSb3WqTyXnqc1JwQDfE6nPl8z7OzwBhJjdw-83AxKMalRqNmlsCaqhT6nXdilX7dp8Br_g3USnwlhctDXz_kqVeuUNAAtd-s1EdTE_]--></g></svg>