<?xml version="1.0" encoding="us-ascii" standalone="no"?><svg xmlns="http://www.w3.org/2000/svg" xmlns:xlink="http://www.w3.org/1999/xlink" contentStyleType="text/css" height="1620px" preserveAspectRatio="none" style="width:1611px;height:1620px;background:#FFFFFF;" version="1.1" viewBox="0 0 1611 1620" width="1611px" zoomAndPan="magnify"><defs/><g><text fill="#000000" font-family="sans-serif" font-size="14" font-weight="bold" lengthAdjust="spacing" textLength="266" x="673.75" y="29.5332">Diagrama de Sequ&#234;ncia - Vought Tech</text><text fill="#000000" font-family="sans-serif" font-size="14" font-weight="bold" lengthAdjust="spacing" textLength="4" x="804.75" y="47.1426">&#160;</text><text fill="#000000" font-family="sans-serif" font-size="14" font-weight="bold" lengthAdjust="spacing" textLength="329" x="642.25" y="64.752">Fluxo: Criar Pedido / Checkout (POST /pedidos)</text><rect fill="#FFFFFF" height="426.9219" style="stroke:#181818;stroke-width:1.0;" width="10" x="677" y="1025.2813"/><rect fill="none" height="382.5703" style="stroke:#000000;stroke-width:1.5;" width="975" x="619.5" y="264.4922"/><rect fill="none" height="859.8438" style="stroke:#000000;stroke-width:1.5;" width="1504.5" x="100" y="661.0625"/><rect fill="none" height="246.8125" style="stroke:#000000;stroke-width:1.5;" width="1484.5" x="110" y="749.1172"/><rect fill="none" height="93.0547" style="stroke:#000000;stroke-width:1.5;" width="624.5" x="120" y="895.875"/><rect fill="none" height="200.4609" style="stroke:#000000;stroke-width:1.5;" width="975" x="619.5" y="1161.6875"/><line style="stroke:#181818;stroke-width:0.5;stroke-dasharray:5.0,5.0;" x1="30" x2="30" y1="156.4375" y2="1537.9063"/><line style="stroke:#181818;stroke-width:0.5;stroke-dasharray:5.0,5.0;" x1="202" x2="202" y1="156.4375" y2="1537.9063"/><line style="stroke:#181818;stroke-width:0.5;stroke-dasharray:5.0,5.0;" x1="433" x2="433" y1="156.4375" y2="1537.9063"/><line style="stroke:#181818;stroke-width:0.5;stroke-dasharray:5.0,5.0;" x1="681.5" x2="681.5" y1="156.4375" y2="1537.9063"/><line style="stroke:#181818;stroke-width:0.5;stroke-dasharray:5.0,5.0;" x1="849.5" x2="849.5" y1="156.4375" y2="1537.9063"/><line style="stroke:#181818;stroke-width:0.5;stroke-dasharray:5.0,5.0;" x1="994.5" x2="994.5" y1="156.4375" y2="1537.9063"/><line style="stroke:#181818;stroke-width:0.5;stroke-dasharray:5.0,5.0;" x1="1133.5" x2="1133.5" y1="156.4375" y2="1537.9063"/><line style="stroke:#181818;stroke-width:0.5;stroke-dasharray:5.0,5.0;" x1="1277.5" x2="1277.5" y1="156.4375" y2="1537.9063"/><line style="stroke:#181818;stroke-width:0.5;stroke-dasharray:5.0,5.0;" x1="1422.5" x2="1422.5" y1="156.4375" y2="1537.9063"/><line style="stroke:#181818;stroke-width:0.5;stroke-dasharray:5.0,5.0;" x1="1566.5" x2="1566.5" y1="156.4375" y2="1537.9063"/><text fill="#000000" font-family="sans-serif" font-size="14" lengthAdjust="spacing" textLength="44" x="5" y="153.3613">Cliente</text><ellipse cx="30" cy="87.3281" fill="#E2E2F0" rx="8" ry="8" style="stroke:#181818;stroke-width:0.5;"/><path d="M30,95.3281 L30,122.3281 M17,103.3281 L43,103.3281 M30,122.3281 L17,137.3281 M30,122.3281 L43,137.3281 " fill="none" style="stroke:#181818;stroke-width:0.5;"/><text fill="#000000" font-family="sans-serif" font-size="14" lengthAdjust="spacing" textLength="44" x="5" y="1551.4395">Cliente</text><ellipse cx="30" cy="1563.0156" fill="#E2E2F0" rx="8" ry="8" style="stroke:#181818;stroke-width:0.5;"/><path d="M30,1571.0156 L30,1598.0156 M17,1579.0156 L43,1579.0156 M30,1598.0156 L17,1613.0156 M30,1598.0156 L43,1613.0156 " fill="none" style="stroke:#181818;stroke-width:0.5;"/><rect fill="#E2E2F0" height="31.6094" rx="2.5" ry="2.5" style="stroke:#181818;stroke-width:0.5;" width="144" x="130" y="123.8281"/><text fill="#000000" font-family="sans-serif" font-size="14" lengthAdjust="spacing" textLength="130" x="137" y="145.3613">Rota POST /pedidos</text><rect fill="#E2E2F0" height="31.6094" rx="2.5" ry="2.5" style="stroke:#181818;stroke-width:0.5;" width="144" x="130" y="1536.9063"/><text fill="#000000" font-family="sans-serif" font-size="14" lengthAdjust="spacing" textLength="130" x="137" y="1558.4395">Rota POST /pedidos</text><rect fill="#E2E2F0" height="31.6094" rx="2.5" ry="2.5" style="stroke:#181818;stroke-width:0.5;" width="120" x="373" y="123.8281"/><text fill="#000000" font-family="sans-serif" font-size="14" lengthAdjust="spacing" textLength="106" x="380" y="145.3613">PedidoController</text><rect fill="#E2E2F0" height="31.6094" rx="2.5" ry="2.5" style="stroke:#181818;stroke-width:0.5;" width="120" x="373" y="1536.9063"/><text fill="#000000" font-family="sans-serif" font-size="14" lengthAdjust="spacing" textLength="106" x="380" y="1558.4395">PedidoController</text><rect fill="#E2E2F0" height="31.6094" rx="2.5" ry="2.5" style="stroke:#181818;stroke-width:0.5;" width="105" x="629.5" y="123.8281"/><text fill="#000000" font-family="sans-serif" font-size="14" lengthAdjust="spacing" textLength="91" x="636.5" y="145.3613">PedidoService</text><rect fill="#E2E2F0" height="31.6094" rx="2.5" ry="2.5" style="stroke:#181818;stroke-width:0.5;" width="105" x="629.5" y="1536.9063"/><text fill="#000000" font-family="sans-serif" font-size="14" lengthAdjust="spacing" textLength="91" x="636.5" y="1558.4395">PedidoService</text><rect fill="#E2E2F0" height="31.6094" rx="2.5" ry="2.5" style="stroke:#181818;stroke-width:0.5;" width="137" x="781.5" y="123.8281"/><text fill="#000000" font-family="sans-serif" font-size="14" lengthAdjust="spacing" textLength="123" x="788.5" y="145.3613">CarrinhoRepository</text><rect fill="#E2E2F0" height="31.6094" rx="2.5" ry="2.5" style="stroke:#181818;stroke-width:0.5;" width="137" x="781.5" y="1536.9063"/><text fill="#000000" font-family="sans-serif" font-size="14" lengthAdjust="spacing" textLength="123" x="788.5" y="1558.4395">CarrinhoRepository</text><rect fill="#E2E2F0" height="31.6094" rx="2.5" ry="2.5" style="stroke:#181818;stroke-width:0.5;" width="132" x="928.5" y="123.8281"/><text fill="#000000" font-family="sans-serif" font-size="14" lengthAdjust="spacing" textLength="118" x="935.5" y="145.3613">ProdutoRepository</text><rect fill="#E2E2F0" height="31.6094" rx="2.5" ry="2.5" style="stroke:#181818;stroke-width:0.5;" width="132" x="928.5" y="1536.9063"/><text fill="#000000" font-family="sans-serif" font-size="14" lengthAdjust="spacing" textLength="118" x="935.5" y="1558.4395">ProdutoRepository</text><rect fill="#E2E2F0" height="31.6094" rx="2.5" ry="2.5" style="stroke:#181818;stroke-width:0.5;" width="126" x="1070.5" y="123.8281"/><text fill="#000000" font-family="sans-serif" font-size="14" lengthAdjust="spacing" textLength="112" x="1077.5" y="145.3613">ClienteRepository</text><rect fill="#E2E2F0" height="31.6094" rx="2.5" ry="2.5" style="stroke:#181818;stroke-width:0.5;" width="126" x="1070.5" y="1536.9063"/><text fill="#000000" font-family="sans-serif" font-size="14" lengthAdjust="spacing" textLength="112" x="1077.5" y="1558.4395">ClienteRepository</text><rect fill="#E2E2F0" height="31.6094" rx="2.5" ry="2.5" style="stroke:#181818;stroke-width:0.5;" width="143" x="1206.5" y="123.8281"/><text fill="#000000" font-family="sans-serif" font-size="14" lengthAdjust="spacing" textLength="129" x="1213.5" y="145.3613">EnderecoRepository</text><rect fill="#E2E2F0" height="31.6094" rx="2.5" ry="2.5" style="stroke:#181818;stroke-width:0.5;" width="143" x="1206.5" y="1536.9063"/><text fill="#000000" font-family="sans-serif" font-size="14" lengthAdjust="spacing" textLength="129" x="1213.5" y="1558.4395">EnderecoRepository</text><rect fill="#E2E2F0" height="31.6094" rx="2.5" ry="2.5" style="stroke:#181818;stroke-width:0.5;" width="126" x="1359.5" y="123.8281"/><text fill="#000000" font-family="sans-serif" font-size="14" lengthAdjust="spacing" textLength="112" x="1366.5" y="145.3613">PedidoRepository</text><rect fill="#E2E2F0" height="31.6094" rx="2.5" ry="2.5" style="stroke:#181818;stroke-width:0.5;" width="126" x="1359.5" y="1536.9063"/><text fill="#000000" font-family="sans-serif" font-size="14" lengthAdjust="spacing" textLength="112" x="1366.5" y="1558.4395">PedidoRepository</text><text fill="#000000" font-family="sans-serif" font-size="14" lengthAdjust="spacing" textLength="19" x="1554" y="153.3613">DB</text><path d="M1548.5,102.8281 C1548.5,92.8281 1566.5,92.8281 1566.5,92.8281 C1566.5,92.8281 1584.5,92.8281 1584.5,102.8281 L1584.5,128.8281 C1584.5,138.8281 1566.5,138.8281 1566.5,138.8281 C1566.5,138.8281 1548.5,138.8281 1548.5,128.8281 L1548.5,102.8281 " fill="#E2E2F0" style="stroke:#181818;stroke-width:1.5;"/><path d="M1548.5,102.8281 C1548.5,112.8281 1566.5,112.8281 1566.5,112.8281 C1566.5,112.8281 1584.5,112.8281 1584.5,102.8281 " fill="none" style="stroke:#181818;stroke-width:1.5;"/><text fill="#000000" font-family="sans-serif" font-size="14" lengthAdjust="spacing" textLength="19" x="1554" y="1551.4395">DB</text><path d="M1548.5,1564.5156 C1548.5,1554.5156 1566.5,1554.5156 1566.5,1554.5156 C1566.5,1554.5156 1584.5,1554.5156 1584.5,1564.5156 L1584.5,1590.5156 C1584.5,1600.5156 1566.5,1600.5156 1566.5,1600.5156 C1566.5,1600.5156 1548.5,1600.5156 1548.5,1590.5156 L1548.5,1564.5156 " fill="#E2E2F0" style="stroke:#181818;stroke-width:1.5;"/><path d="M1548.5,1564.5156 C1548.5,1574.5156 1566.5,1574.5156 1566.5,1574.5156 C1566.5,1574.5156 1584.5,1574.5156 1584.5,1564.5156 " fill="none" style="stroke:#181818;stroke-width:1.5;"/><rect fill="#FFFFFF" height="426.9219" style="stroke:#181818;stroke-width:1.0;" width="10" x="677" y="1025.2813"/><polygon fill="#181818" points="190,184.7891,200,188.7891,190,192.7891,194,188.7891" style="stroke:#181818;stroke-width:1.0;"/><line style="stroke:#181818;stroke-width:1.0;" x1="30" x2="196" y1="188.7891" y2="188.7891"/><text fill="#000000" font-family="sans-serif" font-size="13" lengthAdjust="spacing" textLength="148" x="37" y="183.9326">Envia pedido (enderecoId)</text><polygon fill="#181818" points="421,215.1406,431,219.1406,421,223.1406,425,219.1406" style="stroke:#181818;stroke-width:1.0;"/><line style="stroke:#181818;stroke-width:1.0;" x1="202" x2="427" y1="219.1406" y2="219.1406"/><text fill="#000000" font-family="sans-serif" font-size="13" lengthAdjust="spacing" textLength="77" x="209" y="214.2842">criar(req, res)</text><polygon fill="#181818" points="670,245.4922,680,249.4922,670,253.4922,674,249.4922" style="stroke:#181818;stroke-width:1.0;"/><line style="stroke:#181818;stroke-width:1.0;" x1="433" x2="676" y1="249.4922" y2="249.4922"/><text fill="#000000" font-family="sans-serif" font-size="13" lengthAdjust="spacing" textLength="192" x="440" y="244.6357">criarPedido(clienteId, enderecoId)</text><path d="M619.5,264.4922 L680.5,264.4922 L680.5,272.8438 L670.5,282.8438 L619.5,282.8438 L619.5,264.4922 " fill="#EEEEEE" style="stroke:#000000;stroke-width:1.5;"/><rect fill="none" height="382.5703" style="stroke:#000000;stroke-width:1.5;" width="975" x="619.5" y="264.4922"/><text fill="#000000" font-family="sans-serif" font-size="13" font-weight="bold" lengthAdjust="spacing" textLength="16" x="634.5" y="278.9873">alt</text><text fill="#000000" font-family="sans-serif" font-size="11" font-weight="bold" lengthAdjust="spacing" textLength="107" x="695.5" y="277.9111">[valida&#231;&#245;es iniciais]</text><polygon fill="#181818" points="1121.5,301.1953,1131.5,305.1953,1121.5,309.1953,1125.5,305.1953" style="stroke:#181818;stroke-width:1.0;"/><line style="stroke:#181818;stroke-width:1.0;" x1="682" x2="1127.5" y1="305.1953" y2="305.1953"/><text fill="#000000" font-family="sans-serif" font-size="13" lengthAdjust="spacing" textLength="114" x="689" y="300.3389">getCliente(clienteId)</text><polygon fill="#181818" points="1554.5,331.5469,1564.5,335.5469,1554.5,339.5469,1558.5,335.5469" style="stroke:#181818;stroke-width:1.0;"/><line style="stroke:#181818;stroke-width:1.0;" x1="1133.5" x2="1560.5" y1="335.5469" y2="335.5469"/><text fill="#000000" font-family="sans-serif" font-size="13" lengthAdjust="spacing" textLength="92" x="1140.5" y="330.6904">SELECT cliente</text><polygon fill="#181818" points="1144.5,361.8984,1134.5,365.8984,1144.5,369.8984,1140.5,365.8984" style="stroke:#181818;stroke-width:1.0;"/><line style="stroke:#181818;stroke-width:1.0;stroke-dasharray:2.0,2.0;" x1="1138.5" x2="1565.5" y1="365.8984" y2="365.8984"/><text fill="#000000" font-family="sans-serif" font-size="13" lengthAdjust="spacing" textLength="38" x="1150.5" y="361.042">cliente</text><polygon fill="#181818" points="693,392.25,683,396.25,693,400.25,689,396.25" style="stroke:#181818;stroke-width:1.0;"/><line style="stroke:#181818;stroke-width:1.0;stroke-dasharray:2.0,2.0;" x1="687" x2="1132.5" y1="396.25" y2="396.25"/><text fill="#000000" font-family="sans-serif" font-size="13" lengthAdjust="spacing" textLength="106" x="699" y="391.3936">cliente encontrado</text><polygon fill="#181818" points="1266,422.6016,1276,426.6016,1266,430.6016,1270,426.6016" style="stroke:#181818;stroke-width:1.0;"/><line style="stroke:#181818;stroke-width:1.0;" x1="682" x2="1272" y1="426.6016" y2="426.6016"/><text fill="#000000" font-family="sans-serif" font-size="13" lengthAdjust="spacing" textLength="144" x="689" y="421.7451">getEndereco(enderecoId)</text><polygon fill="#181818" points="1554.5,452.9531,1564.5,456.9531,1554.5,460.9531,1558.5,456.9531" style="stroke:#181818;stroke-width:1.0;"/><line style="stroke:#181818;stroke-width:1.0;" x1="1278" x2="1560.5" y1="456.9531" y2="456.9531"/><text fill="#000000" font-family="sans-serif" font-size="13" lengthAdjust="spacing" textLength="107" x="1285" y="452.0967">SELECT endereco</text><polygon fill="#181818" points="1289,483.3047,1279,487.3047,1289,491.3047,1285,487.3047" style="stroke:#181818;stroke-width:1.0;"/><line style="stroke:#181818;stroke-width:1.0;stroke-dasharray:2.0,2.0;" x1="1283" x2="1565.5" y1="487.3047" y2="487.3047"/><text fill="#000000" font-family="sans-serif" font-size="13" lengthAdjust="spacing" textLength="53" x="1295" y="482.4482">endereco</text><polygon fill="#181818" points="693,513.6563,683,517.6563,693,521.6563,689,517.6563" style="stroke:#181818;stroke-width:1.0;"/><line style="stroke:#181818;stroke-width:1.0;stroke-dasharray:2.0,2.0;" x1="687" x2="1277" y1="517.6563" y2="517.6563"/><text fill="#000000" font-family="sans-serif" font-size="13" lengthAdjust="spacing" textLength="121" x="699" y="512.7998">endereco encontrado</text><polygon fill="#181818" points="838,544.0078,848,548.0078,838,552.0078,842,548.0078" style="stroke:#181818;stroke-width:1.0;"/><line style="stroke:#181818;stroke-width:1.0;" x1="682" x2="844" y1="548.0078" y2="548.0078"/><text fill="#000000" font-family="sans-serif" font-size="13" lengthAdjust="spacing" textLength="122" x="689" y="543.1514">getCarrinho(clienteId)</text><polygon fill="#181818" points="1554.5,574.3594,1564.5,578.3594,1554.5,582.3594,1558.5,578.3594" style="stroke:#181818;stroke-width:1.0;"/><line style="stroke:#181818;stroke-width:1.0;" x1="850" x2="1560.5" y1="578.3594" y2="578.3594"/><text fill="#000000" font-family="sans-serif" font-size="13" lengthAdjust="spacing" textLength="100" x="857" y="573.5029">SELECT carrinho</text><polygon fill="#181818" points="861,604.7109,851,608.7109,861,612.7109,857,608.7109" style="stroke:#181818;stroke-width:1.0;"/><line style="stroke:#181818;stroke-width:1.0;stroke-dasharray:2.0,2.0;" x1="855" x2="1565.5" y1="608.7109" y2="608.7109"/><text fill="#000000" font-family="sans-serif" font-size="13" lengthAdjust="spacing" textLength="96" x="867" y="603.8545">itens do carrinho</text><polygon fill="#181818" points="693,635.0625,683,639.0625,693,643.0625,689,639.0625" style="stroke:#181818;stroke-width:1.0;"/><line style="stroke:#181818;stroke-width:1.0;stroke-dasharray:2.0,2.0;" x1="687" x2="849" y1="639.0625" y2="639.0625"/><text fill="#000000" font-family="sans-serif" font-size="13" lengthAdjust="spacing" textLength="76" x="699" y="634.2061">itensCarrinho</text><path d="M100,661.0625 L161,661.0625 L161,669.4141 L151,679.4141 L100,679.4141 L100,661.0625 " fill="#EEEEEE" style="stroke:#000000;stroke-width:1.5;"/><rect fill="none" height="859.8438" style="stroke:#000000;stroke-width:1.5;" width="1504.5" x="100" y="661.0625"/><text fill="#000000" font-family="sans-serif" font-size="13" font-weight="bold" lengthAdjust="spacing" textLength="16" x="115" y="675.5576">alt</text><text fill="#000000" font-family="sans-serif" font-size="11" font-weight="bold" lengthAdjust="spacing" textLength="85" x="176" y="674.4814">[carrinho vazio]</text><polygon fill="#181818" points="444,697.7656,434,701.7656,444,705.7656,440,701.7656" style="stroke:#181818;stroke-width:1.0;"/><line style="stroke:#181818;stroke-width:1.0;" x1="438" x2="681" y1="701.7656" y2="701.7656"/><text fill="#000000" font-family="sans-serif" font-size="13" lengthAdjust="spacing" textLength="189" x="450" y="696.9092">"lan&#231;a AppError (Carrinho vazio)"</text><polygon fill="#181818" points="213,728.1172,203,732.1172,213,736.1172,209,732.1172" style="stroke:#181818;stroke-width:1.0;"/><line style="stroke:#181818;stroke-width:1.0;" x1="207" x2="432" y1="732.1172" y2="732.1172"/><text fill="#000000" font-family="sans-serif" font-size="13" lengthAdjust="spacing" textLength="171" x="219" y="727.2607">responde 400 - Carrinho vazio</text><line style="stroke:#000000;stroke-width:1.0;stroke-dasharray:2.0,2.0;" x1="100" x2="1604.5" y1="741.1172" y2="741.1172"/><path d="M110,749.1172 L183,749.1172 L183,757.4688 L173,767.4688 L110,767.4688 L110,749.1172 " fill="#EEEEEE" style="stroke:#000000;stroke-width:1.5;"/><rect fill="none" height="246.8125" style="stroke:#000000;stroke-width:1.5;" width="1484.5" x="110" y="749.1172"/><text fill="#000000" font-family="sans-serif" font-size="13" font-weight="bold" lengthAdjust="spacing" textLength="28" x="125" y="763.6123">loop</text><text fill="#000000" font-family="sans-serif" font-size="11" font-weight="bold" lengthAdjust="spacing" textLength="75" x="198" y="762.5361">[validar itens]</text><polygon fill="#181818" points="982.5,785.8203,992.5,789.8203,982.5,793.8203,986.5,789.8203" style="stroke:#181818;stroke-width:1.0;"/><line style="stroke:#181818;stroke-width:1.0;" x1="682" x2="988.5" y1="789.8203" y2="789.8203"/><text fill="#000000" font-family="sans-serif" font-size="13" lengthAdjust="spacing" textLength="160" x="689" y="784.9639">getProduto(item.id_produto)</text><polygon fill="#181818" points="1554.5,816.1719,1564.5,820.1719,1554.5,824.1719,1558.5,820.1719" style="stroke:#181818;stroke-width:1.0;"/><line style="stroke:#181818;stroke-width:1.0;" x1="994.5" x2="1560.5" y1="820.1719" y2="820.1719"/><text fill="#000000" font-family="sans-serif" font-size="13" lengthAdjust="spacing" textLength="97" x="1001.5" y="815.3154">SELECT produto</text><polygon fill="#181818" points="1005.5,846.5234,995.5,850.5234,1005.5,854.5234,1001.5,850.5234" style="stroke:#181818;stroke-width:1.0;"/><line style="stroke:#181818;stroke-width:1.0;stroke-dasharray:2.0,2.0;" x1="999.5" x2="1565.5" y1="850.5234" y2="850.5234"/><text fill="#000000" font-family="sans-serif" font-size="13" lengthAdjust="spacing" textLength="43" x="1011.5" y="845.667">produto</text><polygon fill="#181818" points="693,876.875,683,880.875,693,884.875,689,880.875" style="stroke:#181818;stroke-width:1.0;"/><line style="stroke:#181818;stroke-width:1.0;stroke-dasharray:2.0,2.0;" x1="687" x2="993.5" y1="880.875" y2="880.875"/><text fill="#000000" font-family="sans-serif" font-size="13" lengthAdjust="spacing" textLength="43" x="699" y="876.0186">produto</text><path d="M120,895.875 L181,895.875 L181,904.2266 L171,914.2266 L120,914.2266 L120,895.875 " fill="#EEEEEE" style="stroke:#000000;stroke-width:1.5;"/><rect fill="none" height="93.0547" style="stroke:#000000;stroke-width:1.5;" width="624.5" x="120" y="895.875"/><text fill="#000000" font-family="sans-serif" font-size="13" font-weight="bold" lengthAdjust="spacing" textLength="16" x="135" y="910.3701">alt</text><text fill="#000000" font-family="sans-serif" font-size="11" font-weight="bold" lengthAdjust="spacing" textLength="122" x="196" y="909.2939">[estoque insuficiente]</text><polygon fill="#181818" points="444,932.5781,434,936.5781,444,940.5781,440,936.5781" style="stroke:#181818;stroke-width:1.0;"/><line style="stroke:#181818;stroke-width:1.0;" x1="438" x2="681" y1="936.5781" y2="936.5781"/><text fill="#000000" font-family="sans-serif" font-size="13" lengthAdjust="spacing" textLength="225" x="450" y="931.7217">"lan&#231;a AppError (Estoque insuficiente)"</text><polygon fill="#181818" points="213,962.9297,203,966.9297,213,970.9297,209,966.9297" style="stroke:#181818;stroke-width:1.0;"/><line style="stroke:#181818;stroke-width:1.0;" x1="207" x2="432" y1="966.9297" y2="966.9297"/><text fill="#000000" font-family="sans-serif" font-size="13" lengthAdjust="spacing" textLength="207" x="219" y="962.0732">responde 400 - Estoque insuficiente</text><polygon fill="#181818" points="421,976.9297,431,980.9297,421,984.9297,425,980.9297" style="stroke:#181818;stroke-width:1.0;"/><line style="stroke:#181818;stroke-width:1.0;stroke-dasharray:2.0,2.0;" x1="202" x2="427" y1="980.9297" y2="980.9297"/><polygon fill="#181818" points="1554.5,1021.2813,1564.5,1025.2813,1554.5,1029.2813,1558.5,1025.2813" style="stroke:#181818;stroke-width:1.0;"/><line style="stroke:#181818;stroke-width:1.0;" x1="687" x2="1560.5" y1="1025.2813" y2="1025.2813"/><text fill="#000000" font-family="sans-serif" font-size="13" lengthAdjust="spacing" textLength="91" x="694" y="1020.4248">inicia transa&#231;&#227;o</text><polygon fill="#181818" points="1410.5,1051.6328,1420.5,1055.6328,1410.5,1059.6328,1414.5,1055.6328" style="stroke:#181818;stroke-width:1.0;"/><line style="stroke:#181818;stroke-width:1.0;" x1="687" x2="1416.5" y1="1055.6328" y2="1055.6328"/><text fill="#000000" font-family="sans-serif" font-size="13" lengthAdjust="spacing" textLength="225" x="694" y="1050.7764">criarPedido(clienteId, total, enderecoId)</text><polygon fill="#181818" points="1554.5,1081.9844,1564.5,1085.9844,1554.5,1089.9844,1558.5,1085.9844" style="stroke:#181818;stroke-width:1.0;"/><line style="stroke:#181818;stroke-width:1.0;" x1="1422.5" x2="1560.5" y1="1085.9844" y2="1085.9844"/><text fill="#000000" font-family="sans-serif" font-size="13" lengthAdjust="spacing" textLength="88" x="1429.5" y="1081.1279">INSERT pedido</text><polygon fill="#181818" points="1433.5,1112.3359,1423.5,1116.3359,1433.5,1120.3359,1429.5,1116.3359" style="stroke:#181818;stroke-width:1.0;"/><line style="stroke:#181818;stroke-width:1.0;stroke-dasharray:2.0,2.0;" x1="1427.5" x2="1565.5" y1="1116.3359" y2="1116.3359"/><text fill="#000000" font-family="sans-serif" font-size="13" lengthAdjust="spacing" textLength="77" x="1439.5" y="1111.4795">pedido criado</text><polygon fill="#181818" points="698,1142.6875,688,1146.6875,698,1150.6875,694,1146.6875" style="stroke:#181818;stroke-width:1.0;"/><line style="stroke:#181818;stroke-width:1.0;stroke-dasharray:2.0,2.0;" x1="692" x2="1421.5" y1="1146.6875" y2="1146.6875"/><text fill="#000000" font-family="sans-serif" font-size="13" lengthAdjust="spacing" textLength="82" x="704" y="1141.8311">retorna pedido</text><path d="M619.5,1161.6875 L692.5,1161.6875 L692.5,1170.0391 L682.5,1180.0391 L619.5,1180.0391 L619.5,1161.6875 " fill="#EEEEEE" style="stroke:#000000;stroke-width:1.5;"/><rect fill="none" height="200.4609" style="stroke:#000000;stroke-width:1.5;" width="975" x="619.5" y="1161.6875"/><text fill="#000000" font-family="sans-serif" font-size="13" font-weight="bold" lengthAdjust="spacing" textLength="28" x="634.5" y="1176.1826">loop</text><text fill="#000000" font-family="sans-serif" font-size="11" font-weight="bold" lengthAdjust="spacing" textLength="88" x="707.5" y="1175.1064">[para cada item]</text><polygon fill="#181818" points="1410.5,1198.3906,1420.5,1202.3906,1410.5,1206.3906,1414.5,1202.3906" style="stroke:#181818;stroke-width:1.0;"/><line style="stroke:#181818;stroke-width:1.0;" x1="687" x2="1416.5" y1="1202.3906" y2="1202.3906"/><text fill="#000000" font-family="sans-serif" font-size="13" lengthAdjust="spacing" textLength="361" x="694" y="1197.5342">adicionarItemNoPedido(pedidoId, produtoId, quantidade, preco)</text><polygon fill="#181818" points="1554.5,1228.7422,1564.5,1232.7422,1554.5,1236.7422,1558.5,1232.7422" style="stroke:#181818;stroke-width:1.0;"/><line style="stroke:#181818;stroke-width:1.0;" x1="1422.5" x2="1560.5" y1="1232.7422" y2="1232.7422"/><text fill="#000000" font-family="sans-serif" font-size="13" lengthAdjust="spacing" textLength="120" x="1429.5" y="1227.8857">INSERT item_pedido</text><polygon fill="#181818" points="1433.5,1259.0938,1423.5,1263.0938,1433.5,1267.0938,1429.5,1263.0938" style="stroke:#181818;stroke-width:1.0;"/><line style="stroke:#181818;stroke-width:1.0;stroke-dasharray:2.0,2.0;" x1="1427.5" x2="1565.5" y1="1263.0938" y2="1263.0938"/><text fill="#000000" font-family="sans-serif" font-size="13" lengthAdjust="spacing" textLength="74" x="1439.5" y="1258.2373">item inserido</text><polygon fill="#181818" points="982.5,1289.4453,992.5,1293.4453,982.5,1297.4453,986.5,1293.4453" style="stroke:#181818;stroke-width:1.0;"/><line style="stroke:#181818;stroke-width:1.0;" x1="687" x2="988.5" y1="1293.4453" y2="1293.4453"/><text fill="#000000" font-family="sans-serif" font-size="13" lengthAdjust="spacing" textLength="225" x="694" y="1288.5889">diminuirEstoque(produtoId, quantidade)</text><polygon fill="#181818" points="1554.5,1319.7969,1564.5,1323.7969,1554.5,1327.7969,1558.5,1323.7969" style="stroke:#181818;stroke-width:1.0;"/><line style="stroke:#181818;stroke-width:1.0;" x1="994.5" x2="1560.5" y1="1323.7969" y2="1323.7969"/><text fill="#000000" font-family="sans-serif" font-size="13" lengthAdjust="spacing" textLength="102" x="1001.5" y="1318.9404">UPDATE estoque</text><polygon fill="#181818" points="1005.5,1350.1484,995.5,1354.1484,1005.5,1358.1484,1001.5,1354.1484" style="stroke:#181818;stroke-width:1.0;"/><line style="stroke:#181818;stroke-width:1.0;stroke-dasharray:2.0,2.0;" x1="999.5" x2="1565.5" y1="1354.1484" y2="1354.1484"/><text fill="#000000" font-family="sans-serif" font-size="13" lengthAdjust="spacing" textLength="109" x="1011.5" y="1349.292">estoque atualizado</text><polygon fill="#181818" points="838,1387.5,848,1391.5,838,1395.5,842,1391.5" style="stroke:#181818;stroke-width:1.0;"/><line style="stroke:#181818;stroke-width:1.0;" x1="687" x2="844" y1="1391.5" y2="1391.5"/><text fill="#000000" font-family="sans-serif" font-size="13" lengthAdjust="spacing" textLength="139" x="694" y="1386.6436">limparCarrinho(clienteId)</text><polygon fill="#181818" points="1554.5,1417.8516,1564.5,1421.8516,1554.5,1425.8516,1558.5,1421.8516" style="stroke:#181818;stroke-width:1.0;"/><line style="stroke:#181818;stroke-width:1.0;" x1="850" x2="1560.5" y1="1421.8516" y2="1421.8516"/><text fill="#000000" font-family="sans-serif" font-size="13" lengthAdjust="spacing" textLength="100" x="857" y="1416.9951">DELETE carrinho</text><polygon fill="#181818" points="861,1448.2031,851,1452.2031,861,1456.2031,857,1452.2031" style="stroke:#181818;stroke-width:1.0;"/><line style="stroke:#181818;stroke-width:1.0;stroke-dasharray:2.0,2.0;" x1="855" x2="1565.5" y1="1452.2031" y2="1452.2031"/><text fill="#000000" font-family="sans-serif" font-size="13" lengthAdjust="spacing" textLength="81" x="867" y="1447.3467">carrinho limpo</text><polygon fill="#181818" points="444,1478.5547,434,1482.5547,444,1486.5547,440,1482.5547" style="stroke:#181818;stroke-width:1.0;"/><line style="stroke:#181818;stroke-width:1.0;" x1="438" x2="681" y1="1482.5547" y2="1482.5547"/><text fill="#000000" font-family="sans-serif" font-size="13" lengthAdjust="spacing" textLength="82" x="450" y="1477.6982">retorna pedido</text><polygon fill="#181818" points="213,1508.9063,203,1512.9063,213,1516.9063,209,1512.9063" style="stroke:#181818;stroke-width:1.0;"/><line style="stroke:#181818;stroke-width:1.0;" x1="207" x2="432" y1="1512.9063" y2="1512.9063"/><text fill="#000000" font-family="sans-serif" font-size="13" lengthAdjust="spacing" textLength="167" x="219" y="1508.0498">responde 201 (pedido criado)</text><!--SRC=[bLRDRjim3BxhAOYS7A1Tks6d70OqZWS46BeYoNOjD8jhX3cI8yl1rjVPeS3kUuAys2XRRlmZjzabI2Jo8_cH7nKhROPi8Vc3uJiE0c6D-_BuHwMImoLyrUN3ri86qoq3zZ4hV-ePn4Po0tSefD1m1V4Mqn-wj13TVLvlu2glBeefGoN0LlYCfrORY3E9oYBBkR4obJbN5YOhRJbqF2V02rWHOjUo3XXhPOtECZI1opMQWqoxRZ4tHggjNc6k2qbf_Eew6YrAEtRhCnwvJPH0W-aeT9LJwr9mox_n0c4nPyn3m-M7kjOPmHs8z9e4YD23ByMKLGREii_135BNZCZW_W8C4kbzYvEN9yUxr6THMcUn51VG3iXuPk70CoduyUdu5mkGYihYic3GXNFu0vPcy83Mdvv2JCbtOEhy5_CPh9DFIRm1RqoMYpbSXh5FDW6qGBcUQ5IfOuKBpK9539jPLT4ST_e10UjU8OtvgP9GW9PL275OJEFmMZN3gQzxuezxJHaOzxlY3Lfj2U1BYwe0cjsMUGXwM5NbsPYwlL4FO8D3a_WeTQZCeHuc6LV79mutUPuOGqidYZieqyapJbSaNeGaebmJoV3- -feMODUPOLQukSkqphqyJ9qy7ORIwo-NgWd-D2B7tHifxlFwzxJ6wBlqMk6DArlVYq2KjbK0STY1ng7oSDnZOVM-HD9zKNudwNl5XSiyemj90A_gnGdnd7uausaPjALHrGytGVLdQ6WSc_Kw0nAGAjoA- -suebTA7ZYjYkvhCZvudQqKtggMdhUikrnXuDrajRnT9wkDVm9EOXi6yu-4Yobq473OOk976zKyCAmPOtgnE2bDS3V8E_P2Wzi9S47yQSNDafnkjQ-xXdPb-tboN_SbFOQa587kc3YOjeACSk2IkNycuWKgdA4R1pI-glDqAEHEgb8QFr1HCE5N9FdbRd6pIHgfl2B9Hb3SbhGu7kk-ZOreQBrcSaUz-jyDlg2rGJcUjy6V5wwBLP4fS4GKPws1tiYT9_HtrsyXwWnuzLUI_GC0]--></g></svg>