<?xml version="1.0" encoding="us-ascii" standalone="no"?><svg xmlns="http://www.w3.org/2000/svg" xmlns:xlink="http://www.w3.org/1999/xlink" contentStyleType="text/css" height="822px" preserveAspectRatio="none" style="width:979px;height:822px;background:#FFFFFF;" version="1.1" viewBox="0 0 979 822" width="979px" zoomAndPan="magnify"><defs/><g><text fill="#000000" font-family="sans-serif" font-size="14" font-weight="bold" lengthAdjust="spacing" textLength="276" x="344.5" y="24.5332">Diagrama de Implanta&#231;&#227;o - Vought Tech</text><!--cluster Cliente--><g id="cluster_Cliente"><polygon fill="#FEF9D8" points="572,54.6094,582,44.6094,882,44.6094,882,165.6094,872,175.6094,572,175.6094,572,54.6094" style="stroke:#333333;stroke-width:1.0;"/><line style="stroke:#333333;stroke-width:1.0;" x1="872" x2="882" y1="54.6094" y2="44.6094"/><line style="stroke:#333333;stroke-width:1.0;" x1="572" x2="872" y1="54.6094" y2="54.6094"/><line style="stroke:#333333;stroke-width:1.0;" x1="872" x2="872" y1="54.6094" y2="175.6094"/><text fill="#000000" font-family="sans-serif" font-size="14" font-weight="bold" lengthAdjust="spacing" textLength="234" x="606" y="72.1426">&#171;device&#187; Computador do Usu&#225;rio</text></g><!--cluster AppServer--><g id="cluster_AppServer"><polygon fill="#FEF9D8" points="382,243.6094,392,233.6094,825,233.6094,825,630.6094,815,640.6094,382,640.6094,382,243.6094" style="stroke:#333333;stroke-width:1.0;"/><line style="stroke:#333333;stroke-width:1.0;" x1="815" x2="825" y1="243.6094" y2="233.6094"/><line style="stroke:#333333;stroke-width:1.0;" x1="382" x2="815" y1="243.6094" y2="243.6094"/><line style="stroke:#333333;stroke-width:1.0;" x1="815" x2="815" y1="243.6094" y2="640.6094"/><text fill="#000000" font-family="sans-serif" font-size="14" font-weight="bold" lengthAdjust="spacing" textLength="338" x="430.5" y="261.1426">&#171;execution environment&#187; Servidor de Aplica&#231;&#227;o</text><text fill="#000000" font-family="sans-serif" font-size="14" font-weight="bold" lengthAdjust="spacing" textLength="106" x="546.5" y="278.752">(Node.js + Vite)</text></g><!--cluster FrontEnv--><g id="cluster_FrontEnv"><polygon fill="#FEF9D8" points="406,310.6094,416,300.6094,801,300.6094,801,423.6094,791,433.6094,406,433.6094,406,310.6094" style="stroke:#333333;stroke-width:1.0;"/><line style="stroke:#333333;stroke-width:1.0;" x1="791" x2="801" y1="310.6094" y2="300.6094"/><line style="stroke:#333333;stroke-width:1.0;" x1="406" x2="791" y1="310.6094" y2="310.6094"/><line style="stroke:#333333;stroke-width:1.0;" x1="791" x2="791" y1="310.6094" y2="433.6094"/><text fill="#000000" font-family="sans-serif" font-size="14" font-weight="bold" lengthAdjust="spacing" textLength="319" x="440" y="328.1426">&#171;execution environment&#187; Ambiente Frontend</text><text fill="#000000" font-family="sans-serif" font-size="14" font-weight="bold" lengthAdjust="spacing" textLength="137" x="531" y="345.752">(Vite + React 18.2.0)</text></g><!--cluster BackEnv--><g id="cluster_BackEnv"><polygon fill="#FEF9D8" points="408,493.6094,418,483.6094,799,483.6094,799,606.6094,789,616.6094,408,616.6094,408,493.6094" style="stroke:#333333;stroke-width:1.0;"/><line style="stroke:#333333;stroke-width:1.0;" x1="789" x2="799" y1="493.6094" y2="483.6094"/><line style="stroke:#333333;stroke-width:1.0;" x1="408" x2="789" y1="493.6094" y2="493.6094"/><line style="stroke:#333333;stroke-width:1.0;" x1="789" x2="789" y1="493.6094" y2="616.6094"/><text fill="#000000" font-family="sans-serif" font-size="14" font-weight="bold" lengthAdjust="spacing" textLength="315" x="442" y="511.1426">&#171;execution environment&#187; Ambiente Backend</text><text fill="#000000" font-family="sans-serif" font-size="14" font-weight="bold" lengthAdjust="spacing" textLength="188" x="505.5" y="528.752">(Node.js 22.21.0 + Express)</text></g><!--cluster DBServer--><g id="cluster_DBServer"><polygon fill="#FEF9D8" points="16,700.6094,26,690.6094,455,690.6094,455,795.6094,445,805.6094,16,805.6094,16,700.6094" style="stroke:#333333;stroke-width:1.0;"/><line style="stroke:#333333;stroke-width:1.0;" x1="445" x2="455" y1="700.6094" y2="690.6094"/><line style="stroke:#333333;stroke-width:1.0;" x1="16" x2="445" y1="700.6094" y2="700.6094"/><line style="stroke:#333333;stroke-width:1.0;" x1="445" x2="445" y1="700.6094" y2="805.6094"/><text fill="#000000" font-family="sans-serif" font-size="14" font-weight="bold" lengthAdjust="spacing" textLength="363" x="50" y="718.1426">&#171;execution environment&#187; Servidor Banco de Dados</text></g><!--cluster SExternos--><g id="cluster_SExternos"><polygon fill="#FEF9D8" points="479,700.6094,489,690.6094,962,690.6094,962,795.6094,952,805.6094,479,805.6094,479,700.6094" style="stroke:#333333;stroke-width:1.0;"/><line style="stroke:#333333;stroke-width:1.0;" x1="952" x2="962" y1="700.6094" y2="690.6094"/><line style="stroke:#333333;stroke-width:1.0;" x1="479" x2="952" y1="700.6094" y2="700.6094"/><line style="stroke:#333333;stroke-width:1.0;" x1="952" x2="952" y1="700.6094" y2="805.6094"/><text fill="#000000" font-family="sans-serif" font-size="14" font-weight="bold" lengthAdjust="spacing" textLength="313" x="560" y="718.1426">&#171;execution environment&#187; Servi&#231;os Externos</text></g><!--entity Navegador--><g id="elem_Navegador"><rect fill="#FFFFEE" height="58.2188" rx="2.5" ry="2.5" style="stroke:#333333;stroke-width:0.5;" width="195" x="650.5" y="93.6094"/><polygon fill="#FFFFEE" points="828.5,98.6094,828.5,112.6094,840.5,112.6094,840.5,104.6094,834.5,98.6094,828.5,98.6094" style="stroke:#333333;stroke-width:0.5;"/><line style="stroke:#333333;stroke-width:0.5;" x1="834.5" x2="834.5" y1="98.6094" y2="104.6094"/><line style="stroke:#333333;stroke-width:0.5;" x1="840.5" x2="834.5" y1="104.6094" y2="104.6094"/><text fill="#000000" font-family="sans-serif" font-size="14" lengthAdjust="spacing" textLength="165" x="660.5" y="121.1426">&#171;artifact&#187; Navegador Web</text><text fill="#000000" font-family="sans-serif" font-size="14" lengthAdjust="spacing" textLength="160" x="663" y="138.752">(Chrome / Firefox / Edge)</text></g><!--entity Frontend--><g id="elem_Frontend"><rect fill="#FFFFEE" height="58.2188" rx="2.5" ry="2.5" style="stroke:#333333;stroke-width:0.5;" width="198" x="504" y="359.6094"/><polygon fill="#FFFFEE" points="685,364.6094,685,378.6094,697,378.6094,697,370.6094,691,364.6094,685,364.6094" style="stroke:#333333;stroke-width:0.5;"/><line style="stroke:#333333;stroke-width:0.5;" x1="691" x2="691" y1="364.6094" y2="370.6094"/><line style="stroke:#333333;stroke-width:0.5;" x1="697" x2="691" y1="370.6094" y2="370.6094"/><text fill="#000000" font-family="sans-serif" font-size="14" lengthAdjust="spacing" textLength="121" x="537.5" y="387.1426">&#171;artifact&#187; Frontend</text><text fill="#000000" font-family="sans-serif" font-size="14" lengthAdjust="spacing" textLength="168" x="514" y="404.752">(React 18.2.0 / JavaScript)</text></g><!--entity Backend--><g id="elem_Backend"><rect fill="#FFFFEE" height="58.2188" rx="2.5" ry="2.5" style="stroke:#333333;stroke-width:0.5;" width="201" x="502.5" y="542.6094"/><polygon fill="#FFFFEE" points="686.5,547.6094,686.5,561.6094,698.5,561.6094,698.5,553.6094,692.5,547.6094,686.5,547.6094" style="stroke:#333333;stroke-width:0.5;"/><line style="stroke:#333333;stroke-width:0.5;" x1="692.5" x2="692.5" y1="547.6094" y2="553.6094"/><line style="stroke:#333333;stroke-width:0.5;" x1="698.5" x2="692.5" y1="553.6094" y2="553.6094"/><text fill="#000000" font-family="sans-serif" font-size="14" lengthAdjust="spacing" textLength="118" x="539" y="570.1426">&#171;artifact&#187; Backend</text><text fill="#000000" font-family="sans-serif" font-size="14" lengthAdjust="spacing" textLength="171" x="512.5" y="587.752">(Node.js 22.21.0 / Express)</text></g><!--entity Postgres--><g id="elem_Postgres"><rect fill="#FFFFEE" height="58.2188" rx="2.5" ry="2.5" style="stroke:#333333;stroke-width:0.5;" width="202" x="237" y="731.6094"/><polygon fill="#FFFFEE" points="422,736.6094,422,750.6094,434,750.6094,434,742.6094,428,736.6094,422,736.6094" style="stroke:#333333;stroke-width:0.5;"/><line style="stroke:#333333;stroke-width:0.5;" x1="428" x2="428" y1="736.6094" y2="742.6094"/><line style="stroke:#333333;stroke-width:0.5;" x1="434" x2="428" y1="742.6094" y2="742.6094"/><text fill="#000000" font-family="sans-serif" font-size="14" lengthAdjust="spacing" textLength="172" x="247" y="759.1426">&#171;artifact&#187; PostgreSQL 17.5</text><text fill="#000000" font-family="sans-serif" font-size="14" lengthAdjust="spacing" textLength="77" x="294.5" y="776.752">(db_vought)</text></g><!--entity SMTP--><g id="elem_SMTP"><rect fill="#FFFFEE" height="40.6094" rx="2.5" ry="2.5" style="stroke:#333333;stroke-width:0.5;" width="216" x="495" y="740.1094"/><polygon fill="#FFFFEE" points="694,745.1094,694,759.1094,706,759.1094,706,751.1094,700,745.1094,694,745.1094" style="stroke:#333333;stroke-width:0.5;"/><line style="stroke:#333333;stroke-width:0.5;" x1="700" x2="700" y1="745.1094" y2="751.1094"/><line style="stroke:#333333;stroke-width:0.5;" x1="706" x2="700" y1="751.1094" y2="751.1094"/><text fill="#000000" font-family="sans-serif" font-size="14" lengthAdjust="spacing" textLength="186" x="505" y="767.6426">&#171;artifact&#187; SMTP (Nodemailer)</text></g><!--entity Storage--><g id="elem_Storage"><rect fill="#FFFFEE" height="58.2188" rx="2.5" ry="2.5" style="stroke:#333333;stroke-width:0.5;" width="200" x="746" y="731.6094"/><polygon fill="#FFFFEE" points="929,736.6094,929,750.6094,941,750.6094,941,742.6094,935,736.6094,929,736.6094" style="stroke:#333333;stroke-width:0.5;"/><line style="stroke:#333333;stroke-width:0.5;" x1="935" x2="935" y1="736.6094" y2="742.6094"/><line style="stroke:#333333;stroke-width:0.5;" x1="941" x2="935" y1="742.6094" y2="742.6094"/><text fill="#000000" font-family="sans-serif" font-size="14" lengthAdjust="spacing" textLength="170" x="756" y="759.1426">&#171;artifact&#187; Storage Imagens</text><text fill="#000000" font-family="sans-serif" font-size="14" lengthAdjust="spacing" textLength="73" x="804.5" y="776.752">(Local / S3)</text></g><!--link Cliente to Frontend--><g id="link_Cliente_Frontend"><path d="M603,175.7487 C603,176.4118 603,177.0792 603,177.7507 C603,179.0939 603,180.4538 603,181.8294 C603,192.8346 603,204.8478 603,217.3631 C603,267.4244 603,319.5194 603,353.2694 " fill="none" id="Cliente-to-Frontend" style="stroke:#181818;stroke-width:1.0;"/><polygon fill="#181818" points="603,359.2694,607,350.2694,603,354.2694,599,350.2694,603,359.2694" style="stroke:#181818;stroke-width:1.0;"/><text fill="#000000" font-family="sans-serif" font-size="13" lengthAdjust="spacing" textLength="99" x="604" y="214.1045">&#171;TCP/IP&#187; (HTTP)</text></g><!--link Frontend to Backend--><g id="link_Frontend_Backend"><path d="M603,417.8894 C603,451.8994 603,502.6094 603,536.5294 " fill="none" id="Frontend-to-Backend" style="stroke:#181818;stroke-width:1.0;"/><polygon fill="#181818" points="603,542.5294,607,533.5294,603,537.5294,599,533.5294,603,542.5294" style="stroke:#181818;stroke-width:1.0;"/><text fill="#000000" font-family="sans-serif" font-size="13" lengthAdjust="spacing" textLength="121" x="604" y="464.1045">&#171;TCP/IP&#187; (API Calls)</text></g><!--link Backend to Postgres--><g id="link_Backend_Postgres"><path d="M502.49,599.8694 C467.33,612.9194 429.34,631.3594 400,656.6094 C376.43,676.8994 361.7366,702.9809 351.5366,725.8209 " fill="none" id="Backend-to-Postgres" style="stroke:#181818;stroke-width:1.0;"/><polygon fill="#181818" points="349.09,731.2994,356.4123,724.7127,351.1288,726.734,349.1076,721.4505,349.09,731.2994" style="stroke:#181818;stroke-width:1.0;"/><text fill="#000000" font-family="sans-serif" font-size="13" lengthAdjust="spacing" textLength="193" x="401" y="671.1045">&#171;TCP/IP&#187; (Conex&#227;o PostgreSQL)</text></g><!--link Backend to SMTP--><g id="link_Backend_SMTP"><path d="M603,601.0094 C603,639.3294 603,700.5894 603,733.8494 " fill="none" id="Backend-to-SMTP" style="stroke:#181818;stroke-width:1.0;"/><polygon fill="#181818" points="603,739.8494,607,730.8494,603,734.8494,599,730.8494,603,739.8494" style="stroke:#181818;stroke-width:1.0;"/><text fill="#000000" font-family="sans-serif" font-size="13" lengthAdjust="spacing" textLength="138" x="604" y="671.1045">&#171;TCP/IP&#187; (Envio SMTP)</text></g><!--link Backend to Storage--><g id="link_Backend_Storage"><path d="M661.85,600.6194 C690.12,615.3894 723.7,634.9294 751,656.6094 C779.01,678.8394 802.3713,704.8651 820.4313,726.9451 " fill="none" id="Backend-to-Storage" style="stroke:#181818;stroke-width:1.0;"/><polygon fill="#181818" points="824.23,731.5894,821.6281,722.0904,821.0644,727.7191,815.4357,727.1554,824.23,731.5894" style="stroke:#181818;stroke-width:1.0;"/><text fill="#000000" font-family="sans-serif" font-size="13" lengthAdjust="spacing" textLength="175" x="772" y="671.1045">&#171;TCP/IP&#187; (Upload / Download)</text></g><!--SRC=[lLNHRjCm57tFLroD1rPDwrWhn41bKfguebFNb2ORUq12NdARcgLsvBXT9RGd7lO5V03YOH-I7yDEqgtheC0A-25oudEFVSyzrr5C9GWkex6a4meHGdUI9fGhcj_atmJimgcOncC50OPZoyek64-fXa8sff6uP3o64KqoN5g9S4IdYGfmhko4nNo2N46e7oYNK5n4sARXHIp5b4UEI8I49ntIUUaUhAA4Z51MY6QpkRHCfM8Z6gg7H7eGyYFaAfbbFONNZnawpkbrIJyWZsQmJ7gmrMf5E6CX7Xw28oRfL6bb9KG2Jh9f_bKoiGKq0oTXHaFuP84UYtnCz6Aku_jqXd4H_WxFt_DjPop5164FEapYICprZ4GnrWh6Mx1rjP4CFXcUTbrl22u1Uz3hEdP-dN_sDfS5vnXE5HCSaC-O58MLT9O-oXahD4AmquI5fLbrldqTMV-OmGwSCbMbQQUf2K2ffIkq-nMzFJalfUxeRmfvf8aDdMOTej5y_w3Ug3yhsGiCuREgBcjgiyIsJADBSaHdr0ybIzKIfqOMZ5T_U6ZJ2-Kk2p4QZNfZNs-q0sIUIiooSXS3_As3_vnnxo7ZtR4tCrNRxZkUSPHhkvx_7xpKfZmKnb6kRecioCTjtnfdZJm3aQbOel-s1_ilwi-rJD7vXrbnQvQoL83iRxHPVktvGCu2Ckp_SrNo6v7f0kjxcrU2-8ktzOhuny402hDCA4jGbZAOhskZb90qDZyW_UIPrh4dGffea_dDYg54RAYZu_N9MVw5-B1D_A3RqoxpuDXpIS-hFLxHnVMyktlNwV0AMgt06Unr1pg_xJT1CAXPjui6MNNC2j0UTC6XIPBLh0N0W1S-Ma4xWkFS_AllZ7W_hYZ7_HZTzqmK2olGgWRtqITf8cYa2-6AIswcDUix]--></g></svg>