<?xml version="1.0" encoding="us-ascii" standalone="no"?><svg xmlns="http://www.w3.org/2000/svg" xmlns:xlink="http://www.w3.org/1999/xlink" contentStyleType="text/css" height="682px" preserveAspectRatio="none" style="width:673px;height:682px;background:#FFFFFF;" version="1.1" viewBox="0 0 673 682" width="673px" zoomAndPan="magnify"><defs/><g><text fill="#000000" font-family="sans-serif" font-size="14" font-weight="bold" lengthAdjust="spacing" textLength="377" x="141" y="24.5332">Diagrama de Implanta&#231;&#227;o - Vought Tech (E-commerce)</text><!--cluster Dispositivo do Cliente--><g id="cluster_Dispositivo do Cliente"><polygon fill="#EAEAEA" points="272,54.6094,282,44.6094,508,44.6094,508,229.6094,498,239.6094,272,239.6094,272,54.6094" style="stroke:#555555;stroke-width:1.0;"/><line style="stroke:#555555;stroke-width:1.0;" x1="498" x2="508" y1="54.6094" y2="44.6094"/><line style="stroke:#555555;stroke-width:1.0;" x1="272" x2="498" y1="54.6094" y2="54.6094"/><line style="stroke:#555555;stroke-width:1.0;" x1="498" x2="498" y1="54.6094" y2="239.6094"/><text fill="#000000" font-family="sans-serif" font-size="14" font-weight="bold" lengthAdjust="spacing" textLength="155" x="308.5" y="72.1426">Dispositivo do Cliente</text></g><!--cluster Navegador Web--><g id="cluster_Navegador Web"><polygon fill="#EAEAEA" points="296,103.6094,306,93.6094,484,93.6094,484,205.6094,474,215.6094,296,215.6094,296,103.6094" style="stroke:#555555;stroke-width:1.0;"/><line style="stroke:#555555;stroke-width:1.0;" x1="474" x2="484" y1="103.6094" y2="93.6094"/><line style="stroke:#555555;stroke-width:1.0;" x1="296" x2="474" y1="103.6094" y2="103.6094"/><line style="stroke:#555555;stroke-width:1.0;" x1="474" x2="474" y1="103.6094" y2="215.6094"/><text fill="#000000" font-family="sans-serif" font-size="14" font-weight="bold" lengthAdjust="spacing" textLength="112" x="330" y="121.1426">Navegador Web</text></g><!--cluster AppServer--><g id="cluster_AppServer"><polygon fill="#EAEAEA" points="361,323.6094,371,313.6094,591,313.6094,591,442.6094,581,452.6094,361,452.6094,361,323.6094" style="stroke:#555555;stroke-width:1.0;"/><line style="stroke:#555555;stroke-width:1.0;" x1="581" x2="591" y1="323.6094" y2="313.6094"/><line style="stroke:#555555;stroke-width:1.0;" x1="361" x2="581" y1="323.6094" y2="323.6094"/><line style="stroke:#555555;stroke-width:1.0;" x1="581" x2="581" y1="323.6094" y2="452.6094"/><text fill="#000000" font-family="sans-serif" font-size="14" font-weight="bold" lengthAdjust="spacing" textLength="154" x="395" y="341.1426">Servidor de Aplica&#231;&#227;o</text><text fill="#000000" font-family="sans-serif" font-size="14" font-weight="bold" lengthAdjust="spacing" textLength="136" x="404" y="358.752">(Node.js + Express)</text></g><!--cluster Servidor de Banco de Dados--><g id="cluster_Servidor de Banco de Dados"><polygon fill="#EAEAEA" points="16,554.1094,26,544.1094,293,544.1094,293,655.1094,283,665.1094,16,665.1094,16,554.1094" style="stroke:#555555;stroke-width:1.0;"/><line style="stroke:#555555;stroke-width:1.0;" x1="283" x2="293" y1="554.1094" y2="544.1094"/><line style="stroke:#555555;stroke-width:1.0;" x1="16" x2="283" y1="554.1094" y2="554.1094"/><line style="stroke:#555555;stroke-width:1.0;" x1="283" x2="283" y1="554.1094" y2="665.1094"/><text fill="#000000" font-family="sans-serif" font-size="14" font-weight="bold" lengthAdjust="spacing" textLength="201" x="50" y="571.6426">Servidor de Banco de Dados</text></g><!--cluster Servi?os Externos--><g id="cluster_Servi&#231;os Externos"><polygon fill="#EAEAEA" points="317,553.6094,327,543.6094,656,543.6094,656,655.6094,646,665.6094,317,665.6094,317,553.6094" style="stroke:#555555;stroke-width:1.0;"/><line style="stroke:#555555;stroke-width:1.0;" x1="646" x2="656" y1="553.6094" y2="543.6094"/><line style="stroke:#555555;stroke-width:1.0;" x1="317" x2="646" y1="553.6094" y2="553.6094"/><line style="stroke:#555555;stroke-width:1.0;" x1="646" x2="646" y1="553.6094" y2="665.6094"/><text fill="#000000" font-family="sans-serif" font-size="14" font-weight="bold" lengthAdjust="spacing" textLength="129" x="418" y="571.1426">Servi&#231;os Externos</text></g><!--entity Frontend--><g id="elem_Frontend"><rect fill="#F8F8F8" height="65.2188" rx="2.5" ry="2.5" style="stroke:#181818;stroke-width:0.5;" width="139" x="320.5" y="134.6094"/><rect fill="#F8F8F8" height="10" style="stroke:#181818;stroke-width:0.5;" width="15" x="439.5" y="139.6094"/><rect fill="#F8F8F8" height="2" style="stroke:#181818;stroke-width:0.5;" width="4" x="437.5" y="141.6094"/><rect fill="#F8F8F8" height="2" style="stroke:#181818;stroke-width:0.5;" width="4" x="437.5" y="145.6094"/><text fill="#000000" font-family="sans-serif" font-size="14" lengthAdjust="spacing" textLength="99" x="335.5" y="169.1426">Frontend React</text><text fill="#000000" font-family="sans-serif" font-size="14" lengthAdjust="spacing" textLength="65" x="335.5" y="186.752">SPA (Vite)</text></g><!--entity Backend--><g id="elem_Backend"><rect fill="#F8F8F8" height="47.6094" rx="2.5" ry="2.5" style="stroke:#181818;stroke-width:0.5;" width="120" x="436" y="380.6094"/><rect fill="#F8F8F8" height="10" style="stroke:#181818;stroke-width:0.5;" width="15" x="536" y="385.6094"/><rect fill="#F8F8F8" height="2" style="stroke:#181818;stroke-width:0.5;" width="4" x="534" y="387.6094"/><rect fill="#F8F8F8" height="2" style="stroke:#181818;stroke-width:0.5;" width="4" x="534" y="391.6094"/><text fill="#000000" font-family="sans-serif" font-size="14" lengthAdjust="spacing" textLength="80" x="451" y="415.1426">API Backend</text></g><!--entity Postgres--><g id="elem_Postgres"><path d="M179.5,595.1094 C179.5,585.1094 228,585.1094 228,585.1094 C228,585.1094 276.5,585.1094 276.5,595.1094 L276.5,639.3281 C276.5,649.3281 228,649.3281 228,649.3281 C228,649.3281 179.5,649.3281 179.5,639.3281 L179.5,595.1094 " fill="#EFEFEF" style="stroke:#555555;stroke-width:0.5;"/><path d="M179.5,595.1094 C179.5,605.1094 228,605.1094 228,605.1094 C228,605.1094 276.5,605.1094 276.5,595.1094 " fill="none" style="stroke:#555555;stroke-width:0.5;"/><text fill="#000000" font-family="sans-serif" font-size="14" lengthAdjust="spacing" textLength="77" x="189.5" y="623.6426">PostgreSQL</text><text fill="#000000" font-family="sans-serif" font-size="14" lengthAdjust="spacing" textLength="77" x="189.5" y="641.252">(db_vought)</text></g><!--entity SMTP--><g id="elem_SMTP"><path d="M341.5848,594.4061 C343.7708,587.1723 349.3943,586.3006 354.2045,591.8066 C357.1403,585.3819 362.9678,584.6928 367.5389,589.938 C368.855,583.6022 373.7733,582.2875 377.9616,587.3001 C380.3197,580.4105 386.3061,579.3774 390.9461,584.916 C394.8087,578.7023 399.8308,580.302 402.9017,585.7291 C407.8574,580.7427 412.2424,582.1331 414.676,588.3741 C419.9992,583.5178 424.953,583.1611 428.2864,590.5803 C432.1584,586.7438 437.5652,586.6918 439.1981,592.9909 C446.6916,595.5878 449.233,600.4298 442.8872,606.74 C448.7069,609.6334 449.6969,614.828 444.7878,619.3398 C449.7972,623.5516 448.5424,628.3434 443.0082,630.9374 C447.6307,636.8569 445.62,640.6501 439.2337,643.1737 C435.7377,649.382 431.4599,649.3497 427.8714,643.2592 C425.273,650.056 419.7532,650.4558 415.9478,644.3769 C413.2921,650.7731 407.5526,649.9679 404.1562,645.1562 C400.5684,651.0995 396.7441,651.4711 391.8868,646.5959 C387.2733,652.2723 382.1251,653.3915 378.2764,645.8108 C374.0127,649.932 369.5004,649.486 367.2601,643.5864 C363.1334,649.7346 356.7713,649.2644 353.6645,642.5115 C351.2211,647.9615 346.4929,648.5285 342.7339,643.9447 C334.5502,642.39 334.1936,635.2582 339.2618,630.3251 C332.4136,628.2187 331.1385,624.5771 335.2315,618.683 C329.7618,613.659 331.7635,608.0485 337.9486,605.4103 C333.1793,600.7245 336.147,595.719 341.5848,594.4061 " fill="#F5F5F5" style="stroke:#777777;stroke-width:0.5;"/><text fill="#000000" font-family="sans-serif" font-size="14" lengthAdjust="spacing" textLength="84" x="348" y="614.1426">SMTP / Email</text><text fill="#000000" font-family="sans-serif" font-size="14" lengthAdjust="spacing" textLength="81" x="348" y="631.752">(Nodemailer)</text></g><!--entity Storage--><g id="elem_Storage"><path d="M491.7237,593.3562 C494.1967,587.7739 499.0236,587.4201 502.4082,592.4373 C506.3513,585.6512 510.8834,585.5817 515.8952,591.2832 C518.6533,586.1882 521.7323,585.0741 526.1069,589.5604 C528.1219,583.1505 533.0168,581.0841 538.0519,586.5132 C541.0589,579.502 547.0078,580.6311 550.7832,585.7035 C554.4422,579.7595 558.2784,579.7451 562.891,584.638 C566.5378,579.7537 569.982,578.8922 573.5386,584.7276 C578.6877,579.7107 582.7472,581.251 584.8578,587.7215 C589.5877,581.8678 593.7883,582.2002 598.0139,588.2775 C601.9402,583.2864 606.3583,584.7491 609.1082,589.6031 C614.4202,585.4565 619.1667,586.5141 621.8034,592.8447 C625.9284,588.3114 629.4268,589.6234 632.0527,594.4809 C638.5755,596.8185 640.984,600.2011 636.4492,606.5625 C642.4535,608.5928 644.2496,614.2321 638.6324,618.4049 C644.3463,623.6083 641.8861,628.6399 635.5842,630.9157 C641.3466,635.9611 640.7423,640.6514 633.484,643.5289 C630.2144,649.4609 624.5007,648.8765 621.5332,643.2174 C618.1041,649.5556 611.8989,648.8094 608.4501,643.2389 C606.2006,648.7243 603.0609,649.1941 598.4215,646.0003 C595.5223,652.512 589.2296,652.0675 585.7346,646.633 C581.6696,652.9428 577.2256,652.87 573.6115,646.2115 C570.7141,652.4456 566.0874,651.5153 562.4351,646.9961 C558.7866,652.7139 553.4622,650.8262 551.2514,645.5355 C548.2508,651.4585 542.6893,652.1671 538.5485,646.8208 C534.5746,651.2302 528.3984,650.8536 526.2274,644.7148 C523.1012,650.3552 518.1815,650.1035 515.2421,644.5319 C511.5094,649.8554 507.4977,650.6227 503.5967,644.7063 C499.1876,649.916 493.1364,648.363 490.6155,642.4939 C484.3017,640.8247 482.5308,634.8673 487.2626,630.1885 C480.9015,628.4772 479.2825,623.1873 483.7462,618.2797 C479.3279,613.3177 480.0611,608.5548 487.052,606.9101 C481.7389,600.6469 483.4014,594.9196 491.7237,593.3562 " fill="#F5F5F5" style="stroke:#777777;stroke-width:0.5;"/><text fill="#000000" font-family="sans-serif" font-size="14" lengthAdjust="spacing" textLength="127" x="497.5" y="614.1426">Storage de Imagens</text><text fill="#000000" font-family="sans-serif" font-size="14" lengthAdjust="spacing" textLength="80" x="497.5" y="631.752">(local ou S3)</text></g><!--link Frontend to AppServer--><g id="link_Frontend_AppServer"><path d="M390,199.8694 C390,215.6894 390,236.0619 390,257.7881 C390,268.6513 390,279.8528 390,290.993 C390,296.563 390,302.1178 390,307.6072 C390,308.9795 390,310.3478 390,311.7112 C390,312.052 390,306.3926 390,306.7328 " fill="none" id="Frontend-to-AppServer" style="stroke:#181818;stroke-width:1.0;"/><polygon fill="#181818" points="390,312.7328,394,303.7328,390,307.7328,386,303.7328,390,312.7328" style="stroke:#181818;stroke-width:1.0;"/><text fill="#000000" font-family="sans-serif" font-size="13" lengthAdjust="spacing" textLength="123" x="391" y="270.1045">HTTP/HTTPS (JSON)</text><text fill="#000000" font-family="sans-serif" font-size="13" lengthAdjust="spacing" textLength="63" x="421" y="286.4561">Porta 3000</text></g><!--link AppServer to Postgres--><g id="link_AppServer_Postgres"><path d="M360.5922,421.3876 C360.4454,421.4747 360.2981,421.5621 360.1506,421.6499 C357.7901,423.0538 355.3459,424.54 352.84,426.1044 C332.7925,438.6194 308.79,456.1394 292,476.6094 C265.22,509.2594 248.9432,549.2626 239.0032,579.3326 " fill="none" id="AppServer-to-Postgres" style="stroke:#181818;stroke-width:1.0;"/><polygon fill="#181818" points="237.12,585.0294,243.7426,577.7396,238.6893,580.282,236.1468,575.2287,237.12,585.0294" style="stroke:#181818;stroke-width:1.0;"/><text fill="#000000" font-family="sans-serif" font-size="13" lengthAdjust="spacing" textLength="41" x="316.5" y="491.1045">TCP/IP</text><text fill="#000000" font-family="sans-serif" font-size="13" lengthAdjust="spacing" textLength="63" x="305.5" y="507.4561">Porta 5432</text><text fill="#000000" font-family="sans-serif" font-size="13" lengthAdjust="spacing" textLength="88" x="293" y="523.8076">Consultas SQL</text></g><!--link AppServer to SMTP--><g id="link_AppServer_SMTP"><path d="M390,453.1253 C390,453.3846 390,453.6445 390,453.9052 C390,454.4264 390,454.9504 390,455.4769 C390,457.583 390,459.7305 390,461.9141 C390,466.2814 390,470.7933 390,475.4081 C390,512.3269 390,549.8344 390,578.5894 " fill="none" id="AppServer-to-SMTP" style="stroke:#181818;stroke-width:1.0;"/><polygon fill="#181818" points="390,584.5894,394,575.5894,390,579.5894,386,575.5894,390,584.5894" style="stroke:#181818;stroke-width:1.0;"/><text fill="#000000" font-family="sans-serif" font-size="13" lengthAdjust="spacing" textLength="63" x="406" y="499.6045">SMTP/TLS</text><text fill="#000000" font-family="sans-serif" font-size="13" lengthAdjust="spacing" textLength="93" x="391" y="515.9561">Envio de Emails</text></g><!--link AppServer to Storage--><g id="link_AppServer_Storage"><path d="M405.5858,452.7299 C405.6488,452.8306 405.7119,452.9312 405.7754,453.0316 C406.029,453.4333 406.2866,453.8326 406.5481,454.2292 C407.0711,455.0223 407.6099,455.8046 408.1649,456.5741 C409.2748,458.1131 410.4496,459.6008 411.6928,461.0213 C414.1791,463.8623 416.9388,466.4344 420,468.6094 C446.61,487.5094 466.31,457.8294 493,476.6094 C529.03,501.9594 545.3253,546.0059 553.4453,578.7359 " fill="none" id="AppServer-to-Storage" style="stroke:#181818;stroke-width:1.0;"/><polygon fill="#181818" points="554.89,584.5594,556.6052,574.861,553.686,579.7065,548.8406,576.7873,554.89,584.5594" style="stroke:#181818;stroke-width:1.0;"/><text fill="#000000" font-family="sans-serif" font-size="13" lengthAdjust="spacing" textLength="100" x="534.5" y="499.6045">Upload/Download</text><text fill="#000000" font-family="sans-serif" font-size="13" lengthAdjust="spacing" textLength="103" x="533" y="515.9561">imagens produtos</text></g><!--SRC=[jLN1Rjim3BtxAuZii0H3bc9PqA701hYsWcL8RJVskXu23AgjkLeTqP2KjC3GqmxzWdt13lqG_zWas-dIOCKkhWauZCX7YuyKfRak6FYSvfAkA6GCPgkoe4BJwhxwZJ24CrpdbneIbbv2dmnJNAsOJDd0STGL5oKrE90irLJa9j8F1-0OPSQaXmLAU34UZytI58Lk5muE3gmFJQzoYMkHjSl4i-BSxaGrdofHCA6RgFk8wJihZn02C_PlP-9QsT_SP39vXC-efXTKFHLZQkL_CT82rzaJEvvOsGzmU7ZuA82wf1bUSv73DreevZWluNqNZudZpMSaI4Xd4Mk-UpvN9Igk-GOXG_0ARch6UZK7ZKT0DomtMKdumYuQ0-oKjpULfZ-Oo631QAgN8evSw9znpGOze0gsPWExDLHrI4XC5cSpFro0Jy2DvZFFhUwgds771CLCRhZDtlnnouAdpU5QYdvWxA-_AtW5vAQKJAacORSiBOR9cgeTejneLhUL8QDsRFLkIJbs0o-qZFYk7yRFoCKn5IbQnJUzePg-U3Y2lGYLpYMBJ-U6gEpYwwOUH0r1hKqzGpTKTs4Cv3mXY-1vag_kKPboQoR5DkbcPlJYaoI24P0LvKNR75PbiadQcdUSDKgQisPa6qKe0oamfGNW6k9nYscykkN92mDoNlqYCVHvlgPS0KLWIlEY7W3PzZPXDynS9ZZexDFEmw0O3Z_id98Z-9WaqSY-p9u-nM4mM8e8fQOmjlVDNq-BspQFWILUD9f5Mz_9s_6RfV1Gg7MXBNcdypreNQ6Z-cUKpEEb86B3wnQkYwRstTiQ7S5dmmFDHZvU2wii1Mzg1gN4RArHENy0]--></g></svg>